G04 #@! TF.GenerationSoftware,KiCad,Pcbnew,(6.0.0)*
G04 #@! TF.CreationDate,2023-02-08T23:18:21+02:00*
G04 #@! TF.ProjectId,electrolyte,656c6563-7472-46f6-9c79-74652e6b6963,v1.fun*
G04 #@! TF.SameCoordinates,Original*
G04 #@! TF.FileFunction,Legend,Bot*
G04 #@! TF.FilePolarity,Positive*
%FSLAX46Y46*%
G04 Gerber Fmt 4.6, Leading zero omitted, Abs format (unit mm)*
G04 Created by KiCad (PCBNEW (6.0.0)) date 2023-02-08 23:18:21*
%MOMM*%
%LPD*%
G01*
G04 APERTURE LIST*
G04 Aperture macros list*
%AMRoundRect*
0 Rectangle with rounded corners*
0 $1 Rounding radius*
0 $2 $3 $4 $5 $6 $7 $8 $9 X,Y pos of 4 corners*
0 Add a 4 corners polygon primitive as box body*
4,1,4,$2,$3,$4,$5,$6,$7,$8,$9,$2,$3,0*
0 Add four circle primitives for the rounded corners*
1,1,$1+$1,$2,$3*
1,1,$1+$1,$4,$5*
1,1,$1+$1,$6,$7*
1,1,$1+$1,$8,$9*
0 Add four rect primitives between the rounded corners*
20,1,$1+$1,$2,$3,$4,$5,0*
20,1,$1+$1,$4,$5,$6,$7,0*
20,1,$1+$1,$6,$7,$8,$9,0*
20,1,$1+$1,$8,$9,$2,$3,0*%
G04 Aperture macros list end*
%ADD10C,0.150000*%
%ADD11C,0.381000*%
%ADD12C,0.120000*%
%ADD13R,1.752600X1.752600*%
%ADD14C,1.752600*%
%ADD15RoundRect,0.051000X-0.600000X0.800000X-0.600000X-0.800000X0.600000X-0.800000X0.600000X0.800000X0*%
%ADD16RoundRect,0.051000X-0.800000X0.800000X-0.800000X-0.800000X0.800000X-0.800000X0.800000X0.800000X0*%
%ADD17C,1.702000*%
%ADD18C,1.852000*%
%ADD19C,4.089800*%
%ADD20C,2.352000*%
%ADD21RoundRect,0.051000X-0.876300X0.876300X-0.876300X-0.876300X0.876300X-0.876300X0.876300X0.876300X0*%
%ADD22C,1.854600*%
%ADD23C,4.502000*%
%ADD24C,4.102000*%
%ADD25O,2.482000X1.852000*%
%ADD26C,3.152000*%
%ADD27C,2.302000*%
%ADD28RoundRect,0.051000X0.850000X0.500000X-0.850000X0.500000X-0.850000X-0.500000X0.850000X-0.500000X0*%
G04 APERTURE END LIST*
D10*
X28619047Y-88752380D02*
X28619047Y-89466666D01*
X28666666Y-89609523D01*
X28761904Y-89704761D01*
X28904761Y-89752380D01*
X29000000Y-89752380D01*
X27666666Y-89752380D02*
X28142857Y-89752380D01*
X28142857Y-88752380D01*
X26761904Y-89657142D02*
X26809523Y-89704761D01*
X26952380Y-89752380D01*
X27047619Y-89752380D01*
X27190476Y-89704761D01*
X27285714Y-89609523D01*
X27333333Y-89514285D01*
X27380952Y-89323809D01*
X27380952Y-89180952D01*
X27333333Y-88990476D01*
X27285714Y-88895238D01*
X27190476Y-88800000D01*
X27047619Y-88752380D01*
X26952380Y-88752380D01*
X26809523Y-88800000D01*
X26761904Y-88847619D01*
X26047619Y-88752380D02*
X26047619Y-89466666D01*
X26095238Y-89609523D01*
X26190476Y-89704761D01*
X26333333Y-89752380D01*
X26428571Y-89752380D01*
X25095238Y-89752380D02*
X25571428Y-89752380D01*
X25571428Y-88752380D01*
X24190476Y-89657142D02*
X24238095Y-89704761D01*
X24380952Y-89752380D01*
X24476190Y-89752380D01*
X24619047Y-89704761D01*
X24714285Y-89609523D01*
X24761904Y-89514285D01*
X24809523Y-89323809D01*
X24809523Y-89180952D01*
X24761904Y-88990476D01*
X24714285Y-88895238D01*
X24619047Y-88800000D01*
X24476190Y-88752380D01*
X24380952Y-88752380D01*
X24238095Y-88800000D01*
X24190476Y-88847619D01*
X23476190Y-88752380D02*
X23476190Y-89466666D01*
X23523809Y-89609523D01*
X23619047Y-89704761D01*
X23761904Y-89752380D01*
X23857142Y-89752380D01*
X22523809Y-89752380D02*
X23000000Y-89752380D01*
X23000000Y-88752380D01*
X21619047Y-89657142D02*
X21666666Y-89704761D01*
X21809523Y-89752380D01*
X21904761Y-89752380D01*
X22047619Y-89704761D01*
X22142857Y-89609523D01*
X22190476Y-89514285D01*
X22238095Y-89323809D01*
X22238095Y-89180952D01*
X22190476Y-88990476D01*
X22142857Y-88895238D01*
X22047619Y-88800000D01*
X21904761Y-88752380D01*
X21809523Y-88752380D01*
X21666666Y-88800000D01*
X21619047Y-88847619D01*
X20904761Y-88752380D02*
X20904761Y-89466666D01*
X20952380Y-89609523D01*
X21047619Y-89704761D01*
X21190476Y-89752380D01*
X21285714Y-89752380D01*
X19952380Y-89752380D02*
X20428571Y-89752380D01*
X20428571Y-88752380D01*
X19047619Y-89657142D02*
X19095238Y-89704761D01*
X19238095Y-89752380D01*
X19333333Y-89752380D01*
X19476190Y-89704761D01*
X19571428Y-89609523D01*
X19619047Y-89514285D01*
X19666666Y-89323809D01*
X19666666Y-89180952D01*
X19619047Y-88990476D01*
X19571428Y-88895238D01*
X19476190Y-88800000D01*
X19333333Y-88752380D01*
X19238095Y-88752380D01*
X19095238Y-88800000D01*
X19047619Y-88847619D01*
X129604761Y-54157571D02*
X129271428Y-54157571D01*
X129128571Y-54681380D02*
X129604761Y-54681380D01*
X129604761Y-53681380D01*
X129128571Y-53681380D01*
X128557142Y-54681380D02*
X128652380Y-54633761D01*
X128700000Y-54538523D01*
X128700000Y-53681380D01*
X127795238Y-54633761D02*
X127890476Y-54681380D01*
X128080952Y-54681380D01*
X128176190Y-54633761D01*
X128223809Y-54538523D01*
X128223809Y-54157571D01*
X128176190Y-54062333D01*
X128080952Y-54014714D01*
X127890476Y-54014714D01*
X127795238Y-54062333D01*
X127747619Y-54157571D01*
X127747619Y-54252809D01*
X128223809Y-54348047D01*
X126890476Y-54633761D02*
X126985714Y-54681380D01*
X127176190Y-54681380D01*
X127271428Y-54633761D01*
X127319047Y-54586142D01*
X127366666Y-54490904D01*
X127366666Y-54205190D01*
X127319047Y-54109952D01*
X127271428Y-54062333D01*
X127176190Y-54014714D01*
X126985714Y-54014714D01*
X126890476Y-54062333D01*
X126604761Y-54014714D02*
X126223809Y-54014714D01*
X126461904Y-53681380D02*
X126461904Y-54538523D01*
X126414285Y-54633761D01*
X126319047Y-54681380D01*
X126223809Y-54681380D01*
X125890476Y-54681380D02*
X125890476Y-54014714D01*
X125890476Y-54205190D02*
X125842857Y-54109952D01*
X125795238Y-54062333D01*
X125700000Y-54014714D01*
X125604761Y-54014714D01*
X125128571Y-54681380D02*
X125223809Y-54633761D01*
X125271428Y-54586142D01*
X125319047Y-54490904D01*
X125319047Y-54205190D01*
X125271428Y-54109952D01*
X125223809Y-54062333D01*
X125128571Y-54014714D01*
X124985714Y-54014714D01*
X124890476Y-54062333D01*
X124842857Y-54109952D01*
X124795238Y-54205190D01*
X124795238Y-54490904D01*
X124842857Y-54586142D01*
X124890476Y-54633761D01*
X124985714Y-54681380D01*
X125128571Y-54681380D01*
X124223809Y-54681380D02*
X124319047Y-54633761D01*
X124366666Y-54538523D01*
X124366666Y-53681380D01*
X123938095Y-54014714D02*
X123700000Y-54681380D01*
X123461904Y-54014714D02*
X123700000Y-54681380D01*
X123795238Y-54919476D01*
X123842857Y-54967095D01*
X123938095Y-55014714D01*
X123223809Y-54014714D02*
X122842857Y-54014714D01*
X123080952Y-53681380D02*
X123080952Y-54538523D01*
X123033333Y-54633761D01*
X122938095Y-54681380D01*
X122842857Y-54681380D01*
X122128571Y-54633761D02*
X122223809Y-54681380D01*
X122414285Y-54681380D01*
X122509523Y-54633761D01*
X122557142Y-54538523D01*
X122557142Y-54157571D01*
X122509523Y-54062333D01*
X122414285Y-54014714D01*
X122223809Y-54014714D01*
X122128571Y-54062333D01*
X122080952Y-54157571D01*
X122080952Y-54252809D01*
X122557142Y-54348047D01*
X120985714Y-54014714D02*
X120747619Y-54681380D01*
X120509523Y-54014714D01*
X119604761Y-54681380D02*
X120176190Y-54681380D01*
X119890476Y-54681380D02*
X119890476Y-53681380D01*
X119985714Y-53824238D01*
X120080952Y-53919476D01*
X120176190Y-53967095D01*
X119176190Y-54586142D02*
X119128571Y-54633761D01*
X119176190Y-54681380D01*
X119223809Y-54633761D01*
X119176190Y-54586142D01*
X119176190Y-54681380D01*
X118842857Y-54014714D02*
X118461904Y-54014714D01*
X118700000Y-54681380D02*
X118700000Y-53824238D01*
X118652380Y-53729000D01*
X118557142Y-53681380D01*
X118461904Y-53681380D01*
X117700000Y-54014714D02*
X117700000Y-54681380D01*
X118128571Y-54014714D02*
X118128571Y-54538523D01*
X118080952Y-54633761D01*
X117985714Y-54681380D01*
X117842857Y-54681380D01*
X117747619Y-54633761D01*
X117700000Y-54586142D01*
X117223809Y-54014714D02*
X117223809Y-54681380D01*
X117223809Y-54109952D02*
X117176190Y-54062333D01*
X117080952Y-54014714D01*
X116938095Y-54014714D01*
X116842857Y-54062333D01*
X116795238Y-54157571D01*
X116795238Y-54681380D01*
X105119047Y-53876380D02*
X105119047Y-52876380D01*
X104880952Y-52876380D01*
X104738095Y-52924000D01*
X104642857Y-53019238D01*
X104595238Y-53114476D01*
X104547619Y-53304952D01*
X104547619Y-53447809D01*
X104595238Y-53638285D01*
X104642857Y-53733523D01*
X104738095Y-53828761D01*
X104880952Y-53876380D01*
X105119047Y-53876380D01*
X103738095Y-53828761D02*
X103833333Y-53876380D01*
X104023809Y-53876380D01*
X104119047Y-53828761D01*
X104166666Y-53733523D01*
X104166666Y-53352571D01*
X104119047Y-53257333D01*
X104023809Y-53209714D01*
X103833333Y-53209714D01*
X103738095Y-53257333D01*
X103690476Y-53352571D01*
X103690476Y-53447809D01*
X104166666Y-53543047D01*
X103309523Y-53828761D02*
X103214285Y-53876380D01*
X103023809Y-53876380D01*
X102928571Y-53828761D01*
X102880952Y-53733523D01*
X102880952Y-53685904D01*
X102928571Y-53590666D01*
X103023809Y-53543047D01*
X103166666Y-53543047D01*
X103261904Y-53495428D01*
X103309523Y-53400190D01*
X103309523Y-53352571D01*
X103261904Y-53257333D01*
X103166666Y-53209714D01*
X103023809Y-53209714D01*
X102928571Y-53257333D01*
X102452380Y-53876380D02*
X102452380Y-53209714D01*
X102452380Y-52876380D02*
X102500000Y-52924000D01*
X102452380Y-52971619D01*
X102404761Y-52924000D01*
X102452380Y-52876380D01*
X102452380Y-52971619D01*
X101547619Y-53209714D02*
X101547619Y-54019238D01*
X101595238Y-54114476D01*
X101642857Y-54162095D01*
X101738095Y-54209714D01*
X101880952Y-54209714D01*
X101976190Y-54162095D01*
X101547619Y-53828761D02*
X101642857Y-53876380D01*
X101833333Y-53876380D01*
X101928571Y-53828761D01*
X101976190Y-53781142D01*
X102023809Y-53685904D01*
X102023809Y-53400190D01*
X101976190Y-53304952D01*
X101928571Y-53257333D01*
X101833333Y-53209714D01*
X101642857Y-53209714D01*
X101547619Y-53257333D01*
X101071428Y-53209714D02*
X101071428Y-53876380D01*
X101071428Y-53304952D02*
X101023809Y-53257333D01*
X100928571Y-53209714D01*
X100785714Y-53209714D01*
X100690476Y-53257333D01*
X100642857Y-53352571D01*
X100642857Y-53876380D01*
X99785714Y-53828761D02*
X99880952Y-53876380D01*
X100071428Y-53876380D01*
X100166666Y-53828761D01*
X100214285Y-53733523D01*
X100214285Y-53352571D01*
X100166666Y-53257333D01*
X100071428Y-53209714D01*
X99880952Y-53209714D01*
X99785714Y-53257333D01*
X99738095Y-53352571D01*
X99738095Y-53447809D01*
X100214285Y-53543047D01*
X98880952Y-53876380D02*
X98880952Y-52876380D01*
X98880952Y-53828761D02*
X98976190Y-53876380D01*
X99166666Y-53876380D01*
X99261904Y-53828761D01*
X99309523Y-53781142D01*
X99357142Y-53685904D01*
X99357142Y-53400190D01*
X99309523Y-53304952D01*
X99261904Y-53257333D01*
X99166666Y-53209714D01*
X98976190Y-53209714D01*
X98880952Y-53257333D01*
X97642857Y-53876380D02*
X97642857Y-52876380D01*
X97642857Y-53257333D02*
X97547619Y-53209714D01*
X97357142Y-53209714D01*
X97261904Y-53257333D01*
X97214285Y-53304952D01*
X97166666Y-53400190D01*
X97166666Y-53685904D01*
X97214285Y-53781142D01*
X97261904Y-53828761D01*
X97357142Y-53876380D01*
X97547619Y-53876380D01*
X97642857Y-53828761D01*
X96833333Y-53209714D02*
X96595238Y-53876380D01*
X96357142Y-53209714D02*
X96595238Y-53876380D01*
X96690476Y-54114476D01*
X96738095Y-54162095D01*
X96833333Y-54209714D01*
X95214285Y-53876380D02*
X95214285Y-53209714D01*
X95214285Y-53400190D02*
X95166666Y-53304952D01*
X95119047Y-53257333D01*
X95023809Y-53209714D01*
X94928571Y-53209714D01*
X94452380Y-53876380D02*
X94547619Y-53828761D01*
X94595238Y-53733523D01*
X94595238Y-52876380D01*
X94071428Y-53876380D02*
X94071428Y-52876380D01*
X94071428Y-53257333D02*
X93976190Y-53209714D01*
X93785714Y-53209714D01*
X93690476Y-53257333D01*
X93642857Y-53304952D01*
X93595238Y-53400190D01*
X93595238Y-53685904D01*
X93642857Y-53781142D01*
X93690476Y-53828761D01*
X93785714Y-53876380D01*
X93976190Y-53876380D01*
X94071428Y-53828761D01*
X92738095Y-53876380D02*
X92738095Y-53352571D01*
X92785714Y-53257333D01*
X92880952Y-53209714D01*
X93071428Y-53209714D01*
X93166666Y-53257333D01*
X92738095Y-53828761D02*
X92833333Y-53876380D01*
X93071428Y-53876380D01*
X93166666Y-53828761D01*
X93214285Y-53733523D01*
X93214285Y-53638285D01*
X93166666Y-53543047D01*
X93071428Y-53495428D01*
X92833333Y-53495428D01*
X92738095Y-53447809D01*
X92357142Y-53876380D02*
X91833333Y-53209714D01*
X92357142Y-53209714D02*
X91833333Y-53876380D01*
X91595238Y-53209714D02*
X91214285Y-53209714D01*
X91452380Y-52876380D02*
X91452380Y-53733523D01*
X91404761Y-53828761D01*
X91309523Y-53876380D01*
X91214285Y-53876380D01*
X90500000Y-53828761D02*
X90595238Y-53876380D01*
X90785714Y-53876380D01*
X90880952Y-53828761D01*
X90928571Y-53733523D01*
X90928571Y-53352571D01*
X90880952Y-53257333D01*
X90785714Y-53209714D01*
X90595238Y-53209714D01*
X90500000Y-53257333D01*
X90452380Y-53352571D01*
X90452380Y-53447809D01*
X90928571Y-53543047D01*
X90023809Y-53876380D02*
X90023809Y-53209714D01*
X90023809Y-53400190D02*
X89976190Y-53304952D01*
X89928571Y-53257333D01*
X89833333Y-53209714D01*
X89738095Y-53209714D01*
X106714285Y-55486380D02*
X106714285Y-54486380D01*
X106380952Y-55200666D01*
X106047619Y-54486380D01*
X106047619Y-55486380D01*
X105428571Y-55486380D02*
X105523809Y-55438761D01*
X105571428Y-55391142D01*
X105619047Y-55295904D01*
X105619047Y-55010190D01*
X105571428Y-54914952D01*
X105523809Y-54867333D01*
X105428571Y-54819714D01*
X105285714Y-54819714D01*
X105190476Y-54867333D01*
X105142857Y-54914952D01*
X105095238Y-55010190D01*
X105095238Y-55295904D01*
X105142857Y-55391142D01*
X105190476Y-55438761D01*
X105285714Y-55486380D01*
X105428571Y-55486380D01*
X104238095Y-55486380D02*
X104238095Y-54486380D01*
X104238095Y-55438761D02*
X104333333Y-55486380D01*
X104523809Y-55486380D01*
X104619047Y-55438761D01*
X104666666Y-55391142D01*
X104714285Y-55295904D01*
X104714285Y-55010190D01*
X104666666Y-54914952D01*
X104619047Y-54867333D01*
X104523809Y-54819714D01*
X104333333Y-54819714D01*
X104238095Y-54867333D01*
X103761904Y-55486380D02*
X103761904Y-54819714D01*
X103761904Y-54486380D02*
X103809523Y-54534000D01*
X103761904Y-54581619D01*
X103714285Y-54534000D01*
X103761904Y-54486380D01*
X103761904Y-54581619D01*
X103428571Y-54819714D02*
X103047619Y-54819714D01*
X103285714Y-55486380D02*
X103285714Y-54629238D01*
X103238095Y-54534000D01*
X103142857Y-54486380D01*
X103047619Y-54486380D01*
X102714285Y-55486380D02*
X102714285Y-54819714D01*
X102714285Y-54486380D02*
X102761904Y-54534000D01*
X102714285Y-54581619D01*
X102666666Y-54534000D01*
X102714285Y-54486380D01*
X102714285Y-54581619D01*
X101857142Y-55438761D02*
X101952380Y-55486380D01*
X102142857Y-55486380D01*
X102238095Y-55438761D01*
X102285714Y-55343523D01*
X102285714Y-54962571D01*
X102238095Y-54867333D01*
X102142857Y-54819714D01*
X101952380Y-54819714D01*
X101857142Y-54867333D01*
X101809523Y-54962571D01*
X101809523Y-55057809D01*
X102285714Y-55153047D01*
X100952380Y-55486380D02*
X100952380Y-54486380D01*
X100952380Y-55438761D02*
X101047619Y-55486380D01*
X101238095Y-55486380D01*
X101333333Y-55438761D01*
X101380952Y-55391142D01*
X101428571Y-55295904D01*
X101428571Y-55010190D01*
X101380952Y-54914952D01*
X101333333Y-54867333D01*
X101238095Y-54819714D01*
X101047619Y-54819714D01*
X100952380Y-54867333D01*
X99714285Y-55486380D02*
X99714285Y-54486380D01*
X99714285Y-54867333D02*
X99619047Y-54819714D01*
X99428571Y-54819714D01*
X99333333Y-54867333D01*
X99285714Y-54914952D01*
X99238095Y-55010190D01*
X99238095Y-55295904D01*
X99285714Y-55391142D01*
X99333333Y-55438761D01*
X99428571Y-55486380D01*
X99619047Y-55486380D01*
X99714285Y-55438761D01*
X98904761Y-54819714D02*
X98666666Y-55486380D01*
X98428571Y-54819714D02*
X98666666Y-55486380D01*
X98761904Y-55724476D01*
X98809523Y-55772095D01*
X98904761Y-55819714D01*
X96714285Y-55486380D02*
X97047619Y-55010190D01*
X97285714Y-55486380D02*
X97285714Y-54486380D01*
X96904761Y-54486380D01*
X96809523Y-54534000D01*
X96761904Y-54581619D01*
X96714285Y-54676857D01*
X96714285Y-54819714D01*
X96761904Y-54914952D01*
X96809523Y-54962571D01*
X96904761Y-55010190D01*
X97285714Y-55010190D01*
X96142857Y-55486380D02*
X96238095Y-55438761D01*
X96285714Y-55391142D01*
X96333333Y-55295904D01*
X96333333Y-55010190D01*
X96285714Y-54914952D01*
X96238095Y-54867333D01*
X96142857Y-54819714D01*
X96000000Y-54819714D01*
X95904761Y-54867333D01*
X95857142Y-54914952D01*
X95809523Y-55010190D01*
X95809523Y-55295904D01*
X95857142Y-55391142D01*
X95904761Y-55438761D01*
X96000000Y-55486380D01*
X96142857Y-55486380D01*
X94952380Y-54819714D02*
X94952380Y-55486380D01*
X95380952Y-54819714D02*
X95380952Y-55343523D01*
X95333333Y-55438761D01*
X95238095Y-55486380D01*
X95095238Y-55486380D01*
X95000000Y-55438761D01*
X94952380Y-55391142D01*
X94619047Y-54819714D02*
X94238095Y-54819714D01*
X94476190Y-54486380D02*
X94476190Y-55343523D01*
X94428571Y-55438761D01*
X94333333Y-55486380D01*
X94238095Y-55486380D01*
X93476190Y-55486380D02*
X93476190Y-54962571D01*
X93523809Y-54867333D01*
X93619047Y-54819714D01*
X93809523Y-54819714D01*
X93904761Y-54867333D01*
X93476190Y-55438761D02*
X93571428Y-55486380D01*
X93809523Y-55486380D01*
X93904761Y-55438761D01*
X93952380Y-55343523D01*
X93952380Y-55248285D01*
X93904761Y-55153047D01*
X93809523Y-55105428D01*
X93571428Y-55105428D01*
X93476190Y-55057809D01*
X92238095Y-55486380D02*
X92238095Y-54486380D01*
X91666666Y-55486380D02*
X92095238Y-54914952D01*
X91666666Y-54486380D02*
X92238095Y-55057809D01*
X90857142Y-55438761D02*
X90952380Y-55486380D01*
X91142857Y-55486380D01*
X91238095Y-55438761D01*
X91285714Y-55343523D01*
X91285714Y-54962571D01*
X91238095Y-54867333D01*
X91142857Y-54819714D01*
X90952380Y-54819714D01*
X90857142Y-54867333D01*
X90809523Y-54962571D01*
X90809523Y-55057809D01*
X91285714Y-55153047D01*
X90000000Y-55438761D02*
X90095238Y-55486380D01*
X90285714Y-55486380D01*
X90380952Y-55438761D01*
X90428571Y-55343523D01*
X90428571Y-54962571D01*
X90380952Y-54867333D01*
X90285714Y-54819714D01*
X90095238Y-54819714D01*
X90000000Y-54867333D01*
X89952380Y-54962571D01*
X89952380Y-55057809D01*
X90428571Y-55153047D01*
X89523809Y-55486380D02*
X89523809Y-54486380D01*
X89523809Y-54867333D02*
X89428571Y-54819714D01*
X89238095Y-54819714D01*
X89142857Y-54867333D01*
X89095238Y-54914952D01*
X89047619Y-55010190D01*
X89047619Y-55295904D01*
X89095238Y-55391142D01*
X89142857Y-55438761D01*
X89238095Y-55486380D01*
X89428571Y-55486380D01*
X89523809Y-55438761D01*
X88666666Y-55438761D02*
X88571428Y-55486380D01*
X88380952Y-55486380D01*
X88285714Y-55438761D01*
X88238095Y-55343523D01*
X88238095Y-55295904D01*
X88285714Y-55200666D01*
X88380952Y-55153047D01*
X88523809Y-55153047D01*
X88619047Y-55105428D01*
X88666666Y-55010190D01*
X88666666Y-54962571D01*
X88619047Y-54867333D01*
X88523809Y-54819714D01*
X88380952Y-54819714D01*
X88285714Y-54867333D01*
X33029654Y-25196873D02*
X32229654Y-25196873D01*
X32229654Y-25387350D01*
X32267750Y-25501635D01*
X32343940Y-25577826D01*
X32420130Y-25615921D01*
X32572511Y-25654016D01*
X32686797Y-25654016D01*
X32839178Y-25615921D01*
X32915369Y-25577826D01*
X32991559Y-25501635D01*
X33029654Y-25387350D01*
X33029654Y-25196873D01*
X33029654Y-26415921D02*
X33029654Y-25958778D01*
X33029654Y-26187350D02*
X32229654Y-26187350D01*
X32343940Y-26111159D01*
X32420130Y-26034969D01*
X32458226Y-25958778D01*
X33029654Y-44246873D02*
X32229654Y-44246873D01*
X32229654Y-44437350D01*
X32267750Y-44551635D01*
X32343940Y-44627826D01*
X32420130Y-44665921D01*
X32572511Y-44704016D01*
X32686797Y-44704016D01*
X32839178Y-44665921D01*
X32915369Y-44627826D01*
X32991559Y-44551635D01*
X33029654Y-44437350D01*
X33029654Y-44246873D01*
X32305845Y-45008778D02*
X32267750Y-45046873D01*
X32229654Y-45123064D01*
X32229654Y-45313540D01*
X32267750Y-45389730D01*
X32305845Y-45427826D01*
X32382035Y-45465921D01*
X32458226Y-45465921D01*
X32572511Y-45427826D01*
X33029654Y-44970683D01*
X33029654Y-45465921D01*
X33029654Y-63296873D02*
X32229654Y-63296873D01*
X32229654Y-63487350D01*
X32267750Y-63601635D01*
X32343940Y-63677826D01*
X32420130Y-63715921D01*
X32572511Y-63754016D01*
X32686797Y-63754016D01*
X32839178Y-63715921D01*
X32915369Y-63677826D01*
X32991559Y-63601635D01*
X33029654Y-63487350D01*
X33029654Y-63296873D01*
X32229654Y-64020683D02*
X32229654Y-64515921D01*
X32534416Y-64249254D01*
X32534416Y-64363540D01*
X32572511Y-64439730D01*
X32610607Y-64477826D01*
X32686797Y-64515921D01*
X32877273Y-64515921D01*
X32953464Y-64477826D01*
X32991559Y-64439730D01*
X33029654Y-64363540D01*
X33029654Y-64134969D01*
X32991559Y-64058778D01*
X32953464Y-64020683D01*
X33029654Y-82346873D02*
X32229654Y-82346873D01*
X32229654Y-82537350D01*
X32267750Y-82651635D01*
X32343940Y-82727826D01*
X32420130Y-82765921D01*
X32572511Y-82804016D01*
X32686797Y-82804016D01*
X32839178Y-82765921D01*
X32915369Y-82727826D01*
X32991559Y-82651635D01*
X33029654Y-82537350D01*
X33029654Y-82346873D01*
X32496321Y-83489730D02*
X33029654Y-83489730D01*
X32191559Y-83299254D02*
X32762988Y-83108778D01*
X32762988Y-83604016D01*
X54873654Y-25196873D02*
X54073654Y-25196873D01*
X54073654Y-25387350D01*
X54111750Y-25501635D01*
X54187940Y-25577826D01*
X54264130Y-25615921D01*
X54416511Y-25654016D01*
X54530797Y-25654016D01*
X54683178Y-25615921D01*
X54759369Y-25577826D01*
X54835559Y-25501635D01*
X54873654Y-25387350D01*
X54873654Y-25196873D01*
X54073654Y-26377826D02*
X54073654Y-25996873D01*
X54454607Y-25958778D01*
X54416511Y-25996873D01*
X54378416Y-26073064D01*
X54378416Y-26263540D01*
X54416511Y-26339730D01*
X54454607Y-26377826D01*
X54530797Y-26415921D01*
X54721273Y-26415921D01*
X54797464Y-26377826D01*
X54835559Y-26339730D01*
X54873654Y-26263540D01*
X54873654Y-26073064D01*
X54835559Y-25996873D01*
X54797464Y-25958778D01*
X54873654Y-44246873D02*
X54073654Y-44246873D01*
X54073654Y-44437350D01*
X54111750Y-44551635D01*
X54187940Y-44627826D01*
X54264130Y-44665921D01*
X54416511Y-44704016D01*
X54530797Y-44704016D01*
X54683178Y-44665921D01*
X54759369Y-44627826D01*
X54835559Y-44551635D01*
X54873654Y-44437350D01*
X54873654Y-44246873D01*
X54073654Y-45389730D02*
X54073654Y-45237350D01*
X54111750Y-45161159D01*
X54149845Y-45123064D01*
X54264130Y-45046873D01*
X54416511Y-45008778D01*
X54721273Y-45008778D01*
X54797464Y-45046873D01*
X54835559Y-45084969D01*
X54873654Y-45161159D01*
X54873654Y-45313540D01*
X54835559Y-45389730D01*
X54797464Y-45427826D01*
X54721273Y-45465921D01*
X54530797Y-45465921D01*
X54454607Y-45427826D01*
X54416511Y-45389730D01*
X54378416Y-45313540D01*
X54378416Y-45161159D01*
X54416511Y-45084969D01*
X54454607Y-45046873D01*
X54530797Y-45008778D01*
X54873654Y-63296873D02*
X54073654Y-63296873D01*
X54073654Y-63487350D01*
X54111750Y-63601635D01*
X54187940Y-63677826D01*
X54264130Y-63715921D01*
X54416511Y-63754016D01*
X54530797Y-63754016D01*
X54683178Y-63715921D01*
X54759369Y-63677826D01*
X54835559Y-63601635D01*
X54873654Y-63487350D01*
X54873654Y-63296873D01*
X54073654Y-64020683D02*
X54073654Y-64554016D01*
X54873654Y-64211159D01*
X54873654Y-82346873D02*
X54073654Y-82346873D01*
X54073654Y-82537350D01*
X54111750Y-82651635D01*
X54187940Y-82727826D01*
X54264130Y-82765921D01*
X54416511Y-82804016D01*
X54530797Y-82804016D01*
X54683178Y-82765921D01*
X54759369Y-82727826D01*
X54835559Y-82651635D01*
X54873654Y-82537350D01*
X54873654Y-82346873D01*
X54416511Y-83261159D02*
X54378416Y-83184969D01*
X54340321Y-83146873D01*
X54264130Y-83108778D01*
X54226035Y-83108778D01*
X54149845Y-83146873D01*
X54111750Y-83184969D01*
X54073654Y-83261159D01*
X54073654Y-83413540D01*
X54111750Y-83489730D01*
X54149845Y-83527826D01*
X54226035Y-83565921D01*
X54264130Y-83565921D01*
X54340321Y-83527826D01*
X54378416Y-83489730D01*
X54416511Y-83413540D01*
X54416511Y-83261159D01*
X54454607Y-83184969D01*
X54492702Y-83146873D01*
X54568892Y-83108778D01*
X54721273Y-83108778D01*
X54797464Y-83146873D01*
X54835559Y-83184969D01*
X54873654Y-83261159D01*
X54873654Y-83413540D01*
X54835559Y-83489730D01*
X54797464Y-83527826D01*
X54721273Y-83565921D01*
X54568892Y-83565921D01*
X54492702Y-83527826D01*
X54454607Y-83489730D01*
X54416511Y-83413540D01*
X71129654Y-25196873D02*
X70329654Y-25196873D01*
X70329654Y-25387350D01*
X70367750Y-25501635D01*
X70443940Y-25577826D01*
X70520130Y-25615921D01*
X70672511Y-25654016D01*
X70786797Y-25654016D01*
X70939178Y-25615921D01*
X71015369Y-25577826D01*
X71091559Y-25501635D01*
X71129654Y-25387350D01*
X71129654Y-25196873D01*
X71129654Y-26034969D02*
X71129654Y-26187350D01*
X71091559Y-26263540D01*
X71053464Y-26301635D01*
X70939178Y-26377826D01*
X70786797Y-26415921D01*
X70482035Y-26415921D01*
X70405845Y-26377826D01*
X70367750Y-26339730D01*
X70329654Y-26263540D01*
X70329654Y-26111159D01*
X70367750Y-26034969D01*
X70405845Y-25996873D01*
X70482035Y-25958778D01*
X70672511Y-25958778D01*
X70748702Y-25996873D01*
X70786797Y-26034969D01*
X70824892Y-26111159D01*
X70824892Y-26263540D01*
X70786797Y-26339730D01*
X70748702Y-26377826D01*
X70672511Y-26415921D01*
X71129654Y-43865921D02*
X70329654Y-43865921D01*
X70329654Y-44056397D01*
X70367750Y-44170683D01*
X70443940Y-44246873D01*
X70520130Y-44284969D01*
X70672511Y-44323064D01*
X70786797Y-44323064D01*
X70939178Y-44284969D01*
X71015369Y-44246873D01*
X71091559Y-44170683D01*
X71129654Y-44056397D01*
X71129654Y-43865921D01*
X71129654Y-45084969D02*
X71129654Y-44627826D01*
X71129654Y-44856397D02*
X70329654Y-44856397D01*
X70443940Y-44780207D01*
X70520130Y-44704016D01*
X70558226Y-44627826D01*
X70329654Y-45580207D02*
X70329654Y-45656397D01*
X70367750Y-45732588D01*
X70405845Y-45770683D01*
X70482035Y-45808778D01*
X70634416Y-45846873D01*
X70824892Y-45846873D01*
X70977273Y-45808778D01*
X71053464Y-45770683D01*
X71091559Y-45732588D01*
X71129654Y-45656397D01*
X71129654Y-45580207D01*
X71091559Y-45504016D01*
X71053464Y-45465921D01*
X70977273Y-45427826D01*
X70824892Y-45389730D01*
X70634416Y-45389730D01*
X70482035Y-45427826D01*
X70405845Y-45465921D01*
X70367750Y-45504016D01*
X70329654Y-45580207D01*
X71129654Y-62915921D02*
X70329654Y-62915921D01*
X70329654Y-63106397D01*
X70367750Y-63220683D01*
X70443940Y-63296873D01*
X70520130Y-63334969D01*
X70672511Y-63373064D01*
X70786797Y-63373064D01*
X70939178Y-63334969D01*
X71015369Y-63296873D01*
X71091559Y-63220683D01*
X71129654Y-63106397D01*
X71129654Y-62915921D01*
X71129654Y-64134969D02*
X71129654Y-63677826D01*
X71129654Y-63906397D02*
X70329654Y-63906397D01*
X70443940Y-63830207D01*
X70520130Y-63754016D01*
X70558226Y-63677826D01*
X71129654Y-64896873D02*
X71129654Y-64439730D01*
X71129654Y-64668302D02*
X70329654Y-64668302D01*
X70443940Y-64592111D01*
X70520130Y-64515921D01*
X70558226Y-64439730D01*
X71129654Y-81965921D02*
X70329654Y-81965921D01*
X70329654Y-82156397D01*
X70367750Y-82270683D01*
X70443940Y-82346873D01*
X70520130Y-82384969D01*
X70672511Y-82423064D01*
X70786797Y-82423064D01*
X70939178Y-82384969D01*
X71015369Y-82346873D01*
X71091559Y-82270683D01*
X71129654Y-82156397D01*
X71129654Y-81965921D01*
X71129654Y-83184969D02*
X71129654Y-82727826D01*
X71129654Y-82956397D02*
X70329654Y-82956397D01*
X70443940Y-82880207D01*
X70520130Y-82804016D01*
X70558226Y-82727826D01*
X70405845Y-83489730D02*
X70367750Y-83527826D01*
X70329654Y-83604016D01*
X70329654Y-83794492D01*
X70367750Y-83870683D01*
X70405845Y-83908778D01*
X70482035Y-83946873D01*
X70558226Y-83946873D01*
X70672511Y-83908778D01*
X71129654Y-83451635D01*
X71129654Y-83946873D01*
X90179654Y-24815921D02*
X89379654Y-24815921D01*
X89379654Y-25006397D01*
X89417750Y-25120683D01*
X89493940Y-25196873D01*
X89570130Y-25234969D01*
X89722511Y-25273064D01*
X89836797Y-25273064D01*
X89989178Y-25234969D01*
X90065369Y-25196873D01*
X90141559Y-25120683D01*
X90179654Y-25006397D01*
X90179654Y-24815921D01*
X90179654Y-26034969D02*
X90179654Y-25577826D01*
X90179654Y-25806397D02*
X89379654Y-25806397D01*
X89493940Y-25730207D01*
X89570130Y-25654016D01*
X89608226Y-25577826D01*
X89379654Y-26301635D02*
X89379654Y-26796873D01*
X89684416Y-26530207D01*
X89684416Y-26644492D01*
X89722511Y-26720683D01*
X89760607Y-26758778D01*
X89836797Y-26796873D01*
X90027273Y-26796873D01*
X90103464Y-26758778D01*
X90141559Y-26720683D01*
X90179654Y-26644492D01*
X90179654Y-26415921D01*
X90141559Y-26339730D01*
X90103464Y-26301635D01*
X90179654Y-43865921D02*
X89379654Y-43865921D01*
X89379654Y-44056397D01*
X89417750Y-44170683D01*
X89493940Y-44246873D01*
X89570130Y-44284969D01*
X89722511Y-44323064D01*
X89836797Y-44323064D01*
X89989178Y-44284969D01*
X90065369Y-44246873D01*
X90141559Y-44170683D01*
X90179654Y-44056397D01*
X90179654Y-43865921D01*
X90179654Y-45084969D02*
X90179654Y-44627826D01*
X90179654Y-44856397D02*
X89379654Y-44856397D01*
X89493940Y-44780207D01*
X89570130Y-44704016D01*
X89608226Y-44627826D01*
X89646321Y-45770683D02*
X90179654Y-45770683D01*
X89341559Y-45580207D02*
X89912988Y-45389730D01*
X89912988Y-45884969D01*
X90179654Y-62915921D02*
X89379654Y-62915921D01*
X89379654Y-63106397D01*
X89417750Y-63220683D01*
X89493940Y-63296873D01*
X89570130Y-63334969D01*
X89722511Y-63373064D01*
X89836797Y-63373064D01*
X89989178Y-63334969D01*
X90065369Y-63296873D01*
X90141559Y-63220683D01*
X90179654Y-63106397D01*
X90179654Y-62915921D01*
X90179654Y-64134969D02*
X90179654Y-63677826D01*
X90179654Y-63906397D02*
X89379654Y-63906397D01*
X89493940Y-63830207D01*
X89570130Y-63754016D01*
X89608226Y-63677826D01*
X89379654Y-64858778D02*
X89379654Y-64477826D01*
X89760607Y-64439730D01*
X89722511Y-64477826D01*
X89684416Y-64554016D01*
X89684416Y-64744492D01*
X89722511Y-64820683D01*
X89760607Y-64858778D01*
X89836797Y-64896873D01*
X90027273Y-64896873D01*
X90103464Y-64858778D01*
X90141559Y-64820683D01*
X90179654Y-64744492D01*
X90179654Y-64554016D01*
X90141559Y-64477826D01*
X90103464Y-64439730D01*
X73961904Y-81965921D02*
X73161904Y-81965921D01*
X73161904Y-82156397D01*
X73200000Y-82270683D01*
X73276190Y-82346873D01*
X73352380Y-82384969D01*
X73504761Y-82423064D01*
X73619047Y-82423064D01*
X73771428Y-82384969D01*
X73847619Y-82346873D01*
X73923809Y-82270683D01*
X73961904Y-82156397D01*
X73961904Y-81965921D01*
X73961904Y-83184969D02*
X73961904Y-82727826D01*
X73961904Y-82956397D02*
X73161904Y-82956397D01*
X73276190Y-82880207D01*
X73352380Y-82804016D01*
X73390476Y-82727826D01*
X73161904Y-83870683D02*
X73161904Y-83718302D01*
X73200000Y-83642111D01*
X73238095Y-83604016D01*
X73352380Y-83527826D01*
X73504761Y-83489730D01*
X73809523Y-83489730D01*
X73885714Y-83527826D01*
X73923809Y-83565921D01*
X73961904Y-83642111D01*
X73961904Y-83794492D01*
X73923809Y-83870683D01*
X73885714Y-83908778D01*
X73809523Y-83946873D01*
X73619047Y-83946873D01*
X73542857Y-83908778D01*
X73504761Y-83870683D01*
X73466666Y-83794492D01*
X73466666Y-83642111D01*
X73504761Y-83565921D01*
X73542857Y-83527826D01*
X73619047Y-83489730D01*
X109229654Y-24815921D02*
X108429654Y-24815921D01*
X108429654Y-25006397D01*
X108467750Y-25120683D01*
X108543940Y-25196873D01*
X108620130Y-25234969D01*
X108772511Y-25273064D01*
X108886797Y-25273064D01*
X109039178Y-25234969D01*
X109115369Y-25196873D01*
X109191559Y-25120683D01*
X109229654Y-25006397D01*
X109229654Y-24815921D01*
X109229654Y-26034969D02*
X109229654Y-25577826D01*
X109229654Y-25806397D02*
X108429654Y-25806397D01*
X108543940Y-25730207D01*
X108620130Y-25654016D01*
X108658226Y-25577826D01*
X108429654Y-26301635D02*
X108429654Y-26834969D01*
X109229654Y-26492111D01*
X109229654Y-43865921D02*
X108429654Y-43865921D01*
X108429654Y-44056397D01*
X108467750Y-44170683D01*
X108543940Y-44246873D01*
X108620130Y-44284969D01*
X108772511Y-44323064D01*
X108886797Y-44323064D01*
X109039178Y-44284969D01*
X109115369Y-44246873D01*
X109191559Y-44170683D01*
X109229654Y-44056397D01*
X109229654Y-43865921D01*
X109229654Y-45084969D02*
X109229654Y-44627826D01*
X109229654Y-44856397D02*
X108429654Y-44856397D01*
X108543940Y-44780207D01*
X108620130Y-44704016D01*
X108658226Y-44627826D01*
X108772511Y-45542111D02*
X108734416Y-45465921D01*
X108696321Y-45427826D01*
X108620130Y-45389730D01*
X108582035Y-45389730D01*
X108505845Y-45427826D01*
X108467750Y-45465921D01*
X108429654Y-45542111D01*
X108429654Y-45694492D01*
X108467750Y-45770683D01*
X108505845Y-45808778D01*
X108582035Y-45846873D01*
X108620130Y-45846873D01*
X108696321Y-45808778D01*
X108734416Y-45770683D01*
X108772511Y-45694492D01*
X108772511Y-45542111D01*
X108810607Y-45465921D01*
X108848702Y-45427826D01*
X108924892Y-45389730D01*
X109077273Y-45389730D01*
X109153464Y-45427826D01*
X109191559Y-45465921D01*
X109229654Y-45542111D01*
X109229654Y-45694492D01*
X109191559Y-45770683D01*
X109153464Y-45808778D01*
X109077273Y-45846873D01*
X108924892Y-45846873D01*
X108848702Y-45808778D01*
X108810607Y-45770683D01*
X108772511Y-45694492D01*
X109229654Y-62915921D02*
X108429654Y-62915921D01*
X108429654Y-63106397D01*
X108467750Y-63220683D01*
X108543940Y-63296873D01*
X108620130Y-63334969D01*
X108772511Y-63373064D01*
X108886797Y-63373064D01*
X109039178Y-63334969D01*
X109115369Y-63296873D01*
X109191559Y-63220683D01*
X109229654Y-63106397D01*
X109229654Y-62915921D01*
X109229654Y-64134969D02*
X109229654Y-63677826D01*
X109229654Y-63906397D02*
X108429654Y-63906397D01*
X108543940Y-63830207D01*
X108620130Y-63754016D01*
X108658226Y-63677826D01*
X109229654Y-64515921D02*
X109229654Y-64668302D01*
X109191559Y-64744492D01*
X109153464Y-64782588D01*
X109039178Y-64858778D01*
X108886797Y-64896873D01*
X108582035Y-64896873D01*
X108505845Y-64858778D01*
X108467750Y-64820683D01*
X108429654Y-64744492D01*
X108429654Y-64592111D01*
X108467750Y-64515921D01*
X108505845Y-64477826D01*
X108582035Y-64439730D01*
X108772511Y-64439730D01*
X108848702Y-64477826D01*
X108886797Y-64515921D01*
X108924892Y-64592111D01*
X108924892Y-64744492D01*
X108886797Y-64820683D01*
X108848702Y-64858778D01*
X108772511Y-64896873D01*
X109229654Y-81965921D02*
X108429654Y-81965921D01*
X108429654Y-82156397D01*
X108467750Y-82270683D01*
X108543940Y-82346873D01*
X108620130Y-82384969D01*
X108772511Y-82423064D01*
X108886797Y-82423064D01*
X109039178Y-82384969D01*
X109115369Y-82346873D01*
X109191559Y-82270683D01*
X109229654Y-82156397D01*
X109229654Y-81965921D01*
X108505845Y-82727826D02*
X108467750Y-82765921D01*
X108429654Y-82842111D01*
X108429654Y-83032588D01*
X108467750Y-83108778D01*
X108505845Y-83146873D01*
X108582035Y-83184969D01*
X108658226Y-83184969D01*
X108772511Y-83146873D01*
X109229654Y-82689730D01*
X109229654Y-83184969D01*
X108429654Y-83680207D02*
X108429654Y-83756397D01*
X108467750Y-83832588D01*
X108505845Y-83870683D01*
X108582035Y-83908778D01*
X108734416Y-83946873D01*
X108924892Y-83946873D01*
X109077273Y-83908778D01*
X109153464Y-83870683D01*
X109191559Y-83832588D01*
X109229654Y-83756397D01*
X109229654Y-83680207D01*
X109191559Y-83604016D01*
X109153464Y-83565921D01*
X109077273Y-83527826D01*
X108924892Y-83489730D01*
X108734416Y-83489730D01*
X108582035Y-83527826D01*
X108505845Y-83565921D01*
X108467750Y-83604016D01*
X108429654Y-83680207D01*
X128279654Y-24815921D02*
X127479654Y-24815921D01*
X127479654Y-25006397D01*
X127517750Y-25120683D01*
X127593940Y-25196873D01*
X127670130Y-25234969D01*
X127822511Y-25273064D01*
X127936797Y-25273064D01*
X128089178Y-25234969D01*
X128165369Y-25196873D01*
X128241559Y-25120683D01*
X128279654Y-25006397D01*
X128279654Y-24815921D01*
X127555845Y-25577826D02*
X127517750Y-25615921D01*
X127479654Y-25692111D01*
X127479654Y-25882588D01*
X127517750Y-25958778D01*
X127555845Y-25996873D01*
X127632035Y-26034969D01*
X127708226Y-26034969D01*
X127822511Y-25996873D01*
X128279654Y-25539730D01*
X128279654Y-26034969D01*
X128279654Y-26796873D02*
X128279654Y-26339730D01*
X128279654Y-26568302D02*
X127479654Y-26568302D01*
X127593940Y-26492111D01*
X127670130Y-26415921D01*
X127708226Y-26339730D01*
X128279654Y-43865921D02*
X127479654Y-43865921D01*
X127479654Y-44056397D01*
X127517750Y-44170683D01*
X127593940Y-44246873D01*
X127670130Y-44284969D01*
X127822511Y-44323064D01*
X127936797Y-44323064D01*
X128089178Y-44284969D01*
X128165369Y-44246873D01*
X128241559Y-44170683D01*
X128279654Y-44056397D01*
X128279654Y-43865921D01*
X127555845Y-44627826D02*
X127517750Y-44665921D01*
X127479654Y-44742111D01*
X127479654Y-44932588D01*
X127517750Y-45008778D01*
X127555845Y-45046873D01*
X127632035Y-45084969D01*
X127708226Y-45084969D01*
X127822511Y-45046873D01*
X128279654Y-44589730D01*
X128279654Y-45084969D01*
X127555845Y-45389730D02*
X127517750Y-45427826D01*
X127479654Y-45504016D01*
X127479654Y-45694492D01*
X127517750Y-45770683D01*
X127555845Y-45808778D01*
X127632035Y-45846873D01*
X127708226Y-45846873D01*
X127822511Y-45808778D01*
X128279654Y-45351635D01*
X128279654Y-45846873D01*
X128279654Y-62915921D02*
X127479654Y-62915921D01*
X127479654Y-63106397D01*
X127517750Y-63220683D01*
X127593940Y-63296873D01*
X127670130Y-63334969D01*
X127822511Y-63373064D01*
X127936797Y-63373064D01*
X128089178Y-63334969D01*
X128165369Y-63296873D01*
X128241559Y-63220683D01*
X128279654Y-63106397D01*
X128279654Y-62915921D01*
X127555845Y-63677826D02*
X127517750Y-63715921D01*
X127479654Y-63792111D01*
X127479654Y-63982588D01*
X127517750Y-64058778D01*
X127555845Y-64096873D01*
X127632035Y-64134969D01*
X127708226Y-64134969D01*
X127822511Y-64096873D01*
X128279654Y-63639730D01*
X128279654Y-64134969D01*
X127479654Y-64401635D02*
X127479654Y-64896873D01*
X127784416Y-64630207D01*
X127784416Y-64744492D01*
X127822511Y-64820683D01*
X127860607Y-64858778D01*
X127936797Y-64896873D01*
X128127273Y-64896873D01*
X128203464Y-64858778D01*
X128241559Y-64820683D01*
X128279654Y-64744492D01*
X128279654Y-64515921D01*
X128241559Y-64439730D01*
X128203464Y-64401635D01*
X112061904Y-81965921D02*
X111261904Y-81965921D01*
X111261904Y-82156397D01*
X111300000Y-82270683D01*
X111376190Y-82346873D01*
X111452380Y-82384969D01*
X111604761Y-82423064D01*
X111719047Y-82423064D01*
X111871428Y-82384969D01*
X111947619Y-82346873D01*
X112023809Y-82270683D01*
X112061904Y-82156397D01*
X112061904Y-81965921D01*
X111338095Y-82727826D02*
X111300000Y-82765921D01*
X111261904Y-82842111D01*
X111261904Y-83032588D01*
X111300000Y-83108778D01*
X111338095Y-83146873D01*
X111414285Y-83184969D01*
X111490476Y-83184969D01*
X111604761Y-83146873D01*
X112061904Y-82689730D01*
X112061904Y-83184969D01*
X111528571Y-83870683D02*
X112061904Y-83870683D01*
X111223809Y-83680207D02*
X111795238Y-83489730D01*
X111795238Y-83984969D01*
X147329654Y-24815921D02*
X146529654Y-24815921D01*
X146529654Y-25006397D01*
X146567750Y-25120683D01*
X146643940Y-25196873D01*
X146720130Y-25234969D01*
X146872511Y-25273064D01*
X146986797Y-25273064D01*
X147139178Y-25234969D01*
X147215369Y-25196873D01*
X147291559Y-25120683D01*
X147329654Y-25006397D01*
X147329654Y-24815921D01*
X146605845Y-25577826D02*
X146567750Y-25615921D01*
X146529654Y-25692111D01*
X146529654Y-25882588D01*
X146567750Y-25958778D01*
X146605845Y-25996873D01*
X146682035Y-26034969D01*
X146758226Y-26034969D01*
X146872511Y-25996873D01*
X147329654Y-25539730D01*
X147329654Y-26034969D01*
X146529654Y-26758778D02*
X146529654Y-26377826D01*
X146910607Y-26339730D01*
X146872511Y-26377826D01*
X146834416Y-26454016D01*
X146834416Y-26644492D01*
X146872511Y-26720683D01*
X146910607Y-26758778D01*
X146986797Y-26796873D01*
X147177273Y-26796873D01*
X147253464Y-26758778D01*
X147291559Y-26720683D01*
X147329654Y-26644492D01*
X147329654Y-26454016D01*
X147291559Y-26377826D01*
X147253464Y-26339730D01*
X147329654Y-43865921D02*
X146529654Y-43865921D01*
X146529654Y-44056397D01*
X146567750Y-44170683D01*
X146643940Y-44246873D01*
X146720130Y-44284969D01*
X146872511Y-44323064D01*
X146986797Y-44323064D01*
X147139178Y-44284969D01*
X147215369Y-44246873D01*
X147291559Y-44170683D01*
X147329654Y-44056397D01*
X147329654Y-43865921D01*
X146605845Y-44627826D02*
X146567750Y-44665921D01*
X146529654Y-44742111D01*
X146529654Y-44932588D01*
X146567750Y-45008778D01*
X146605845Y-45046873D01*
X146682035Y-45084969D01*
X146758226Y-45084969D01*
X146872511Y-45046873D01*
X147329654Y-44589730D01*
X147329654Y-45084969D01*
X146529654Y-45770683D02*
X146529654Y-45618302D01*
X146567750Y-45542111D01*
X146605845Y-45504016D01*
X146720130Y-45427826D01*
X146872511Y-45389730D01*
X147177273Y-45389730D01*
X147253464Y-45427826D01*
X147291559Y-45465921D01*
X147329654Y-45542111D01*
X147329654Y-45694492D01*
X147291559Y-45770683D01*
X147253464Y-45808778D01*
X147177273Y-45846873D01*
X146986797Y-45846873D01*
X146910607Y-45808778D01*
X146872511Y-45770683D01*
X146834416Y-45694492D01*
X146834416Y-45542111D01*
X146872511Y-45465921D01*
X146910607Y-45427826D01*
X146986797Y-45389730D01*
X147329654Y-62915921D02*
X146529654Y-62915921D01*
X146529654Y-63106397D01*
X146567750Y-63220683D01*
X146643940Y-63296873D01*
X146720130Y-63334969D01*
X146872511Y-63373064D01*
X146986797Y-63373064D01*
X147139178Y-63334969D01*
X147215369Y-63296873D01*
X147291559Y-63220683D01*
X147329654Y-63106397D01*
X147329654Y-62915921D01*
X146605845Y-63677826D02*
X146567750Y-63715921D01*
X146529654Y-63792111D01*
X146529654Y-63982588D01*
X146567750Y-64058778D01*
X146605845Y-64096873D01*
X146682035Y-64134969D01*
X146758226Y-64134969D01*
X146872511Y-64096873D01*
X147329654Y-63639730D01*
X147329654Y-64134969D01*
X146529654Y-64401635D02*
X146529654Y-64934969D01*
X147329654Y-64592111D01*
X147329654Y-81965921D02*
X146529654Y-81965921D01*
X146529654Y-82156397D01*
X146567750Y-82270683D01*
X146643940Y-82346873D01*
X146720130Y-82384969D01*
X146872511Y-82423064D01*
X146986797Y-82423064D01*
X147139178Y-82384969D01*
X147215369Y-82346873D01*
X147291559Y-82270683D01*
X147329654Y-82156397D01*
X147329654Y-81965921D01*
X146605845Y-82727826D02*
X146567750Y-82765921D01*
X146529654Y-82842111D01*
X146529654Y-83032588D01*
X146567750Y-83108778D01*
X146605845Y-83146873D01*
X146682035Y-83184969D01*
X146758226Y-83184969D01*
X146872511Y-83146873D01*
X147329654Y-82689730D01*
X147329654Y-83184969D01*
X146872511Y-83642111D02*
X146834416Y-83565921D01*
X146796321Y-83527826D01*
X146720130Y-83489730D01*
X146682035Y-83489730D01*
X146605845Y-83527826D01*
X146567750Y-83565921D01*
X146529654Y-83642111D01*
X146529654Y-83794492D01*
X146567750Y-83870683D01*
X146605845Y-83908778D01*
X146682035Y-83946873D01*
X146720130Y-83946873D01*
X146796321Y-83908778D01*
X146834416Y-83870683D01*
X146872511Y-83794492D01*
X146872511Y-83642111D01*
X146910607Y-83565921D01*
X146948702Y-83527826D01*
X147024892Y-83489730D01*
X147177273Y-83489730D01*
X147253464Y-83527826D01*
X147291559Y-83565921D01*
X147329654Y-83642111D01*
X147329654Y-83794492D01*
X147291559Y-83870683D01*
X147253464Y-83908778D01*
X147177273Y-83946873D01*
X147024892Y-83946873D01*
X146948702Y-83908778D01*
X146910607Y-83870683D01*
X146872511Y-83794492D01*
X166379654Y-24815921D02*
X165579654Y-24815921D01*
X165579654Y-25006397D01*
X165617750Y-25120683D01*
X165693940Y-25196873D01*
X165770130Y-25234969D01*
X165922511Y-25273064D01*
X166036797Y-25273064D01*
X166189178Y-25234969D01*
X166265369Y-25196873D01*
X166341559Y-25120683D01*
X166379654Y-25006397D01*
X166379654Y-24815921D01*
X165655845Y-25577826D02*
X165617750Y-25615921D01*
X165579654Y-25692111D01*
X165579654Y-25882588D01*
X165617750Y-25958778D01*
X165655845Y-25996873D01*
X165732035Y-26034969D01*
X165808226Y-26034969D01*
X165922511Y-25996873D01*
X166379654Y-25539730D01*
X166379654Y-26034969D01*
X166379654Y-26415921D02*
X166379654Y-26568302D01*
X166341559Y-26644492D01*
X166303464Y-26682588D01*
X166189178Y-26758778D01*
X166036797Y-26796873D01*
X165732035Y-26796873D01*
X165655845Y-26758778D01*
X165617750Y-26720683D01*
X165579654Y-26644492D01*
X165579654Y-26492111D01*
X165617750Y-26415921D01*
X165655845Y-26377826D01*
X165732035Y-26339730D01*
X165922511Y-26339730D01*
X165998702Y-26377826D01*
X166036797Y-26415921D01*
X166074892Y-26492111D01*
X166074892Y-26644492D01*
X166036797Y-26720683D01*
X165998702Y-26758778D01*
X165922511Y-26796873D01*
X166379654Y-43865921D02*
X165579654Y-43865921D01*
X165579654Y-44056397D01*
X165617750Y-44170683D01*
X165693940Y-44246873D01*
X165770130Y-44284969D01*
X165922511Y-44323064D01*
X166036797Y-44323064D01*
X166189178Y-44284969D01*
X166265369Y-44246873D01*
X166341559Y-44170683D01*
X166379654Y-44056397D01*
X166379654Y-43865921D01*
X165579654Y-44589730D02*
X165579654Y-45084969D01*
X165884416Y-44818302D01*
X165884416Y-44932588D01*
X165922511Y-45008778D01*
X165960607Y-45046873D01*
X166036797Y-45084969D01*
X166227273Y-45084969D01*
X166303464Y-45046873D01*
X166341559Y-45008778D01*
X166379654Y-44932588D01*
X166379654Y-44704016D01*
X166341559Y-44627826D01*
X166303464Y-44589730D01*
X165579654Y-45580207D02*
X165579654Y-45656397D01*
X165617750Y-45732588D01*
X165655845Y-45770683D01*
X165732035Y-45808778D01*
X165884416Y-45846873D01*
X166074892Y-45846873D01*
X166227273Y-45808778D01*
X166303464Y-45770683D01*
X166341559Y-45732588D01*
X166379654Y-45656397D01*
X166379654Y-45580207D01*
X166341559Y-45504016D01*
X166303464Y-45465921D01*
X166227273Y-45427826D01*
X166074892Y-45389730D01*
X165884416Y-45389730D01*
X165732035Y-45427826D01*
X165655845Y-45465921D01*
X165617750Y-45504016D01*
X165579654Y-45580207D01*
X166379654Y-62915921D02*
X165579654Y-62915921D01*
X165579654Y-63106397D01*
X165617750Y-63220683D01*
X165693940Y-63296873D01*
X165770130Y-63334969D01*
X165922511Y-63373064D01*
X166036797Y-63373064D01*
X166189178Y-63334969D01*
X166265369Y-63296873D01*
X166341559Y-63220683D01*
X166379654Y-63106397D01*
X166379654Y-62915921D01*
X165579654Y-63639730D02*
X165579654Y-64134969D01*
X165884416Y-63868302D01*
X165884416Y-63982588D01*
X165922511Y-64058778D01*
X165960607Y-64096873D01*
X166036797Y-64134969D01*
X166227273Y-64134969D01*
X166303464Y-64096873D01*
X166341559Y-64058778D01*
X166379654Y-63982588D01*
X166379654Y-63754016D01*
X166341559Y-63677826D01*
X166303464Y-63639730D01*
X166379654Y-64896873D02*
X166379654Y-64439730D01*
X166379654Y-64668302D02*
X165579654Y-64668302D01*
X165693940Y-64592111D01*
X165770130Y-64515921D01*
X165808226Y-64439730D01*
X166379654Y-81965921D02*
X165579654Y-81965921D01*
X165579654Y-82156397D01*
X165617750Y-82270683D01*
X165693940Y-82346873D01*
X165770130Y-82384969D01*
X165922511Y-82423064D01*
X166036797Y-82423064D01*
X166189178Y-82384969D01*
X166265369Y-82346873D01*
X166341559Y-82270683D01*
X166379654Y-82156397D01*
X166379654Y-81965921D01*
X165579654Y-82689730D02*
X165579654Y-83184969D01*
X165884416Y-82918302D01*
X165884416Y-83032588D01*
X165922511Y-83108778D01*
X165960607Y-83146873D01*
X166036797Y-83184969D01*
X166227273Y-83184969D01*
X166303464Y-83146873D01*
X166341559Y-83108778D01*
X166379654Y-83032588D01*
X166379654Y-82804016D01*
X166341559Y-82727826D01*
X166303464Y-82689730D01*
X165655845Y-83489730D02*
X165617750Y-83527826D01*
X165579654Y-83604016D01*
X165579654Y-83794492D01*
X165617750Y-83870683D01*
X165655845Y-83908778D01*
X165732035Y-83946873D01*
X165808226Y-83946873D01*
X165922511Y-83908778D01*
X166379654Y-83451635D01*
X166379654Y-83946873D01*
X185429654Y-24815921D02*
X184629654Y-24815921D01*
X184629654Y-25006397D01*
X184667750Y-25120683D01*
X184743940Y-25196873D01*
X184820130Y-25234969D01*
X184972511Y-25273064D01*
X185086797Y-25273064D01*
X185239178Y-25234969D01*
X185315369Y-25196873D01*
X185391559Y-25120683D01*
X185429654Y-25006397D01*
X185429654Y-24815921D01*
X184629654Y-25539730D02*
X184629654Y-26034969D01*
X184934416Y-25768302D01*
X184934416Y-25882588D01*
X184972511Y-25958778D01*
X185010607Y-25996873D01*
X185086797Y-26034969D01*
X185277273Y-26034969D01*
X185353464Y-25996873D01*
X185391559Y-25958778D01*
X185429654Y-25882588D01*
X185429654Y-25654016D01*
X185391559Y-25577826D01*
X185353464Y-25539730D01*
X184629654Y-26301635D02*
X184629654Y-26796873D01*
X184934416Y-26530207D01*
X184934416Y-26644492D01*
X184972511Y-26720683D01*
X185010607Y-26758778D01*
X185086797Y-26796873D01*
X185277273Y-26796873D01*
X185353464Y-26758778D01*
X185391559Y-26720683D01*
X185429654Y-26644492D01*
X185429654Y-26415921D01*
X185391559Y-26339730D01*
X185353464Y-26301635D01*
X185429654Y-43865921D02*
X184629654Y-43865921D01*
X184629654Y-44056397D01*
X184667750Y-44170683D01*
X184743940Y-44246873D01*
X184820130Y-44284969D01*
X184972511Y-44323064D01*
X185086797Y-44323064D01*
X185239178Y-44284969D01*
X185315369Y-44246873D01*
X185391559Y-44170683D01*
X185429654Y-44056397D01*
X185429654Y-43865921D01*
X184629654Y-44589730D02*
X184629654Y-45084969D01*
X184934416Y-44818302D01*
X184934416Y-44932588D01*
X184972511Y-45008778D01*
X185010607Y-45046873D01*
X185086797Y-45084969D01*
X185277273Y-45084969D01*
X185353464Y-45046873D01*
X185391559Y-45008778D01*
X185429654Y-44932588D01*
X185429654Y-44704016D01*
X185391559Y-44627826D01*
X185353464Y-44589730D01*
X184896321Y-45770683D02*
X185429654Y-45770683D01*
X184591559Y-45580207D02*
X185162988Y-45389730D01*
X185162988Y-45884969D01*
X185429654Y-62915921D02*
X184629654Y-62915921D01*
X184629654Y-63106397D01*
X184667750Y-63220683D01*
X184743940Y-63296873D01*
X184820130Y-63334969D01*
X184972511Y-63373064D01*
X185086797Y-63373064D01*
X185239178Y-63334969D01*
X185315369Y-63296873D01*
X185391559Y-63220683D01*
X185429654Y-63106397D01*
X185429654Y-62915921D01*
X184629654Y-63639730D02*
X184629654Y-64134969D01*
X184934416Y-63868302D01*
X184934416Y-63982588D01*
X184972511Y-64058778D01*
X185010607Y-64096873D01*
X185086797Y-64134969D01*
X185277273Y-64134969D01*
X185353464Y-64096873D01*
X185391559Y-64058778D01*
X185429654Y-63982588D01*
X185429654Y-63754016D01*
X185391559Y-63677826D01*
X185353464Y-63639730D01*
X184629654Y-64858778D02*
X184629654Y-64477826D01*
X185010607Y-64439730D01*
X184972511Y-64477826D01*
X184934416Y-64554016D01*
X184934416Y-64744492D01*
X184972511Y-64820683D01*
X185010607Y-64858778D01*
X185086797Y-64896873D01*
X185277273Y-64896873D01*
X185353464Y-64858778D01*
X185391559Y-64820683D01*
X185429654Y-64744492D01*
X185429654Y-64554016D01*
X185391559Y-64477826D01*
X185353464Y-64439730D01*
X185429654Y-81965921D02*
X184629654Y-81965921D01*
X184629654Y-82156397D01*
X184667750Y-82270683D01*
X184743940Y-82346873D01*
X184820130Y-82384969D01*
X184972511Y-82423064D01*
X185086797Y-82423064D01*
X185239178Y-82384969D01*
X185315369Y-82346873D01*
X185391559Y-82270683D01*
X185429654Y-82156397D01*
X185429654Y-81965921D01*
X184629654Y-82689730D02*
X184629654Y-83184969D01*
X184934416Y-82918302D01*
X184934416Y-83032588D01*
X184972511Y-83108778D01*
X185010607Y-83146873D01*
X185086797Y-83184969D01*
X185277273Y-83184969D01*
X185353464Y-83146873D01*
X185391559Y-83108778D01*
X185429654Y-83032588D01*
X185429654Y-82804016D01*
X185391559Y-82727826D01*
X185353464Y-82689730D01*
X184629654Y-83870683D02*
X184629654Y-83718302D01*
X184667750Y-83642111D01*
X184705845Y-83604016D01*
X184820130Y-83527826D01*
X184972511Y-83489730D01*
X185277273Y-83489730D01*
X185353464Y-83527826D01*
X185391559Y-83565921D01*
X185429654Y-83642111D01*
X185429654Y-83794492D01*
X185391559Y-83870683D01*
X185353464Y-83908778D01*
X185277273Y-83946873D01*
X185086797Y-83946873D01*
X185010607Y-83908778D01*
X184972511Y-83870683D01*
X184934416Y-83794492D01*
X184934416Y-83642111D01*
X184972511Y-83565921D01*
X185010607Y-83527826D01*
X185086797Y-83489730D01*
X188223654Y-24815921D02*
X187423654Y-24815921D01*
X187423654Y-25006397D01*
X187461750Y-25120683D01*
X187537940Y-25196873D01*
X187614130Y-25234969D01*
X187766511Y-25273064D01*
X187880797Y-25273064D01*
X188033178Y-25234969D01*
X188109369Y-25196873D01*
X188185559Y-25120683D01*
X188223654Y-25006397D01*
X188223654Y-24815921D01*
X187423654Y-25539730D02*
X187423654Y-26034969D01*
X187728416Y-25768302D01*
X187728416Y-25882588D01*
X187766511Y-25958778D01*
X187804607Y-25996873D01*
X187880797Y-26034969D01*
X188071273Y-26034969D01*
X188147464Y-25996873D01*
X188185559Y-25958778D01*
X188223654Y-25882588D01*
X188223654Y-25654016D01*
X188185559Y-25577826D01*
X188147464Y-25539730D01*
X187423654Y-26301635D02*
X187423654Y-26834969D01*
X188223654Y-26492111D01*
X188223654Y-43865921D02*
X187423654Y-43865921D01*
X187423654Y-44056397D01*
X187461750Y-44170683D01*
X187537940Y-44246873D01*
X187614130Y-44284969D01*
X187766511Y-44323064D01*
X187880797Y-44323064D01*
X188033178Y-44284969D01*
X188109369Y-44246873D01*
X188185559Y-44170683D01*
X188223654Y-44056397D01*
X188223654Y-43865921D01*
X187423654Y-44589730D02*
X187423654Y-45084969D01*
X187728416Y-44818302D01*
X187728416Y-44932588D01*
X187766511Y-45008778D01*
X187804607Y-45046873D01*
X187880797Y-45084969D01*
X188071273Y-45084969D01*
X188147464Y-45046873D01*
X188185559Y-45008778D01*
X188223654Y-44932588D01*
X188223654Y-44704016D01*
X188185559Y-44627826D01*
X188147464Y-44589730D01*
X187766511Y-45542111D02*
X187728416Y-45465921D01*
X187690321Y-45427826D01*
X187614130Y-45389730D01*
X187576035Y-45389730D01*
X187499845Y-45427826D01*
X187461750Y-45465921D01*
X187423654Y-45542111D01*
X187423654Y-45694492D01*
X187461750Y-45770683D01*
X187499845Y-45808778D01*
X187576035Y-45846873D01*
X187614130Y-45846873D01*
X187690321Y-45808778D01*
X187728416Y-45770683D01*
X187766511Y-45694492D01*
X187766511Y-45542111D01*
X187804607Y-45465921D01*
X187842702Y-45427826D01*
X187918892Y-45389730D01*
X188071273Y-45389730D01*
X188147464Y-45427826D01*
X188185559Y-45465921D01*
X188223654Y-45542111D01*
X188223654Y-45694492D01*
X188185559Y-45770683D01*
X188147464Y-45808778D01*
X188071273Y-45846873D01*
X187918892Y-45846873D01*
X187842702Y-45808778D01*
X187804607Y-45770683D01*
X187766511Y-45694492D01*
X188223654Y-62915921D02*
X187423654Y-62915921D01*
X187423654Y-63106397D01*
X187461750Y-63220683D01*
X187537940Y-63296873D01*
X187614130Y-63334969D01*
X187766511Y-63373064D01*
X187880797Y-63373064D01*
X188033178Y-63334969D01*
X188109369Y-63296873D01*
X188185559Y-63220683D01*
X188223654Y-63106397D01*
X188223654Y-62915921D01*
X187423654Y-63639730D02*
X187423654Y-64134969D01*
X187728416Y-63868302D01*
X187728416Y-63982588D01*
X187766511Y-64058778D01*
X187804607Y-64096873D01*
X187880797Y-64134969D01*
X188071273Y-64134969D01*
X188147464Y-64096873D01*
X188185559Y-64058778D01*
X188223654Y-63982588D01*
X188223654Y-63754016D01*
X188185559Y-63677826D01*
X188147464Y-63639730D01*
X188223654Y-64515921D02*
X188223654Y-64668302D01*
X188185559Y-64744492D01*
X188147464Y-64782588D01*
X188033178Y-64858778D01*
X187880797Y-64896873D01*
X187576035Y-64896873D01*
X187499845Y-64858778D01*
X187461750Y-64820683D01*
X187423654Y-64744492D01*
X187423654Y-64592111D01*
X187461750Y-64515921D01*
X187499845Y-64477826D01*
X187576035Y-64439730D01*
X187766511Y-64439730D01*
X187842702Y-64477826D01*
X187880797Y-64515921D01*
X187918892Y-64592111D01*
X187918892Y-64744492D01*
X187880797Y-64820683D01*
X187842702Y-64858778D01*
X187766511Y-64896873D01*
X188223654Y-81965921D02*
X187423654Y-81965921D01*
X187423654Y-82156397D01*
X187461750Y-82270683D01*
X187537940Y-82346873D01*
X187614130Y-82384969D01*
X187766511Y-82423064D01*
X187880797Y-82423064D01*
X188033178Y-82384969D01*
X188109369Y-82346873D01*
X188185559Y-82270683D01*
X188223654Y-82156397D01*
X188223654Y-81965921D01*
X187690321Y-83108778D02*
X188223654Y-83108778D01*
X187385559Y-82918302D02*
X187956988Y-82727826D01*
X187956988Y-83223064D01*
X187423654Y-83680207D02*
X187423654Y-83756397D01*
X187461750Y-83832588D01*
X187499845Y-83870683D01*
X187576035Y-83908778D01*
X187728416Y-83946873D01*
X187918892Y-83946873D01*
X188071273Y-83908778D01*
X188147464Y-83870683D01*
X188185559Y-83832588D01*
X188223654Y-83756397D01*
X188223654Y-83680207D01*
X188185559Y-83604016D01*
X188147464Y-83565921D01*
X188071273Y-83527826D01*
X187918892Y-83489730D01*
X187728416Y-83489730D01*
X187576035Y-83527826D01*
X187499845Y-83565921D01*
X187461750Y-83604016D01*
X187423654Y-83680207D01*
X39852559Y-46583607D02*
X39738273Y-46621702D01*
X39700178Y-46659797D01*
X39662083Y-46735988D01*
X39662083Y-46850273D01*
X39700178Y-46926464D01*
X39738273Y-46964559D01*
X39814464Y-47002654D01*
X40119226Y-47002654D01*
X40119226Y-46202654D01*
X39852559Y-46202654D01*
X39776369Y-46240750D01*
X39738273Y-46278845D01*
X39700178Y-46355035D01*
X39700178Y-46431226D01*
X39738273Y-46507416D01*
X39776369Y-46545511D01*
X39852559Y-46583607D01*
X40119226Y-46583607D01*
X38976369Y-46469321D02*
X38976369Y-47002654D01*
X39166845Y-46164559D02*
X39357321Y-46735988D01*
X38862083Y-46735988D01*
X40119226Y-36842654D02*
X40119226Y-36042654D01*
X39928750Y-36042654D01*
X39814464Y-36080750D01*
X39738273Y-36156940D01*
X39700178Y-36233130D01*
X39662083Y-36385511D01*
X39662083Y-36499797D01*
X39700178Y-36652178D01*
X39738273Y-36728369D01*
X39814464Y-36804559D01*
X39928750Y-36842654D01*
X40119226Y-36842654D01*
X38976369Y-36309321D02*
X38976369Y-36842654D01*
X39166845Y-36004559D02*
X39357321Y-36575988D01*
X38862083Y-36575988D01*
X50717416Y-36423607D02*
X50984083Y-36423607D01*
X50984083Y-36842654D02*
X50984083Y-36042654D01*
X50603130Y-36042654D01*
X49955511Y-36042654D02*
X50107892Y-36042654D01*
X50184083Y-36080750D01*
X50222178Y-36118845D01*
X50298369Y-36233130D01*
X50336464Y-36385511D01*
X50336464Y-36690273D01*
X50298369Y-36766464D01*
X50260273Y-36804559D01*
X50184083Y-36842654D01*
X50031702Y-36842654D01*
X49955511Y-36804559D01*
X49917416Y-36766464D01*
X49879321Y-36690273D01*
X49879321Y-36499797D01*
X49917416Y-36423607D01*
X49955511Y-36385511D01*
X50031702Y-36347416D01*
X50184083Y-36347416D01*
X50260273Y-36385511D01*
X50298369Y-36423607D01*
X50336464Y-36499797D01*
X40119226Y-34302654D02*
X40119226Y-33502654D01*
X39928750Y-33502654D01*
X39814464Y-33540750D01*
X39738273Y-33616940D01*
X39700178Y-33693130D01*
X39662083Y-33845511D01*
X39662083Y-33959797D01*
X39700178Y-34112178D01*
X39738273Y-34188369D01*
X39814464Y-34264559D01*
X39928750Y-34302654D01*
X40119226Y-34302654D01*
X39166845Y-33502654D02*
X39090654Y-33502654D01*
X39014464Y-33540750D01*
X38976369Y-33578845D01*
X38938273Y-33655035D01*
X38900178Y-33807416D01*
X38900178Y-33997892D01*
X38938273Y-34150273D01*
X38976369Y-34226464D01*
X39014464Y-34264559D01*
X39090654Y-34302654D01*
X39166845Y-34302654D01*
X39243035Y-34264559D01*
X39281130Y-34226464D01*
X39319226Y-34150273D01*
X39357321Y-33997892D01*
X39357321Y-33807416D01*
X39319226Y-33655035D01*
X39281130Y-33578845D01*
X39243035Y-33540750D01*
X39166845Y-33502654D01*
X50774559Y-49123607D02*
X50660273Y-49161702D01*
X50622178Y-49199797D01*
X50584083Y-49275988D01*
X50584083Y-49390273D01*
X50622178Y-49466464D01*
X50660273Y-49504559D01*
X50736464Y-49542654D01*
X51041226Y-49542654D01*
X51041226Y-48742654D01*
X50774559Y-48742654D01*
X50698369Y-48780750D01*
X50660273Y-48818845D01*
X50622178Y-48895035D01*
X50622178Y-48971226D01*
X50660273Y-49047416D01*
X50698369Y-49085511D01*
X50774559Y-49123607D01*
X51041226Y-49123607D01*
X49898369Y-48742654D02*
X50050750Y-48742654D01*
X50126940Y-48780750D01*
X50165035Y-48818845D01*
X50241226Y-48933130D01*
X50279321Y-49085511D01*
X50279321Y-49390273D01*
X50241226Y-49466464D01*
X50203130Y-49504559D01*
X50126940Y-49542654D01*
X49974559Y-49542654D01*
X49898369Y-49504559D01*
X49860273Y-49466464D01*
X49822178Y-49390273D01*
X49822178Y-49199797D01*
X49860273Y-49123607D01*
X49898369Y-49085511D01*
X49974559Y-49047416D01*
X50126940Y-49047416D01*
X50203130Y-49085511D01*
X50241226Y-49123607D01*
X50279321Y-49199797D01*
X50774559Y-44043607D02*
X50660273Y-44081702D01*
X50622178Y-44119797D01*
X50584083Y-44195988D01*
X50584083Y-44310273D01*
X50622178Y-44386464D01*
X50660273Y-44424559D01*
X50736464Y-44462654D01*
X51041226Y-44462654D01*
X51041226Y-43662654D01*
X50774559Y-43662654D01*
X50698369Y-43700750D01*
X50660273Y-43738845D01*
X50622178Y-43815035D01*
X50622178Y-43891226D01*
X50660273Y-43967416D01*
X50698369Y-44005511D01*
X50774559Y-44043607D01*
X51041226Y-44043607D01*
X50317416Y-43662654D02*
X49822178Y-43662654D01*
X50088845Y-43967416D01*
X49974559Y-43967416D01*
X49898369Y-44005511D01*
X49860273Y-44043607D01*
X49822178Y-44119797D01*
X49822178Y-44310273D01*
X49860273Y-44386464D01*
X49898369Y-44424559D01*
X49974559Y-44462654D01*
X50203130Y-44462654D01*
X50279321Y-44424559D01*
X50317416Y-44386464D01*
X39852559Y-49123607D02*
X39738273Y-49161702D01*
X39700178Y-49199797D01*
X39662083Y-49275988D01*
X39662083Y-49390273D01*
X39700178Y-49466464D01*
X39738273Y-49504559D01*
X39814464Y-49542654D01*
X40119226Y-49542654D01*
X40119226Y-48742654D01*
X39852559Y-48742654D01*
X39776369Y-48780750D01*
X39738273Y-48818845D01*
X39700178Y-48895035D01*
X39700178Y-48971226D01*
X39738273Y-49047416D01*
X39776369Y-49085511D01*
X39852559Y-49123607D01*
X40119226Y-49123607D01*
X38938273Y-48742654D02*
X39319226Y-48742654D01*
X39357321Y-49123607D01*
X39319226Y-49085511D01*
X39243035Y-49047416D01*
X39052559Y-49047416D01*
X38976369Y-49085511D01*
X38938273Y-49123607D01*
X38900178Y-49199797D01*
X38900178Y-49390273D01*
X38938273Y-49466464D01*
X38976369Y-49504559D01*
X39052559Y-49542654D01*
X39243035Y-49542654D01*
X39319226Y-49504559D01*
X39357321Y-49466464D01*
X40119226Y-41922654D02*
X40119226Y-41122654D01*
X39928750Y-41122654D01*
X39814464Y-41160750D01*
X39738273Y-41236940D01*
X39700178Y-41313130D01*
X39662083Y-41465511D01*
X39662083Y-41579797D01*
X39700178Y-41732178D01*
X39738273Y-41808369D01*
X39814464Y-41884559D01*
X39928750Y-41922654D01*
X40119226Y-41922654D01*
X39395416Y-41122654D02*
X38862083Y-41122654D01*
X39204940Y-41922654D01*
X43608354Y-20802654D02*
X43151211Y-20802654D01*
X43379782Y-21602654D02*
X43379782Y-20802654D01*
X42960735Y-20802654D02*
X42427401Y-21602654D01*
X42427401Y-20802654D02*
X42960735Y-21602654D01*
X41970258Y-20802654D02*
X41894068Y-20802654D01*
X41817878Y-20840750D01*
X41779782Y-20878845D01*
X41741687Y-20955035D01*
X41703592Y-21107416D01*
X41703592Y-21297892D01*
X41741687Y-21450273D01*
X41779782Y-21526464D01*
X41817878Y-21564559D01*
X41894068Y-21602654D01*
X41970258Y-21602654D01*
X42046449Y-21564559D01*
X42084544Y-21526464D01*
X42122639Y-21450273D01*
X42160735Y-21297892D01*
X42160735Y-21107416D01*
X42122639Y-20955035D01*
X42084544Y-20878845D01*
X42046449Y-20840750D01*
X41970258Y-20802654D01*
X40789306Y-20764559D02*
X41475020Y-21793130D01*
X40522639Y-21602654D02*
X40522639Y-20802654D01*
X40332163Y-20802654D01*
X40217878Y-20840750D01*
X40141687Y-20916940D01*
X40103592Y-20993130D01*
X40065497Y-21145511D01*
X40065497Y-21259797D01*
X40103592Y-21412178D01*
X40141687Y-21488369D01*
X40217878Y-21564559D01*
X40332163Y-21602654D01*
X40522639Y-21602654D01*
X39798830Y-20802654D02*
X39303592Y-20802654D01*
X39570258Y-21107416D01*
X39455973Y-21107416D01*
X39379782Y-21145511D01*
X39341687Y-21183607D01*
X39303592Y-21259797D01*
X39303592Y-21450273D01*
X39341687Y-21526464D01*
X39379782Y-21564559D01*
X39455973Y-21602654D01*
X39684544Y-21602654D01*
X39760735Y-21564559D01*
X39798830Y-21526464D01*
X40138273Y-28460750D02*
X40214464Y-28422654D01*
X40328750Y-28422654D01*
X40443035Y-28460750D01*
X40519226Y-28536940D01*
X40557321Y-28613130D01*
X40595416Y-28765511D01*
X40595416Y-28879797D01*
X40557321Y-29032178D01*
X40519226Y-29108369D01*
X40443035Y-29184559D01*
X40328750Y-29222654D01*
X40252559Y-29222654D01*
X40138273Y-29184559D01*
X40100178Y-29146464D01*
X40100178Y-28879797D01*
X40252559Y-28879797D01*
X39757321Y-29222654D02*
X39757321Y-28422654D01*
X39300178Y-29222654D01*
X39300178Y-28422654D01*
X38919226Y-29222654D02*
X38919226Y-28422654D01*
X38728750Y-28422654D01*
X38614464Y-28460750D01*
X38538273Y-28536940D01*
X38500178Y-28613130D01*
X38462083Y-28765511D01*
X38462083Y-28879797D01*
X38500178Y-29032178D01*
X38538273Y-29108369D01*
X38614464Y-29184559D01*
X38728750Y-29222654D01*
X38919226Y-29222654D01*
X39662083Y-39306464D02*
X39700178Y-39344559D01*
X39814464Y-39382654D01*
X39890654Y-39382654D01*
X40004940Y-39344559D01*
X40081130Y-39268369D01*
X40119226Y-39192178D01*
X40157321Y-39039797D01*
X40157321Y-38925511D01*
X40119226Y-38773130D01*
X40081130Y-38696940D01*
X40004940Y-38620750D01*
X39890654Y-38582654D01*
X39814464Y-38582654D01*
X39700178Y-38620750D01*
X39662083Y-38658845D01*
X38976369Y-38582654D02*
X39128750Y-38582654D01*
X39204940Y-38620750D01*
X39243035Y-38658845D01*
X39319226Y-38773130D01*
X39357321Y-38925511D01*
X39357321Y-39230273D01*
X39319226Y-39306464D01*
X39281130Y-39344559D01*
X39204940Y-39382654D01*
X39052559Y-39382654D01*
X38976369Y-39344559D01*
X38938273Y-39306464D01*
X38900178Y-39230273D01*
X38900178Y-39039797D01*
X38938273Y-38963607D01*
X38976369Y-38925511D01*
X39052559Y-38887416D01*
X39204940Y-38887416D01*
X39281130Y-38925511D01*
X39319226Y-38963607D01*
X39357321Y-39039797D01*
X50717416Y-33883607D02*
X50984083Y-33883607D01*
X50984083Y-34302654D02*
X50984083Y-33502654D01*
X50603130Y-33502654D01*
X49917416Y-33502654D02*
X50298369Y-33502654D01*
X50336464Y-33883607D01*
X50298369Y-33845511D01*
X50222178Y-33807416D01*
X50031702Y-33807416D01*
X49955511Y-33845511D01*
X49917416Y-33883607D01*
X49879321Y-33959797D01*
X49879321Y-34150273D01*
X49917416Y-34226464D01*
X49955511Y-34264559D01*
X50031702Y-34302654D01*
X50222178Y-34302654D01*
X50298369Y-34264559D01*
X50336464Y-34226464D01*
X51060273Y-23380750D02*
X51136464Y-23342654D01*
X51250750Y-23342654D01*
X51365035Y-23380750D01*
X51441226Y-23456940D01*
X51479321Y-23533130D01*
X51517416Y-23685511D01*
X51517416Y-23799797D01*
X51479321Y-23952178D01*
X51441226Y-24028369D01*
X51365035Y-24104559D01*
X51250750Y-24142654D01*
X51174559Y-24142654D01*
X51060273Y-24104559D01*
X51022178Y-24066464D01*
X51022178Y-23799797D01*
X51174559Y-23799797D01*
X50679321Y-24142654D02*
X50679321Y-23342654D01*
X50222178Y-24142654D01*
X50222178Y-23342654D01*
X49841226Y-24142654D02*
X49841226Y-23342654D01*
X49650750Y-23342654D01*
X49536464Y-23380750D01*
X49460273Y-23456940D01*
X49422178Y-23533130D01*
X49384083Y-23685511D01*
X49384083Y-23799797D01*
X49422178Y-23952178D01*
X49460273Y-24028369D01*
X49536464Y-24104559D01*
X49650750Y-24142654D01*
X49841226Y-24142654D01*
X51517416Y-28422654D02*
X51250750Y-29222654D01*
X50984083Y-28422654D01*
X50260273Y-29146464D02*
X50298369Y-29184559D01*
X50412654Y-29222654D01*
X50488845Y-29222654D01*
X50603130Y-29184559D01*
X50679321Y-29108369D01*
X50717416Y-29032178D01*
X50755511Y-28879797D01*
X50755511Y-28765511D01*
X50717416Y-28613130D01*
X50679321Y-28536940D01*
X50603130Y-28460750D01*
X50488845Y-28422654D01*
X50412654Y-28422654D01*
X50298369Y-28460750D01*
X50260273Y-28498845D01*
X49460273Y-29146464D02*
X49498369Y-29184559D01*
X49612654Y-29222654D01*
X49688845Y-29222654D01*
X49803130Y-29184559D01*
X49879321Y-29108369D01*
X49917416Y-29032178D01*
X49955511Y-28879797D01*
X49955511Y-28765511D01*
X49917416Y-28613130D01*
X49879321Y-28536940D01*
X49803130Y-28460750D01*
X49688845Y-28422654D01*
X49612654Y-28422654D01*
X49498369Y-28460750D01*
X49460273Y-28498845D01*
X50717416Y-38963607D02*
X50984083Y-38963607D01*
X50984083Y-39382654D02*
X50984083Y-38582654D01*
X50603130Y-38582654D01*
X50374559Y-38582654D02*
X49841226Y-38582654D01*
X50184083Y-39382654D01*
X40119226Y-31762654D02*
X40119226Y-30962654D01*
X39928750Y-30962654D01*
X39814464Y-31000750D01*
X39738273Y-31076940D01*
X39700178Y-31153130D01*
X39662083Y-31305511D01*
X39662083Y-31419797D01*
X39700178Y-31572178D01*
X39738273Y-31648369D01*
X39814464Y-31724559D01*
X39928750Y-31762654D01*
X40119226Y-31762654D01*
X38900178Y-31762654D02*
X39357321Y-31762654D01*
X39128750Y-31762654D02*
X39128750Y-30962654D01*
X39204940Y-31076940D01*
X39281130Y-31153130D01*
X39357321Y-31191226D01*
X40138273Y-25920750D02*
X40214464Y-25882654D01*
X40328750Y-25882654D01*
X40443035Y-25920750D01*
X40519226Y-25996940D01*
X40557321Y-26073130D01*
X40595416Y-26225511D01*
X40595416Y-26339797D01*
X40557321Y-26492178D01*
X40519226Y-26568369D01*
X40443035Y-26644559D01*
X40328750Y-26682654D01*
X40252559Y-26682654D01*
X40138273Y-26644559D01*
X40100178Y-26606464D01*
X40100178Y-26339797D01*
X40252559Y-26339797D01*
X39757321Y-26682654D02*
X39757321Y-25882654D01*
X39300178Y-26682654D01*
X39300178Y-25882654D01*
X38919226Y-26682654D02*
X38919226Y-25882654D01*
X38728750Y-25882654D01*
X38614464Y-25920750D01*
X38538273Y-25996940D01*
X38500178Y-26073130D01*
X38462083Y-26225511D01*
X38462083Y-26339797D01*
X38500178Y-26492178D01*
X38538273Y-26568369D01*
X38614464Y-26644559D01*
X38728750Y-26682654D01*
X38919226Y-26682654D01*
X50717416Y-31343607D02*
X50984083Y-31343607D01*
X50984083Y-31762654D02*
X50984083Y-30962654D01*
X50603130Y-30962654D01*
X49955511Y-31229321D02*
X49955511Y-31762654D01*
X50145988Y-30924559D02*
X50336464Y-31495988D01*
X49841226Y-31495988D01*
X40119226Y-24142654D02*
X40119226Y-23342654D01*
X39928750Y-23342654D01*
X39814464Y-23380750D01*
X39738273Y-23456940D01*
X39700178Y-23533130D01*
X39662083Y-23685511D01*
X39662083Y-23799797D01*
X39700178Y-23952178D01*
X39738273Y-24028369D01*
X39814464Y-24104559D01*
X39928750Y-24142654D01*
X40119226Y-24142654D01*
X39357321Y-23418845D02*
X39319226Y-23380750D01*
X39243035Y-23342654D01*
X39052559Y-23342654D01*
X38976369Y-23380750D01*
X38938273Y-23418845D01*
X38900178Y-23495035D01*
X38900178Y-23571226D01*
X38938273Y-23685511D01*
X39395416Y-24142654D01*
X38900178Y-24142654D01*
X50774559Y-41503607D02*
X50660273Y-41541702D01*
X50622178Y-41579797D01*
X50584083Y-41655988D01*
X50584083Y-41770273D01*
X50622178Y-41846464D01*
X50660273Y-41884559D01*
X50736464Y-41922654D01*
X51041226Y-41922654D01*
X51041226Y-41122654D01*
X50774559Y-41122654D01*
X50698369Y-41160750D01*
X50660273Y-41198845D01*
X50622178Y-41275035D01*
X50622178Y-41351226D01*
X50660273Y-41427416D01*
X50698369Y-41465511D01*
X50774559Y-41503607D01*
X51041226Y-41503607D01*
X49822178Y-41922654D02*
X50279321Y-41922654D01*
X50050750Y-41922654D02*
X50050750Y-41122654D01*
X50126940Y-41236940D01*
X50203130Y-41313130D01*
X50279321Y-41351226D01*
X40081130Y-44043607D02*
X39814464Y-44043607D01*
X39700178Y-44462654D02*
X40081130Y-44462654D01*
X40081130Y-43662654D01*
X39700178Y-43662654D01*
X39014464Y-43662654D02*
X39166845Y-43662654D01*
X39243035Y-43700750D01*
X39281130Y-43738845D01*
X39357321Y-43853130D01*
X39395416Y-44005511D01*
X39395416Y-44310273D01*
X39357321Y-44386464D01*
X39319226Y-44424559D01*
X39243035Y-44462654D01*
X39090654Y-44462654D01*
X39014464Y-44424559D01*
X38976369Y-44386464D01*
X38938273Y-44310273D01*
X38938273Y-44119797D01*
X38976369Y-44043607D01*
X39014464Y-44005511D01*
X39090654Y-43967416D01*
X39243035Y-43967416D01*
X39319226Y-44005511D01*
X39357321Y-44043607D01*
X39395416Y-44119797D01*
X51003130Y-21602654D02*
X51269797Y-21221702D01*
X51460273Y-21602654D02*
X51460273Y-20802654D01*
X51155511Y-20802654D01*
X51079321Y-20840750D01*
X51041226Y-20878845D01*
X51003130Y-20955035D01*
X51003130Y-21069321D01*
X51041226Y-21145511D01*
X51079321Y-21183607D01*
X51155511Y-21221702D01*
X51460273Y-21221702D01*
X50698369Y-21374083D02*
X50317416Y-21374083D01*
X50774559Y-21602654D02*
X50507892Y-20802654D01*
X50241226Y-21602654D01*
X50050750Y-20802654D02*
X49860273Y-21602654D01*
X49707892Y-21031226D01*
X49555511Y-21602654D01*
X49365035Y-20802654D01*
X50563083Y-26624559D02*
X50448797Y-26662654D01*
X50258321Y-26662654D01*
X50182130Y-26624559D01*
X50144035Y-26586464D01*
X50105940Y-26510273D01*
X50105940Y-26434083D01*
X50144035Y-26357892D01*
X50182130Y-26319797D01*
X50258321Y-26281702D01*
X50410702Y-26243607D01*
X50486892Y-26205511D01*
X50524988Y-26167416D01*
X50563083Y-26091226D01*
X50563083Y-26015035D01*
X50524988Y-25938845D01*
X50486892Y-25900750D01*
X50410702Y-25862654D01*
X50220226Y-25862654D01*
X50105940Y-25900750D01*
X49877369Y-25862654D02*
X49420226Y-25862654D01*
X49648797Y-26662654D02*
X49648797Y-25862654D01*
X50774559Y-46583607D02*
X50660273Y-46621702D01*
X50622178Y-46659797D01*
X50584083Y-46735988D01*
X50584083Y-46850273D01*
X50622178Y-46926464D01*
X50660273Y-46964559D01*
X50736464Y-47002654D01*
X51041226Y-47002654D01*
X51041226Y-46202654D01*
X50774559Y-46202654D01*
X50698369Y-46240750D01*
X50660273Y-46278845D01*
X50622178Y-46355035D01*
X50622178Y-46431226D01*
X50660273Y-46507416D01*
X50698369Y-46545511D01*
X50774559Y-46583607D01*
X51041226Y-46583607D01*
X50279321Y-46278845D02*
X50241226Y-46240750D01*
X50165035Y-46202654D01*
X49974559Y-46202654D01*
X49898369Y-46240750D01*
X49860273Y-46278845D01*
X49822178Y-46355035D01*
X49822178Y-46431226D01*
X49860273Y-46545511D01*
X50317416Y-47002654D01*
X49822178Y-47002654D01*
X61786428Y-31765761D02*
X61643571Y-31813380D01*
X61405476Y-31813380D01*
X61310238Y-31765761D01*
X61262619Y-31718142D01*
X61215000Y-31622904D01*
X61215000Y-31527666D01*
X61262619Y-31432428D01*
X61310238Y-31384809D01*
X61405476Y-31337190D01*
X61595952Y-31289571D01*
X61691190Y-31241952D01*
X61738809Y-31194333D01*
X61786428Y-31099095D01*
X61786428Y-31003857D01*
X61738809Y-30908619D01*
X61691190Y-30861000D01*
X61595952Y-30813380D01*
X61357857Y-30813380D01*
X61215000Y-30861000D01*
X60881666Y-30813380D02*
X60643571Y-31813380D01*
X60453095Y-31099095D01*
X60262619Y-31813380D01*
X60024523Y-30813380D01*
X59881666Y-31908619D02*
X59119761Y-31908619D01*
X58310238Y-31813380D02*
X58643571Y-31337190D01*
X58881666Y-31813380D02*
X58881666Y-30813380D01*
X58500714Y-30813380D01*
X58405476Y-30861000D01*
X58357857Y-30908619D01*
X58310238Y-31003857D01*
X58310238Y-31146714D01*
X58357857Y-31241952D01*
X58405476Y-31289571D01*
X58500714Y-31337190D01*
X58881666Y-31337190D01*
X57929285Y-31765761D02*
X57786428Y-31813380D01*
X57548333Y-31813380D01*
X57453095Y-31765761D01*
X57405476Y-31718142D01*
X57357857Y-31622904D01*
X57357857Y-31527666D01*
X57405476Y-31432428D01*
X57453095Y-31384809D01*
X57548333Y-31337190D01*
X57738809Y-31289571D01*
X57834047Y-31241952D01*
X57881666Y-31194333D01*
X57929285Y-31099095D01*
X57929285Y-31003857D01*
X57881666Y-30908619D01*
X57834047Y-30861000D01*
X57738809Y-30813380D01*
X57500714Y-30813380D01*
X57357857Y-30861000D01*
X57072142Y-30813380D02*
X56500714Y-30813380D01*
X56786428Y-31813380D02*
X56786428Y-30813380D01*
X55643571Y-31813380D02*
X56215000Y-31813380D01*
X55929285Y-31813380D02*
X55929285Y-30813380D01*
X56024523Y-30956238D01*
X56119761Y-31051476D01*
X56215000Y-31099095D01*
X33305750Y-28352750D02*
X34829750Y-28352750D01*
X34829750Y-27844750D02*
X33305750Y-27844750D01*
X33305750Y-27971750D02*
X34829750Y-27971750D01*
X33305750Y-27590750D02*
X34829750Y-27590750D01*
X34829750Y-28098750D02*
X33305750Y-28098750D01*
X34829750Y-23272750D02*
X33305750Y-23272750D01*
X33305750Y-23272750D02*
X33305750Y-28352750D01*
X34829750Y-28352750D02*
X34829750Y-23272750D01*
X33305750Y-28225750D02*
X34829750Y-28225750D01*
X33305750Y-27717750D02*
X34829750Y-27717750D01*
X34829750Y-47402750D02*
X34829750Y-42322750D01*
X33305750Y-46640750D02*
X34829750Y-46640750D01*
X34829750Y-42322750D02*
X33305750Y-42322750D01*
X33305750Y-47402750D02*
X34829750Y-47402750D01*
X33305750Y-47021750D02*
X34829750Y-47021750D01*
X33305750Y-42322750D02*
X33305750Y-47402750D01*
X34829750Y-47148750D02*
X33305750Y-47148750D01*
X33305750Y-46767750D02*
X34829750Y-46767750D01*
X34829750Y-46894750D02*
X33305750Y-46894750D01*
X33305750Y-47275750D02*
X34829750Y-47275750D01*
X33305750Y-66325750D02*
X34829750Y-66325750D01*
X33305750Y-61372750D02*
X33305750Y-66452750D01*
X33305750Y-65690750D02*
X34829750Y-65690750D01*
X33305750Y-66071750D02*
X34829750Y-66071750D01*
X33305750Y-66452750D02*
X34829750Y-66452750D01*
X34829750Y-65944750D02*
X33305750Y-65944750D01*
X33305750Y-65817750D02*
X34829750Y-65817750D01*
X34829750Y-61372750D02*
X33305750Y-61372750D01*
X34829750Y-66198750D02*
X33305750Y-66198750D01*
X34829750Y-66452750D02*
X34829750Y-61372750D01*
X33305750Y-80422750D02*
X33305750Y-85502750D01*
X34829750Y-85502750D02*
X34829750Y-80422750D01*
X33305750Y-84867750D02*
X34829750Y-84867750D01*
X33305750Y-85502750D02*
X34829750Y-85502750D01*
X33305750Y-85121750D02*
X34829750Y-85121750D01*
X33305750Y-84740750D02*
X34829750Y-84740750D01*
X34829750Y-84994750D02*
X33305750Y-84994750D01*
X34829750Y-85248750D02*
X33305750Y-85248750D01*
X33305750Y-85375750D02*
X34829750Y-85375750D01*
X34829750Y-80422750D02*
X33305750Y-80422750D01*
X56673750Y-28352750D02*
X56673750Y-23272750D01*
X55149750Y-27971750D02*
X56673750Y-27971750D01*
X55149750Y-28352750D02*
X56673750Y-28352750D01*
X55149750Y-27590750D02*
X56673750Y-27590750D01*
X55149750Y-23272750D02*
X55149750Y-28352750D01*
X55149750Y-27717750D02*
X56673750Y-27717750D01*
X55149750Y-28225750D02*
X56673750Y-28225750D01*
X56673750Y-23272750D02*
X55149750Y-23272750D01*
X56673750Y-28098750D02*
X55149750Y-28098750D01*
X56673750Y-27844750D02*
X55149750Y-27844750D01*
X55149750Y-47021750D02*
X56673750Y-47021750D01*
X55149750Y-42322750D02*
X55149750Y-47402750D01*
X55149750Y-46640750D02*
X56673750Y-46640750D01*
X55149750Y-47402750D02*
X56673750Y-47402750D01*
X56673750Y-47402750D02*
X56673750Y-42322750D01*
X55149750Y-46767750D02*
X56673750Y-46767750D01*
X56673750Y-46894750D02*
X55149750Y-46894750D01*
X56673750Y-47148750D02*
X55149750Y-47148750D01*
X56673750Y-42322750D02*
X55149750Y-42322750D01*
X55149750Y-47275750D02*
X56673750Y-47275750D01*
X55149750Y-66071750D02*
X56673750Y-66071750D01*
X56673750Y-61372750D02*
X55149750Y-61372750D01*
X56673750Y-66452750D02*
X56673750Y-61372750D01*
X56673750Y-65944750D02*
X55149750Y-65944750D01*
X55149750Y-65817750D02*
X56673750Y-65817750D01*
X55149750Y-66452750D02*
X56673750Y-66452750D01*
X56673750Y-66198750D02*
X55149750Y-66198750D01*
X55149750Y-66325750D02*
X56673750Y-66325750D01*
X55149750Y-65690750D02*
X56673750Y-65690750D01*
X55149750Y-61372750D02*
X55149750Y-66452750D01*
X55149750Y-84867750D02*
X56673750Y-84867750D01*
X56673750Y-85502750D02*
X56673750Y-80422750D01*
X55149750Y-85502750D02*
X56673750Y-85502750D01*
X56673750Y-85248750D02*
X55149750Y-85248750D01*
X55149750Y-84740750D02*
X56673750Y-84740750D01*
X56673750Y-84994750D02*
X55149750Y-84994750D01*
X55149750Y-85121750D02*
X56673750Y-85121750D01*
X55149750Y-80422750D02*
X55149750Y-85502750D01*
X56673750Y-80422750D02*
X55149750Y-80422750D01*
X55149750Y-85375750D02*
X56673750Y-85375750D01*
X71405750Y-28225750D02*
X72929750Y-28225750D01*
X71405750Y-27971750D02*
X72929750Y-27971750D01*
X72929750Y-27844750D02*
X71405750Y-27844750D01*
X72929750Y-28098750D02*
X71405750Y-28098750D01*
X71405750Y-28352750D02*
X72929750Y-28352750D01*
X71405750Y-23272750D02*
X71405750Y-28352750D01*
X72929750Y-23272750D02*
X71405750Y-23272750D01*
X71405750Y-27590750D02*
X72929750Y-27590750D01*
X71405750Y-27717750D02*
X72929750Y-27717750D01*
X72929750Y-28352750D02*
X72929750Y-23272750D01*
X71405750Y-47021750D02*
X72929750Y-47021750D01*
X72929750Y-47402750D02*
X72929750Y-42322750D01*
X72929750Y-47148750D02*
X71405750Y-47148750D01*
X71405750Y-47275750D02*
X72929750Y-47275750D01*
X72929750Y-46894750D02*
X71405750Y-46894750D01*
X71405750Y-46767750D02*
X72929750Y-46767750D01*
X71405750Y-42322750D02*
X71405750Y-47402750D01*
X71405750Y-46640750D02*
X72929750Y-46640750D01*
X71405750Y-47402750D02*
X72929750Y-47402750D01*
X72929750Y-42322750D02*
X71405750Y-42322750D01*
X71405750Y-65817750D02*
X72929750Y-65817750D01*
X72929750Y-61372750D02*
X71405750Y-61372750D01*
X71405750Y-66071750D02*
X72929750Y-66071750D01*
X72929750Y-66198750D02*
X71405750Y-66198750D01*
X71405750Y-61372750D02*
X71405750Y-66452750D01*
X71405750Y-66452750D02*
X72929750Y-66452750D01*
X72929750Y-65944750D02*
X71405750Y-65944750D01*
X71405750Y-66325750D02*
X72929750Y-66325750D01*
X71405750Y-65690750D02*
X72929750Y-65690750D01*
X72929750Y-66452750D02*
X72929750Y-61372750D01*
X71405750Y-80422750D02*
X71405750Y-85502750D01*
X71405750Y-85375750D02*
X72929750Y-85375750D01*
X72929750Y-85502750D02*
X72929750Y-80422750D01*
X72929750Y-84994750D02*
X71405750Y-84994750D01*
X71405750Y-85502750D02*
X72929750Y-85502750D01*
X71405750Y-84740750D02*
X72929750Y-84740750D01*
X72929750Y-80422750D02*
X71405750Y-80422750D01*
X72929750Y-85248750D02*
X71405750Y-85248750D01*
X71405750Y-84867750D02*
X72929750Y-84867750D01*
X71405750Y-85121750D02*
X72929750Y-85121750D01*
X91979750Y-28352750D02*
X91979750Y-23272750D01*
X90455750Y-28225750D02*
X91979750Y-28225750D01*
X91979750Y-23272750D02*
X90455750Y-23272750D01*
X90455750Y-27971750D02*
X91979750Y-27971750D01*
X91979750Y-28098750D02*
X90455750Y-28098750D01*
X90455750Y-28352750D02*
X91979750Y-28352750D01*
X90455750Y-27590750D02*
X91979750Y-27590750D01*
X91979750Y-27844750D02*
X90455750Y-27844750D01*
X90455750Y-23272750D02*
X90455750Y-28352750D01*
X90455750Y-27717750D02*
X91979750Y-27717750D01*
X90455750Y-47402750D02*
X91979750Y-47402750D01*
X90455750Y-47021750D02*
X91979750Y-47021750D01*
X90455750Y-46767750D02*
X91979750Y-46767750D01*
X90455750Y-42322750D02*
X90455750Y-47402750D01*
X91979750Y-47148750D02*
X90455750Y-47148750D01*
X90455750Y-47275750D02*
X91979750Y-47275750D01*
X90455750Y-46640750D02*
X91979750Y-46640750D01*
X91979750Y-47402750D02*
X91979750Y-42322750D01*
X91979750Y-46894750D02*
X90455750Y-46894750D01*
X91979750Y-42322750D02*
X90455750Y-42322750D01*
X91979750Y-61372750D02*
X90455750Y-61372750D01*
X90455750Y-66071750D02*
X91979750Y-66071750D01*
X90455750Y-66452750D02*
X91979750Y-66452750D01*
X90455750Y-65817750D02*
X91979750Y-65817750D01*
X90455750Y-66325750D02*
X91979750Y-66325750D01*
X90455750Y-65690750D02*
X91979750Y-65690750D01*
X91979750Y-66452750D02*
X91979750Y-61372750D01*
X91979750Y-66198750D02*
X90455750Y-66198750D01*
X91979750Y-65944750D02*
X90455750Y-65944750D01*
X90455750Y-61372750D02*
X90455750Y-66452750D01*
X74238000Y-85375750D02*
X75762000Y-85375750D01*
X74238000Y-84867750D02*
X75762000Y-84867750D01*
X75762000Y-85502750D02*
X75762000Y-80422750D01*
X74238000Y-84740750D02*
X75762000Y-84740750D01*
X75762000Y-85248750D02*
X74238000Y-85248750D01*
X74238000Y-85121750D02*
X75762000Y-85121750D01*
X75762000Y-84994750D02*
X74238000Y-84994750D01*
X74238000Y-85502750D02*
X75762000Y-85502750D01*
X74238000Y-80422750D02*
X74238000Y-85502750D01*
X75762000Y-80422750D02*
X74238000Y-80422750D01*
X111029750Y-28098750D02*
X109505750Y-28098750D01*
X109505750Y-23272750D02*
X109505750Y-28352750D01*
X109505750Y-28352750D02*
X111029750Y-28352750D01*
X111029750Y-23272750D02*
X109505750Y-23272750D01*
X109505750Y-28225750D02*
X111029750Y-28225750D01*
X111029750Y-28352750D02*
X111029750Y-23272750D01*
X109505750Y-27590750D02*
X111029750Y-27590750D01*
X111029750Y-27844750D02*
X109505750Y-27844750D01*
X109505750Y-27971750D02*
X111029750Y-27971750D01*
X109505750Y-27717750D02*
X111029750Y-27717750D01*
X109505750Y-42322750D02*
X109505750Y-47402750D01*
X109505750Y-46767750D02*
X111029750Y-46767750D01*
X111029750Y-42322750D02*
X109505750Y-42322750D01*
X109505750Y-47021750D02*
X111029750Y-47021750D01*
X109505750Y-47402750D02*
X111029750Y-47402750D01*
X109505750Y-47275750D02*
X111029750Y-47275750D01*
X111029750Y-47402750D02*
X111029750Y-42322750D01*
X111029750Y-46894750D02*
X109505750Y-46894750D01*
X111029750Y-47148750D02*
X109505750Y-47148750D01*
X109505750Y-46640750D02*
X111029750Y-46640750D01*
X109505750Y-65817750D02*
X111029750Y-65817750D01*
X109505750Y-66325750D02*
X111029750Y-66325750D01*
X111029750Y-66198750D02*
X109505750Y-66198750D01*
X109505750Y-66452750D02*
X111029750Y-66452750D01*
X109505750Y-65690750D02*
X111029750Y-65690750D01*
X109505750Y-61372750D02*
X109505750Y-66452750D01*
X111029750Y-61372750D02*
X109505750Y-61372750D01*
X111029750Y-66452750D02*
X111029750Y-61372750D01*
X111029750Y-65944750D02*
X109505750Y-65944750D01*
X109505750Y-66071750D02*
X111029750Y-66071750D01*
X109505750Y-85375750D02*
X111029750Y-85375750D01*
X111029750Y-84994750D02*
X109505750Y-84994750D01*
X109505750Y-85121750D02*
X111029750Y-85121750D01*
X109505750Y-80422750D02*
X109505750Y-85502750D01*
X109505750Y-85502750D02*
X111029750Y-85502750D01*
X111029750Y-85248750D02*
X109505750Y-85248750D01*
X109505750Y-84740750D02*
X111029750Y-84740750D01*
X111029750Y-85502750D02*
X111029750Y-80422750D01*
X109505750Y-84867750D02*
X111029750Y-84867750D01*
X111029750Y-80422750D02*
X109505750Y-80422750D01*
X128555750Y-28352750D02*
X130079750Y-28352750D01*
X130079750Y-28352750D02*
X130079750Y-23272750D01*
X128555750Y-23272750D02*
X128555750Y-28352750D01*
X128555750Y-27590750D02*
X130079750Y-27590750D01*
X128555750Y-27717750D02*
X130079750Y-27717750D01*
X128555750Y-28225750D02*
X130079750Y-28225750D01*
X130079750Y-28098750D02*
X128555750Y-28098750D01*
X128555750Y-27971750D02*
X130079750Y-27971750D01*
X130079750Y-23272750D02*
X128555750Y-23272750D01*
X130079750Y-27844750D02*
X128555750Y-27844750D01*
X130079750Y-47148750D02*
X128555750Y-47148750D01*
X128555750Y-42322750D02*
X128555750Y-47402750D01*
X128555750Y-46767750D02*
X130079750Y-46767750D01*
X128555750Y-47275750D02*
X130079750Y-47275750D01*
X128555750Y-47021750D02*
X130079750Y-47021750D01*
X128555750Y-46640750D02*
X130079750Y-46640750D01*
X130079750Y-42322750D02*
X128555750Y-42322750D01*
X128555750Y-47402750D02*
X130079750Y-47402750D01*
X130079750Y-47402750D02*
X130079750Y-42322750D01*
X130079750Y-46894750D02*
X128555750Y-46894750D01*
X128555750Y-65690750D02*
X130079750Y-65690750D01*
X130079750Y-66452750D02*
X130079750Y-61372750D01*
X128555750Y-61372750D02*
X128555750Y-66452750D01*
X128555750Y-66325750D02*
X130079750Y-66325750D01*
X130079750Y-66198750D02*
X128555750Y-66198750D01*
X130079750Y-61372750D02*
X128555750Y-61372750D01*
X128555750Y-66071750D02*
X130079750Y-66071750D01*
X128555750Y-66452750D02*
X130079750Y-66452750D01*
X128555750Y-65817750D02*
X130079750Y-65817750D01*
X130079750Y-65944750D02*
X128555750Y-65944750D01*
X112338000Y-84867750D02*
X113862000Y-84867750D01*
X112338000Y-85375750D02*
X113862000Y-85375750D01*
X113862000Y-80422750D02*
X112338000Y-80422750D01*
X113862000Y-85502750D02*
X113862000Y-80422750D01*
X113862000Y-85248750D02*
X112338000Y-85248750D01*
X113862000Y-84994750D02*
X112338000Y-84994750D01*
X112338000Y-80422750D02*
X112338000Y-85502750D01*
X112338000Y-85121750D02*
X113862000Y-85121750D01*
X112338000Y-84740750D02*
X113862000Y-84740750D01*
X112338000Y-85502750D02*
X113862000Y-85502750D01*
X147605750Y-27717750D02*
X149129750Y-27717750D01*
X147605750Y-27971750D02*
X149129750Y-27971750D01*
X147605750Y-27590750D02*
X149129750Y-27590750D01*
X147605750Y-28225750D02*
X149129750Y-28225750D01*
X149129750Y-28098750D02*
X147605750Y-28098750D01*
X149129750Y-28352750D02*
X149129750Y-23272750D01*
X149129750Y-27844750D02*
X147605750Y-27844750D01*
X147605750Y-28352750D02*
X149129750Y-28352750D01*
X147605750Y-23272750D02*
X147605750Y-28352750D01*
X149129750Y-23272750D02*
X147605750Y-23272750D01*
X147605750Y-46767750D02*
X149129750Y-46767750D01*
X149129750Y-47148750D02*
X147605750Y-47148750D01*
X147605750Y-42322750D02*
X147605750Y-47402750D01*
X149129750Y-42322750D02*
X147605750Y-42322750D01*
X149129750Y-47402750D02*
X149129750Y-42322750D01*
X147605750Y-46640750D02*
X149129750Y-46640750D01*
X147605750Y-47021750D02*
X149129750Y-47021750D01*
X147605750Y-47275750D02*
X149129750Y-47275750D01*
X149129750Y-46894750D02*
X147605750Y-46894750D01*
X147605750Y-47402750D02*
X149129750Y-47402750D01*
X149129750Y-66452750D02*
X149129750Y-61372750D01*
X147605750Y-65817750D02*
X149129750Y-65817750D01*
X149129750Y-66198750D02*
X147605750Y-66198750D01*
X149129750Y-61372750D02*
X147605750Y-61372750D01*
X147605750Y-66325750D02*
X149129750Y-66325750D01*
X147605750Y-66071750D02*
X149129750Y-66071750D01*
X147605750Y-61372750D02*
X147605750Y-66452750D01*
X149129750Y-65944750D02*
X147605750Y-65944750D01*
X147605750Y-65690750D02*
X149129750Y-65690750D01*
X147605750Y-66452750D02*
X149129750Y-66452750D01*
X147605750Y-85121750D02*
X149129750Y-85121750D01*
X149129750Y-80422750D02*
X147605750Y-80422750D01*
X149129750Y-84994750D02*
X147605750Y-84994750D01*
X149129750Y-85502750D02*
X149129750Y-80422750D01*
X149129750Y-85248750D02*
X147605750Y-85248750D01*
X147605750Y-85502750D02*
X149129750Y-85502750D01*
X147605750Y-85375750D02*
X149129750Y-85375750D01*
X147605750Y-80422750D02*
X147605750Y-85502750D01*
X147605750Y-84740750D02*
X149129750Y-84740750D01*
X147605750Y-84867750D02*
X149129750Y-84867750D01*
X168179750Y-27844750D02*
X166655750Y-27844750D01*
X168179750Y-28352750D02*
X168179750Y-23272750D01*
X166655750Y-28352750D02*
X168179750Y-28352750D01*
X166655750Y-23272750D02*
X166655750Y-28352750D01*
X166655750Y-27590750D02*
X168179750Y-27590750D01*
X166655750Y-27717750D02*
X168179750Y-27717750D01*
X168179750Y-23272750D02*
X166655750Y-23272750D01*
X166655750Y-27971750D02*
X168179750Y-27971750D01*
X166655750Y-28225750D02*
X168179750Y-28225750D01*
X168179750Y-28098750D02*
X166655750Y-28098750D01*
X166655750Y-47021750D02*
X168179750Y-47021750D01*
X168179750Y-46894750D02*
X166655750Y-46894750D01*
X166655750Y-47275750D02*
X168179750Y-47275750D01*
X166655750Y-46640750D02*
X168179750Y-46640750D01*
X168179750Y-47402750D02*
X168179750Y-42322750D01*
X168179750Y-47148750D02*
X166655750Y-47148750D01*
X166655750Y-47402750D02*
X168179750Y-47402750D01*
X166655750Y-42322750D02*
X166655750Y-47402750D01*
X168179750Y-42322750D02*
X166655750Y-42322750D01*
X166655750Y-46767750D02*
X168179750Y-46767750D01*
X168179750Y-65944750D02*
X166655750Y-65944750D01*
X166655750Y-66325750D02*
X168179750Y-66325750D01*
X168179750Y-61372750D02*
X166655750Y-61372750D01*
X166655750Y-66452750D02*
X168179750Y-66452750D01*
X166655750Y-61372750D02*
X166655750Y-66452750D01*
X168179750Y-66452750D02*
X168179750Y-61372750D01*
X168179750Y-66198750D02*
X166655750Y-66198750D01*
X166655750Y-65690750D02*
X168179750Y-65690750D01*
X166655750Y-66071750D02*
X168179750Y-66071750D01*
X166655750Y-65817750D02*
X168179750Y-65817750D01*
X168179750Y-80422750D02*
X166655750Y-80422750D01*
X168179750Y-84994750D02*
X166655750Y-84994750D01*
X166655750Y-85375750D02*
X168179750Y-85375750D01*
X166655750Y-84867750D02*
X168179750Y-84867750D01*
X168179750Y-85502750D02*
X168179750Y-80422750D01*
X166655750Y-80422750D02*
X166655750Y-85502750D01*
X166655750Y-84740750D02*
X168179750Y-84740750D01*
X168179750Y-85248750D02*
X166655750Y-85248750D01*
X166655750Y-85502750D02*
X168179750Y-85502750D01*
X166655750Y-85121750D02*
X168179750Y-85121750D01*
X187229750Y-23272750D02*
X185705750Y-23272750D01*
X185705750Y-23272750D02*
X185705750Y-28352750D01*
X185705750Y-27590750D02*
X187229750Y-27590750D01*
X185705750Y-28352750D02*
X187229750Y-28352750D01*
X187229750Y-28352750D02*
X187229750Y-23272750D01*
X187229750Y-27844750D02*
X185705750Y-27844750D01*
X187229750Y-28098750D02*
X185705750Y-28098750D01*
X185705750Y-28225750D02*
X187229750Y-28225750D01*
X185705750Y-27971750D02*
X187229750Y-27971750D01*
X185705750Y-27717750D02*
X187229750Y-27717750D01*
X185705750Y-47402750D02*
X187229750Y-47402750D01*
X185705750Y-46767750D02*
X187229750Y-46767750D01*
X185705750Y-42322750D02*
X185705750Y-47402750D01*
X185705750Y-47021750D02*
X187229750Y-47021750D01*
X187229750Y-42322750D02*
X185705750Y-42322750D01*
X187229750Y-47402750D02*
X187229750Y-42322750D01*
X187229750Y-47148750D02*
X185705750Y-47148750D01*
X185705750Y-47275750D02*
X187229750Y-47275750D01*
X187229750Y-46894750D02*
X185705750Y-46894750D01*
X185705750Y-46640750D02*
X187229750Y-46640750D01*
X185705750Y-66452750D02*
X187229750Y-66452750D01*
X185705750Y-66071750D02*
X187229750Y-66071750D01*
X185705750Y-65690750D02*
X187229750Y-65690750D01*
X185705750Y-66325750D02*
X187229750Y-66325750D01*
X185705750Y-61372750D02*
X185705750Y-66452750D01*
X187229750Y-61372750D02*
X185705750Y-61372750D01*
X187229750Y-66198750D02*
X185705750Y-66198750D01*
X185705750Y-65817750D02*
X187229750Y-65817750D01*
X187229750Y-65944750D02*
X185705750Y-65944750D01*
X187229750Y-66452750D02*
X187229750Y-61372750D01*
X185705750Y-85375750D02*
X187229750Y-85375750D01*
X187229750Y-84994750D02*
X185705750Y-84994750D01*
X187229750Y-85502750D02*
X187229750Y-80422750D01*
X185705750Y-84867750D02*
X187229750Y-84867750D01*
X187229750Y-80422750D02*
X185705750Y-80422750D01*
X185705750Y-85502750D02*
X187229750Y-85502750D01*
X185705750Y-84740750D02*
X187229750Y-84740750D01*
X187229750Y-85248750D02*
X185705750Y-85248750D01*
X185705750Y-80422750D02*
X185705750Y-85502750D01*
X185705750Y-85121750D02*
X187229750Y-85121750D01*
X188499750Y-27717750D02*
X190023750Y-27717750D01*
X190023750Y-27844750D02*
X188499750Y-27844750D01*
X190023750Y-23272750D02*
X188499750Y-23272750D01*
X188499750Y-28225750D02*
X190023750Y-28225750D01*
X188499750Y-23272750D02*
X188499750Y-28352750D01*
X190023750Y-28098750D02*
X188499750Y-28098750D01*
X188499750Y-27590750D02*
X190023750Y-27590750D01*
X188499750Y-27971750D02*
X190023750Y-27971750D01*
X188499750Y-28352750D02*
X190023750Y-28352750D01*
X190023750Y-28352750D02*
X190023750Y-23272750D01*
X190023750Y-46894750D02*
X188499750Y-46894750D01*
X188499750Y-46767750D02*
X190023750Y-46767750D01*
X188499750Y-47275750D02*
X190023750Y-47275750D01*
X188499750Y-42322750D02*
X188499750Y-47402750D01*
X190023750Y-42322750D02*
X188499750Y-42322750D01*
X188499750Y-47021750D02*
X190023750Y-47021750D01*
X188499750Y-46640750D02*
X190023750Y-46640750D01*
X190023750Y-47148750D02*
X188499750Y-47148750D01*
X190023750Y-47402750D02*
X190023750Y-42322750D01*
X188499750Y-47402750D02*
X190023750Y-47402750D01*
X188499750Y-61372750D02*
X188499750Y-66452750D01*
X190023750Y-66452750D02*
X190023750Y-61372750D01*
X190023750Y-65944750D02*
X188499750Y-65944750D01*
X190023750Y-66198750D02*
X188499750Y-66198750D01*
X188499750Y-65690750D02*
X190023750Y-65690750D01*
X188499750Y-65817750D02*
X190023750Y-65817750D01*
X190023750Y-61372750D02*
X188499750Y-61372750D01*
X188499750Y-66452750D02*
X190023750Y-66452750D01*
X188499750Y-66325750D02*
X190023750Y-66325750D01*
X188499750Y-66071750D02*
X190023750Y-66071750D01*
X188499750Y-85375750D02*
X190023750Y-85375750D01*
X190023750Y-85248750D02*
X188499750Y-85248750D01*
X190023750Y-80422750D02*
X188499750Y-80422750D01*
X188499750Y-85502750D02*
X190023750Y-85502750D01*
X188499750Y-84740750D02*
X190023750Y-84740750D01*
X188499750Y-80422750D02*
X188499750Y-85502750D01*
X190023750Y-85502750D02*
X190023750Y-80422750D01*
X190023750Y-84994750D02*
X188499750Y-84994750D01*
X188499750Y-84867750D02*
X190023750Y-84867750D01*
X188499750Y-85121750D02*
X190023750Y-85121750D01*
D11*
X53879750Y-17430750D02*
X36099750Y-17430750D01*
X53879750Y-50450750D02*
X53879750Y-17430750D01*
X38639750Y-19970750D02*
X36099750Y-19970750D01*
X38639750Y-22510750D02*
X36099750Y-22510750D01*
X38639750Y-19970750D02*
X38639750Y-22510750D01*
X36099750Y-17430750D02*
X36099750Y-50450750D01*
X36099750Y-50450750D02*
X53879750Y-50450750D01*
D10*
X50834385Y-26459780D02*
X50834385Y-26659780D01*
X50834385Y-26659780D02*
X50934385Y-26659780D01*
X50934385Y-26659780D02*
X50934385Y-26459780D01*
X50934385Y-26459780D02*
X50834385Y-26459780D01*
G36*
X50934385Y-26659780D02*
G01*
X50834385Y-26659780D01*
X50834385Y-26459780D01*
X50934385Y-26459780D01*
X50934385Y-26659780D01*
G37*
X50934385Y-26659780D02*
X50834385Y-26659780D01*
X50834385Y-26459780D01*
X50934385Y-26459780D01*
X50934385Y-26659780D01*
X50834385Y-25859780D02*
X50834385Y-25959780D01*
X50834385Y-25959780D02*
X51334385Y-25959780D01*
X51334385Y-25959780D02*
X51334385Y-25859780D01*
X51334385Y-25859780D02*
X50834385Y-25859780D01*
G36*
X51334385Y-25959780D02*
G01*
X50834385Y-25959780D01*
X50834385Y-25859780D01*
X51334385Y-25859780D01*
X51334385Y-25959780D01*
G37*
X51334385Y-25959780D02*
X50834385Y-25959780D01*
X50834385Y-25859780D01*
X51334385Y-25859780D01*
X51334385Y-25959780D01*
X51234385Y-25859780D02*
X51234385Y-26659780D01*
X51234385Y-26659780D02*
X51334385Y-26659780D01*
X51334385Y-26659780D02*
X51334385Y-25859780D01*
X51334385Y-25859780D02*
X51234385Y-25859780D01*
G36*
X51334385Y-26659780D02*
G01*
X51234385Y-26659780D01*
X51234385Y-25859780D01*
X51334385Y-25859780D01*
X51334385Y-26659780D01*
G37*
X51334385Y-26659780D02*
X51234385Y-26659780D01*
X51234385Y-25859780D01*
X51334385Y-25859780D01*
X51334385Y-26659780D01*
X51034385Y-26259780D02*
X51034385Y-26359780D01*
X51034385Y-26359780D02*
X51134385Y-26359780D01*
X51134385Y-26359780D02*
X51134385Y-26259780D01*
X51134385Y-26259780D02*
X51034385Y-26259780D01*
G36*
X51134385Y-26359780D02*
G01*
X51034385Y-26359780D01*
X51034385Y-26259780D01*
X51134385Y-26259780D01*
X51134385Y-26359780D01*
G37*
X51134385Y-26359780D02*
X51034385Y-26359780D01*
X51034385Y-26259780D01*
X51134385Y-26259780D01*
X51134385Y-26359780D01*
X50834385Y-25859780D02*
X50834385Y-26159780D01*
X50834385Y-26159780D02*
X50934385Y-26159780D01*
X50934385Y-26159780D02*
X50934385Y-25859780D01*
X50934385Y-25859780D02*
X50834385Y-25859780D01*
G36*
X50934385Y-26159780D02*
G01*
X50834385Y-26159780D01*
X50834385Y-25859780D01*
X50934385Y-25859780D01*
X50934385Y-26159780D01*
G37*
X50934385Y-26159780D02*
X50834385Y-26159780D01*
X50834385Y-25859780D01*
X50934385Y-25859780D01*
X50934385Y-26159780D01*
D12*
X60415000Y-37411000D02*
X59965000Y-37861000D01*
X55965000Y-34111000D02*
X55965000Y-36111000D01*
X59965000Y-32361000D02*
X57465000Y-32361000D01*
X57015000Y-37411000D02*
X57465000Y-37861000D01*
X61465000Y-34111000D02*
X61465000Y-36111000D01*
X60415000Y-32811000D02*
X59965000Y-32361000D01*
X59965000Y-37861000D02*
X57465000Y-37861000D01*
X57015000Y-32811000D02*
X57465000Y-32361000D01*
D13*
X37369750Y-21240750D03*
D14*
X37369750Y-23780750D03*
X37369750Y-26320750D03*
X37369750Y-28860750D03*
X37369750Y-31400750D03*
X37369750Y-33940750D03*
X37369750Y-36480750D03*
X37369750Y-39020750D03*
X37369750Y-41560750D03*
X37369750Y-44100750D03*
X37369750Y-46640750D03*
X37369750Y-49180750D03*
X52609750Y-49180750D03*
X52609750Y-46640750D03*
X52609750Y-44100750D03*
X52609750Y-41560750D03*
X52609750Y-39020750D03*
X52609750Y-36480750D03*
X52609750Y-33940750D03*
X52609750Y-31400750D03*
X52609750Y-28860750D03*
X52609750Y-26320750D03*
X52609750Y-23780750D03*
X52609750Y-21240750D03*
%LPC*%
D15*
X34067750Y-27212750D03*
D16*
X34067750Y-29712750D03*
D17*
X34067750Y-21912750D03*
D15*
X34067750Y-24412750D03*
D16*
X34067750Y-48762750D03*
D15*
X34067750Y-46262750D03*
X34067750Y-43462750D03*
D17*
X34067750Y-40962750D03*
D16*
X34067750Y-67812750D03*
D15*
X34067750Y-65312750D03*
X34067750Y-62512750D03*
D17*
X34067750Y-60012750D03*
D15*
X34067750Y-84362750D03*
D16*
X34067750Y-86862750D03*
D15*
X34067750Y-81562750D03*
D17*
X34067750Y-79062750D03*
D15*
X55911750Y-27212750D03*
D16*
X55911750Y-29712750D03*
D15*
X55911750Y-24412750D03*
D17*
X55911750Y-21912750D03*
D16*
X55911750Y-48762750D03*
D15*
X55911750Y-46262750D03*
D17*
X55911750Y-40962750D03*
D15*
X55911750Y-43462750D03*
X55911750Y-65312750D03*
D16*
X55911750Y-67812750D03*
D15*
X55911750Y-62512750D03*
D17*
X55911750Y-60012750D03*
D15*
X55911750Y-84362750D03*
D16*
X55911750Y-86862750D03*
D15*
X55911750Y-81562750D03*
D17*
X55911750Y-79062750D03*
D15*
X72167750Y-27212750D03*
D16*
X72167750Y-29712750D03*
D17*
X72167750Y-21912750D03*
D15*
X72167750Y-24412750D03*
D16*
X72167750Y-48762750D03*
D15*
X72167750Y-46262750D03*
X72167750Y-43462750D03*
D17*
X72167750Y-40962750D03*
D15*
X72167750Y-65312750D03*
D16*
X72167750Y-67812750D03*
D15*
X72167750Y-62512750D03*
D17*
X72167750Y-60012750D03*
D16*
X72167750Y-86862750D03*
D15*
X72167750Y-84362750D03*
X72167750Y-81562750D03*
D17*
X72167750Y-79062750D03*
D15*
X91217750Y-27212750D03*
D16*
X91217750Y-29712750D03*
D17*
X91217750Y-21912750D03*
D15*
X91217750Y-24412750D03*
D16*
X91217750Y-48762750D03*
D15*
X91217750Y-46262750D03*
D17*
X91217750Y-40962750D03*
D15*
X91217750Y-43462750D03*
D16*
X91217750Y-67812750D03*
D15*
X91217750Y-65312750D03*
D17*
X91217750Y-60012750D03*
D15*
X91217750Y-62512750D03*
X75000000Y-84362750D03*
D16*
X75000000Y-86862750D03*
D15*
X75000000Y-81562750D03*
D17*
X75000000Y-79062750D03*
D15*
X110267750Y-27212750D03*
D16*
X110267750Y-29712750D03*
D15*
X110267750Y-24412750D03*
D17*
X110267750Y-21912750D03*
D16*
X110267750Y-48762750D03*
D15*
X110267750Y-46262750D03*
X110267750Y-43462750D03*
D17*
X110267750Y-40962750D03*
D15*
X110267750Y-65312750D03*
D16*
X110267750Y-67812750D03*
D15*
X110267750Y-62512750D03*
D17*
X110267750Y-60012750D03*
D16*
X110267750Y-86862750D03*
D15*
X110267750Y-84362750D03*
X110267750Y-81562750D03*
D17*
X110267750Y-79062750D03*
D16*
X129317750Y-29712750D03*
D15*
X129317750Y-27212750D03*
X129317750Y-24412750D03*
D17*
X129317750Y-21912750D03*
D16*
X129317750Y-48762750D03*
D15*
X129317750Y-46262750D03*
X129317750Y-43462750D03*
D17*
X129317750Y-40962750D03*
D16*
X129317750Y-67812750D03*
D15*
X129317750Y-65312750D03*
X129317750Y-62512750D03*
D17*
X129317750Y-60012750D03*
D15*
X113100000Y-84362750D03*
D16*
X113100000Y-86862750D03*
D15*
X113100000Y-81562750D03*
D17*
X113100000Y-79062750D03*
D15*
X148367750Y-27212750D03*
D16*
X148367750Y-29712750D03*
D15*
X148367750Y-24412750D03*
D17*
X148367750Y-21912750D03*
D16*
X148367750Y-48762750D03*
D15*
X148367750Y-46262750D03*
X148367750Y-43462750D03*
D17*
X148367750Y-40962750D03*
D16*
X148367750Y-67812750D03*
D15*
X148367750Y-65312750D03*
D17*
X148367750Y-60012750D03*
D15*
X148367750Y-62512750D03*
X148367750Y-84362750D03*
D16*
X148367750Y-86862750D03*
D15*
X148367750Y-81562750D03*
D17*
X148367750Y-79062750D03*
D16*
X167417750Y-29712750D03*
D15*
X167417750Y-27212750D03*
X167417750Y-24412750D03*
D17*
X167417750Y-21912750D03*
D15*
X167417750Y-46262750D03*
D16*
X167417750Y-48762750D03*
D17*
X167417750Y-40962750D03*
D15*
X167417750Y-43462750D03*
X167417750Y-65312750D03*
D16*
X167417750Y-67812750D03*
D17*
X167417750Y-60012750D03*
D15*
X167417750Y-62512750D03*
X167417750Y-84362750D03*
D16*
X167417750Y-86862750D03*
D17*
X167417750Y-79062750D03*
D15*
X167417750Y-81562750D03*
D16*
X186467750Y-29712750D03*
D15*
X186467750Y-27212750D03*
X186467750Y-24412750D03*
D17*
X186467750Y-21912750D03*
D15*
X186467750Y-46262750D03*
D16*
X186467750Y-48762750D03*
D17*
X186467750Y-40962750D03*
D15*
X186467750Y-43462750D03*
D16*
X186467750Y-67812750D03*
D15*
X186467750Y-65312750D03*
D17*
X186467750Y-60012750D03*
D15*
X186467750Y-62512750D03*
X186467750Y-84362750D03*
D16*
X186467750Y-86862750D03*
D15*
X186467750Y-81562750D03*
D17*
X186467750Y-79062750D03*
D16*
X189261750Y-29712750D03*
D15*
X189261750Y-27212750D03*
X189261750Y-24412750D03*
D17*
X189261750Y-21912750D03*
D16*
X189261750Y-48762750D03*
D15*
X189261750Y-46262750D03*
D17*
X189261750Y-40962750D03*
D15*
X189261750Y-43462750D03*
D16*
X189261750Y-67812750D03*
D15*
X189261750Y-65312750D03*
D17*
X189261750Y-60012750D03*
D15*
X189261750Y-62512750D03*
D16*
X189261750Y-86862750D03*
D15*
X189261750Y-84362750D03*
X189261750Y-81562750D03*
D17*
X189261750Y-79062750D03*
D18*
X20859750Y-25685750D03*
X31019750Y-25685750D03*
D19*
X25939750Y-25685750D03*
D20*
X22129750Y-23145750D03*
X28479750Y-20605750D03*
D18*
X20859750Y-44735750D03*
X31019750Y-44735750D03*
D19*
X25939750Y-44735750D03*
D20*
X22129750Y-42195750D03*
X28479750Y-39655750D03*
D19*
X25939750Y-63785750D03*
D18*
X31019750Y-63785750D03*
X20859750Y-63785750D03*
D20*
X22129750Y-61245750D03*
X28479750Y-58705750D03*
D18*
X31019750Y-82835750D03*
X20859750Y-82835750D03*
D19*
X25939750Y-82835750D03*
D20*
X22129750Y-80295750D03*
X28479750Y-77755750D03*
D18*
X50069750Y-25685750D03*
X39909750Y-25685750D03*
D19*
X44989750Y-25685750D03*
D20*
X48799750Y-28225750D03*
X42449750Y-30765750D03*
D18*
X39909750Y-44735750D03*
X50069750Y-44735750D03*
D19*
X44989750Y-44735750D03*
D20*
X41179750Y-42195750D03*
X47529750Y-39655750D03*
D18*
X39909750Y-63785750D03*
D19*
X44989750Y-63785750D03*
D18*
X50069750Y-63785750D03*
D20*
X41179750Y-61245750D03*
X47529750Y-58705750D03*
D19*
X44989750Y-82835750D03*
D18*
X39909750Y-82835750D03*
X50069750Y-82835750D03*
D20*
X41179750Y-80295750D03*
X47529750Y-77755750D03*
D18*
X69119750Y-25685750D03*
D19*
X64039750Y-25685750D03*
D18*
X58959750Y-25685750D03*
D20*
X60229750Y-23145750D03*
X66579750Y-20605750D03*
D18*
X69119750Y-44735750D03*
X58959750Y-44735750D03*
D19*
X64039750Y-44735750D03*
D20*
X60229750Y-42195750D03*
X66579750Y-39655750D03*
D19*
X64039750Y-63785750D03*
D18*
X58959750Y-63785750D03*
X69119750Y-63785750D03*
D20*
X60229750Y-61245750D03*
X66579750Y-58705750D03*
D18*
X69119750Y-82835750D03*
D19*
X64039750Y-82835750D03*
D18*
X58959750Y-82835750D03*
D20*
X60229750Y-80295750D03*
X66579750Y-77755750D03*
D19*
X83089750Y-25685750D03*
D18*
X88169750Y-25685750D03*
X78009750Y-25685750D03*
D20*
X79279750Y-23145750D03*
X85629750Y-20605750D03*
D18*
X78009750Y-44735750D03*
D19*
X83089750Y-44735750D03*
D18*
X88169750Y-44735750D03*
D20*
X79279750Y-42195750D03*
X85629750Y-39655750D03*
D18*
X78009750Y-63785750D03*
X88169750Y-63785750D03*
D19*
X83089750Y-63785750D03*
D20*
X79279750Y-61245750D03*
X85629750Y-58705750D03*
D19*
X83089750Y-82835750D03*
D18*
X78009750Y-82835750D03*
D20*
X79279750Y-80295750D03*
X85629750Y-77755750D03*
D19*
X102139750Y-25685750D03*
D18*
X107219750Y-25685750D03*
X97059750Y-25685750D03*
D20*
X98329750Y-23145750D03*
X104679750Y-20605750D03*
X104679750Y-39655750D03*
X98329750Y-42195750D03*
D19*
X102139750Y-44735750D03*
D18*
X107219750Y-44735750D03*
X97059750Y-44735750D03*
X107219750Y-63785750D03*
X97059750Y-63785750D03*
D19*
X102139750Y-63785750D03*
D20*
X98329750Y-61245750D03*
X104679750Y-58705750D03*
D19*
X102139750Y-82835750D03*
D18*
X107219750Y-82835750D03*
D20*
X105949750Y-85375750D03*
X99599750Y-87915750D03*
D18*
X126269750Y-25685750D03*
X116109750Y-25685750D03*
D19*
X121189750Y-25685750D03*
D20*
X117379750Y-23145750D03*
X123729750Y-20605750D03*
D19*
X121189750Y-44735750D03*
D18*
X126269750Y-44735750D03*
X116109750Y-44735750D03*
D20*
X117379750Y-42195750D03*
X123729750Y-39655750D03*
D19*
X121189750Y-63785750D03*
D18*
X116109750Y-63785750D03*
X126269750Y-63785750D03*
D20*
X117379750Y-61245750D03*
X123729750Y-58705750D03*
D18*
X116109750Y-82835750D03*
D19*
X121189750Y-82835750D03*
D20*
X117379750Y-80295750D03*
X123729750Y-77755750D03*
D18*
X145319750Y-25685750D03*
D19*
X140239750Y-25685750D03*
D18*
X135159750Y-25685750D03*
D20*
X136429750Y-23145750D03*
X142779750Y-20605750D03*
X142779750Y-39655750D03*
X136429750Y-42195750D03*
D18*
X135159750Y-44735750D03*
D19*
X140239750Y-44735750D03*
D18*
X145319750Y-44735750D03*
D20*
X142779750Y-58705750D03*
X136429750Y-61245750D03*
D19*
X140239750Y-63785750D03*
D18*
X145319750Y-63785750D03*
X135159750Y-63785750D03*
D19*
X140239750Y-82835750D03*
D18*
X145319750Y-82835750D03*
D20*
X144049750Y-85375750D03*
X137699750Y-87915750D03*
D18*
X154209750Y-25685750D03*
X164369750Y-25685750D03*
D19*
X159289750Y-25685750D03*
D20*
X155479750Y-23145750D03*
X161829750Y-20605750D03*
D19*
X159289750Y-44735750D03*
D18*
X154209750Y-44735750D03*
X164369750Y-44735750D03*
D20*
X155479750Y-42195750D03*
X161829750Y-39655750D03*
X161829750Y-58705750D03*
X155479750Y-61245750D03*
D18*
X164369750Y-63785750D03*
D19*
X159289750Y-63785750D03*
D18*
X154209750Y-63785750D03*
X164369750Y-82835750D03*
D19*
X159289750Y-82835750D03*
D18*
X154209750Y-82835750D03*
D20*
X155479750Y-80295750D03*
X161829750Y-77755750D03*
D18*
X173259750Y-25685750D03*
X183419750Y-25685750D03*
D19*
X178339750Y-25685750D03*
D20*
X174529750Y-23145750D03*
X180879750Y-20605750D03*
D18*
X183419750Y-44735750D03*
D19*
X178339750Y-44735750D03*
D18*
X173259750Y-44735750D03*
D20*
X174529750Y-42195750D03*
X180879750Y-39655750D03*
D18*
X183419750Y-63785750D03*
X173259750Y-63785750D03*
D19*
X178339750Y-63785750D03*
D20*
X174529750Y-61245750D03*
X180879750Y-58705750D03*
D19*
X178339750Y-82835750D03*
D18*
X173259750Y-82835750D03*
X183419750Y-82835750D03*
D20*
X174529750Y-80295750D03*
X180879750Y-77755750D03*
D18*
X192309750Y-25685750D03*
X202469750Y-25685750D03*
D19*
X197389750Y-25685750D03*
D20*
X193579750Y-23145750D03*
X199929750Y-20605750D03*
D18*
X202469750Y-44735750D03*
D19*
X197389750Y-44735750D03*
D18*
X192309750Y-44735750D03*
D20*
X193579750Y-42195750D03*
X199929750Y-39655750D03*
D18*
X192309750Y-63785750D03*
X202469750Y-63785750D03*
D19*
X197389750Y-63785750D03*
D20*
X193579750Y-61245750D03*
X199929750Y-58705750D03*
D18*
X202469750Y-82835750D03*
D19*
X197389750Y-82835750D03*
D18*
X192309750Y-82835750D03*
D20*
X193579750Y-80295750D03*
X199929750Y-77755750D03*
D21*
X37369750Y-21240750D03*
D22*
X37369750Y-23780750D03*
X37369750Y-26320750D03*
X37369750Y-28860750D03*
X37369750Y-31400750D03*
X37369750Y-33940750D03*
X37369750Y-36480750D03*
X37369750Y-39020750D03*
X37369750Y-41560750D03*
X37369750Y-44100750D03*
X37369750Y-46640750D03*
X37369750Y-49180750D03*
X52609750Y-49180750D03*
X52609750Y-46640750D03*
X52609750Y-44100750D03*
X52609750Y-41560750D03*
X52609750Y-39020750D03*
X52609750Y-36480750D03*
X52609750Y-33940750D03*
X52609750Y-31400750D03*
X52609750Y-28860750D03*
X52609750Y-26320750D03*
X52609750Y-23780750D03*
X52609750Y-21240750D03*
D23*
X33528000Y-35179000D03*
X35306000Y-73279000D03*
X187960000Y-73279000D03*
X111633000Y-54229000D03*
X187833000Y-35179000D03*
D24*
X92600000Y-82800000D03*
D25*
X87860000Y-82800000D03*
D26*
X80700000Y-89800000D03*
X104500000Y-89800000D03*
D24*
X80700000Y-74560000D03*
X104500000Y-74560000D03*
D25*
X97340000Y-82800000D03*
D27*
X90060000Y-87880000D03*
X96410000Y-85340000D03*
D25*
X135440000Y-82800000D03*
X125960000Y-82800000D03*
D24*
X130700000Y-82800000D03*
X142600000Y-74560000D03*
D26*
X142600000Y-89800000D03*
D24*
X118800000Y-74560000D03*
D26*
X118800000Y-89800000D03*
D27*
X128160000Y-87880000D03*
X134510000Y-85340000D03*
D28*
X55565000Y-33211000D03*
X61865000Y-33211000D03*
X55565000Y-37011000D03*
X61865000Y-37011000D03*
M02*
