M48
; DRILL file {KiCad (6.0.0)} date Wed Feb  8 23:18:47 2023
; FORMAT={-:-/ absolute / metric / decimal}
; #@! TF.CreationDate,2023-02-08T23:18:47+02:00
; #@! TF.GenerationSoftware,Kicad,Pcbnew,(6.0.0)
; #@! TF.FileFunction,NonPlated,1,2,NPTH
FMAT,2
METRIC
; #@! TA.AperFunction,NonPlated,NPTH,ComponentDrill
T1C1.750
; #@! TA.AperFunction,NonPlated,NPTH,ComponentDrill
T2C3.050
; #@! TA.AperFunction,NonPlated,NPTH,ComponentDrill
T3C3.988
; #@! TA.AperFunction,NonPlated,NPTH,ComponentDrill
T4C4.000
%
G90
G05
T1
X20.86Y-25.686
X20.86Y-44.736
X20.86Y-63.786
X20.86Y-82.836
X31.02Y-25.686
X31.02Y-44.736
X31.02Y-63.786
X31.02Y-82.836
X39.91Y-25.686
X39.91Y-44.736
X39.91Y-63.786
X39.91Y-82.836
X50.07Y-25.686
X50.07Y-44.736
X50.07Y-63.786
X50.07Y-82.836
X58.96Y-25.686
X58.96Y-44.736
X58.96Y-63.786
X58.96Y-82.836
X69.12Y-25.686
X69.12Y-44.736
X69.12Y-63.786
X69.12Y-82.836
X78.01Y-25.686
X78.01Y-44.736
X78.01Y-63.786
X78.01Y-82.836
X88.17Y-25.686
X88.17Y-44.736
X88.17Y-63.786
X97.06Y-25.686
X97.06Y-44.736
X97.06Y-63.786
X107.22Y-25.686
X107.22Y-44.736
X107.22Y-63.786
X107.22Y-82.836
X116.11Y-25.686
X116.11Y-44.736
X116.11Y-63.786
X116.11Y-82.836
X126.27Y-25.686
X126.27Y-44.736
X126.27Y-63.786
X135.16Y-25.686
X135.16Y-44.736
X135.16Y-63.786
X145.32Y-25.686
X145.32Y-44.736
X145.32Y-63.786
X145.32Y-82.836
X154.21Y-25.686
X154.21Y-44.736
X154.21Y-63.786
X154.21Y-82.836
X164.37Y-25.686
X164.37Y-44.736
X164.37Y-63.786
X164.37Y-82.836
X173.26Y-25.686
X173.26Y-44.736
X173.26Y-63.786
X173.26Y-82.836
X183.42Y-25.686
X183.42Y-44.736
X183.42Y-63.786
X183.42Y-82.836
X192.31Y-25.686
X192.31Y-44.736
X192.31Y-63.786
X192.31Y-82.836
X202.47Y-25.686
X202.47Y-44.736
X202.47Y-63.786
X202.47Y-82.836
T2
X80.7Y-89.8
X104.5Y-89.8
X118.8Y-89.8
X142.6Y-89.8
T3
X25.94Y-25.686
X25.94Y-44.736
X25.94Y-63.786
X25.94Y-82.836
X44.99Y-25.686
X44.99Y-44.736
X44.99Y-63.786
X44.99Y-82.836
X64.04Y-25.686
X64.04Y-44.736
X64.04Y-63.786
X64.04Y-82.836
X83.09Y-25.686
X83.09Y-44.736
X83.09Y-63.786
X83.09Y-82.836
X102.14Y-25.686
X102.14Y-44.736
X102.14Y-63.786
X102.14Y-82.836
X121.19Y-25.686
X121.19Y-44.736
X121.19Y-63.786
X121.19Y-82.836
X140.24Y-25.686
X140.24Y-44.736
X140.24Y-63.786
X140.24Y-82.836
X159.29Y-25.686
X159.29Y-44.736
X159.29Y-63.786
X159.29Y-82.836
X178.34Y-25.686
X178.34Y-44.736
X178.34Y-63.786
X178.34Y-82.836
X197.39Y-25.686
X197.39Y-44.736
X197.39Y-63.786
X197.39Y-82.836
T4
X80.7Y-74.56
X92.6Y-82.8
X104.5Y-74.56
X118.8Y-74.56
X130.7Y-82.8
X142.6Y-74.56
T1
X88.175Y-82.8G85X87.545Y-82.8
G05
X97.655Y-82.8G85X97.025Y-82.8
G05
X126.275Y-82.8G85X125.645Y-82.8
G05
X135.755Y-82.8G85X135.125Y-82.8
G05
T0
M30
