%FSLAX45Y45*%
G04 Gerber Fmt 4.5, Leading zero omitted, Abs format (unit mm)*
G04 Created by KiCad (PCBNEW (6.0.0)) date 2023-02-08 23:19:00*
%MOMM*%
%LPD*%
G01*
G04 APERTURE LIST*
%TA.AperFunction,Profile*%
%ADD10C,0.050000*%
%TD*%
%ADD11C,0.200000*%
%ADD12C,0.175000*%
%ADD13C,0.305000*%
%ADD14C,0.398780*%
%ADD15C,0.400000*%
G04 APERTURE END LIST*
D10*
X1638300Y-1854200D02*
X1638300Y-8991600D01*
X1879600Y-9232900D02*
X20459700Y-9232900D01*
X20688300Y-9004300D02*
X20688300Y-1841500D01*
X20459700Y-1612900D02*
X1879600Y-1612900D01*
X1879600Y-1612900D02*
G75*
G03*
X1638300Y-1854200I0J-241300D01*
G01*
X20688300Y-1841500D02*
G75*
G03*
X20459700Y-1612900I-228600J0D01*
G01*
X20459700Y-9232900D02*
G75*
G03*
X20688300Y-9004300I0J228600D01*
G01*
X1638300Y-8991600D02*
G75*
G03*
X1879600Y-9232900I241300J0D01*
G01*
D11*
D12*
X1998475Y-2481075D02*
X2173475Y-2656075D01*
X2173475Y-2481075D02*
X1998475Y-2656075D01*
X1998475Y-4386075D02*
X2173475Y-4561075D01*
X2173475Y-4386075D02*
X1998475Y-4561075D01*
X1998475Y-6291075D02*
X2173475Y-6466075D01*
X2173475Y-6291075D02*
X1998475Y-6466075D01*
X1998475Y-8196075D02*
X2173475Y-8371075D01*
X2173475Y-8196075D02*
X1998475Y-8371075D01*
X3014475Y-2481075D02*
X3189475Y-2656075D01*
X3189475Y-2481075D02*
X3014475Y-2656075D01*
X3014475Y-4386075D02*
X3189475Y-4561075D01*
X3189475Y-4386075D02*
X3014475Y-4561075D01*
X3014475Y-6291075D02*
X3189475Y-6466075D01*
X3189475Y-6291075D02*
X3014475Y-6466075D01*
X3014475Y-8196075D02*
X3189475Y-8371075D01*
X3189475Y-8196075D02*
X3014475Y-8371075D01*
X3903475Y-2481075D02*
X4078475Y-2656075D01*
X4078475Y-2481075D02*
X3903475Y-2656075D01*
X3903475Y-4386075D02*
X4078475Y-4561075D01*
X4078475Y-4386075D02*
X3903475Y-4561075D01*
X3903475Y-6291075D02*
X4078475Y-6466075D01*
X4078475Y-6291075D02*
X3903475Y-6466075D01*
X3903475Y-8196075D02*
X4078475Y-8371075D01*
X4078475Y-8196075D02*
X3903475Y-8371075D01*
X4919475Y-2481075D02*
X5094475Y-2656075D01*
X5094475Y-2481075D02*
X4919475Y-2656075D01*
X4919475Y-4386075D02*
X5094475Y-4561075D01*
X5094475Y-4386075D02*
X4919475Y-4561075D01*
X4919475Y-6291075D02*
X5094475Y-6466075D01*
X5094475Y-6291075D02*
X4919475Y-6466075D01*
X4919475Y-8196075D02*
X5094475Y-8371075D01*
X5094475Y-8196075D02*
X4919475Y-8371075D01*
X5808475Y-2481075D02*
X5983475Y-2656075D01*
X5983475Y-2481075D02*
X5808475Y-2656075D01*
X5808475Y-4386075D02*
X5983475Y-4561075D01*
X5983475Y-4386075D02*
X5808475Y-4561075D01*
X5808475Y-6291075D02*
X5983475Y-6466075D01*
X5983475Y-6291075D02*
X5808475Y-6466075D01*
X5808475Y-8196075D02*
X5983475Y-8371075D01*
X5983475Y-8196075D02*
X5808475Y-8371075D01*
X6824475Y-2481075D02*
X6999475Y-2656075D01*
X6999475Y-2481075D02*
X6824475Y-2656075D01*
X6824475Y-4386075D02*
X6999475Y-4561075D01*
X6999475Y-4386075D02*
X6824475Y-4561075D01*
X6824475Y-6291075D02*
X6999475Y-6466075D01*
X6999475Y-6291075D02*
X6824475Y-6466075D01*
X6824475Y-8196075D02*
X6999475Y-8371075D01*
X6999475Y-8196075D02*
X6824475Y-8371075D01*
X7713475Y-2481075D02*
X7888475Y-2656075D01*
X7888475Y-2481075D02*
X7713475Y-2656075D01*
X7713475Y-4386075D02*
X7888475Y-4561075D01*
X7888475Y-4386075D02*
X7713475Y-4561075D01*
X7713475Y-6291075D02*
X7888475Y-6466075D01*
X7888475Y-6291075D02*
X7713475Y-6466075D01*
X7713475Y-8196075D02*
X7888475Y-8371075D01*
X7888475Y-8196075D02*
X7713475Y-8371075D01*
X8698500Y-8192500D02*
X8873500Y-8367500D01*
X8873500Y-8192500D02*
X8698500Y-8367500D01*
D11*
X8817500Y-8202500D02*
X8754500Y-8202500D01*
X8817500Y-8357500D02*
X8754500Y-8357500D01*
X8754500Y-8202500D02*
G75*
G03*
X8754500Y-8357500I0J-77500D01*
G01*
X8817500Y-8357500D02*
G75*
G03*
X8817500Y-8202500I0J77500D01*
G01*
D12*
X8729475Y-2481075D02*
X8904475Y-2656075D01*
X8904475Y-2481075D02*
X8729475Y-2656075D01*
X8729475Y-4386075D02*
X8904475Y-4561075D01*
X8904475Y-4386075D02*
X8729475Y-4561075D01*
X8729475Y-6291075D02*
X8904475Y-6466075D01*
X8904475Y-6291075D02*
X8729475Y-6466075D01*
X9618475Y-2481075D02*
X9793475Y-2656075D01*
X9793475Y-2481075D02*
X9618475Y-2656075D01*
X9618475Y-4386075D02*
X9793475Y-4561075D01*
X9793475Y-4386075D02*
X9618475Y-4561075D01*
X9618475Y-6291075D02*
X9793475Y-6466075D01*
X9793475Y-6291075D02*
X9618475Y-6466075D01*
X9646500Y-8192500D02*
X9821500Y-8367500D01*
X9821500Y-8192500D02*
X9646500Y-8367500D01*
D11*
X9765500Y-8202500D02*
X9702500Y-8202500D01*
X9765500Y-8357500D02*
X9702500Y-8357500D01*
X9702500Y-8202500D02*
G75*
G03*
X9702500Y-8357500I0J-77500D01*
G01*
X9765500Y-8357500D02*
G75*
G03*
X9765500Y-8202500I0J77500D01*
G01*
D12*
X10634475Y-2481075D02*
X10809475Y-2656075D01*
X10809475Y-2481075D02*
X10634475Y-2656075D01*
X10634475Y-4386075D02*
X10809475Y-4561075D01*
X10809475Y-4386075D02*
X10634475Y-4561075D01*
X10634475Y-6291075D02*
X10809475Y-6466075D01*
X10809475Y-6291075D02*
X10634475Y-6466075D01*
X10634475Y-8196075D02*
X10809475Y-8371075D01*
X10809475Y-8196075D02*
X10634475Y-8371075D01*
X11523475Y-2481075D02*
X11698475Y-2656075D01*
X11698475Y-2481075D02*
X11523475Y-2656075D01*
X11523475Y-4386075D02*
X11698475Y-4561075D01*
X11698475Y-4386075D02*
X11523475Y-4561075D01*
X11523475Y-6291075D02*
X11698475Y-6466075D01*
X11698475Y-6291075D02*
X11523475Y-6466075D01*
X11523475Y-8196075D02*
X11698475Y-8371075D01*
X11698475Y-8196075D02*
X11523475Y-8371075D01*
X12508500Y-8192500D02*
X12683500Y-8367500D01*
X12683500Y-8192500D02*
X12508500Y-8367500D01*
D11*
X12627500Y-8202500D02*
X12564500Y-8202500D01*
X12627500Y-8357500D02*
X12564500Y-8357500D01*
X12564500Y-8202500D02*
G75*
G03*
X12564500Y-8357500I0J-77500D01*
G01*
X12627500Y-8357500D02*
G75*
G03*
X12627500Y-8202500I0J77500D01*
G01*
D12*
X12539475Y-2481075D02*
X12714475Y-2656075D01*
X12714475Y-2481075D02*
X12539475Y-2656075D01*
X12539475Y-4386075D02*
X12714475Y-4561075D01*
X12714475Y-4386075D02*
X12539475Y-4561075D01*
X12539475Y-6291075D02*
X12714475Y-6466075D01*
X12714475Y-6291075D02*
X12539475Y-6466075D01*
X13428475Y-2481075D02*
X13603475Y-2656075D01*
X13603475Y-2481075D02*
X13428475Y-2656075D01*
X13428475Y-4386075D02*
X13603475Y-4561075D01*
X13603475Y-4386075D02*
X13428475Y-4561075D01*
X13428475Y-6291075D02*
X13603475Y-6466075D01*
X13603475Y-6291075D02*
X13428475Y-6466075D01*
X13456500Y-8192500D02*
X13631500Y-8367500D01*
X13631500Y-8192500D02*
X13456500Y-8367500D01*
D11*
X13575500Y-8202500D02*
X13512500Y-8202500D01*
X13575500Y-8357500D02*
X13512500Y-8357500D01*
X13512500Y-8202500D02*
G75*
G03*
X13512500Y-8357500I0J-77500D01*
G01*
X13575500Y-8357500D02*
G75*
G03*
X13575500Y-8202500I0J77500D01*
G01*
D12*
X14444475Y-2481075D02*
X14619475Y-2656075D01*
X14619475Y-2481075D02*
X14444475Y-2656075D01*
X14444475Y-4386075D02*
X14619475Y-4561075D01*
X14619475Y-4386075D02*
X14444475Y-4561075D01*
X14444475Y-6291075D02*
X14619475Y-6466075D01*
X14619475Y-6291075D02*
X14444475Y-6466075D01*
X14444475Y-8196075D02*
X14619475Y-8371075D01*
X14619475Y-8196075D02*
X14444475Y-8371075D01*
X15333475Y-2481075D02*
X15508475Y-2656075D01*
X15508475Y-2481075D02*
X15333475Y-2656075D01*
X15333475Y-4386075D02*
X15508475Y-4561075D01*
X15508475Y-4386075D02*
X15333475Y-4561075D01*
X15333475Y-6291075D02*
X15508475Y-6466075D01*
X15508475Y-6291075D02*
X15333475Y-6466075D01*
X15333475Y-8196075D02*
X15508475Y-8371075D01*
X15508475Y-8196075D02*
X15333475Y-8371075D01*
X16349475Y-2481075D02*
X16524475Y-2656075D01*
X16524475Y-2481075D02*
X16349475Y-2656075D01*
X16349475Y-4386075D02*
X16524475Y-4561075D01*
X16524475Y-4386075D02*
X16349475Y-4561075D01*
X16349475Y-6291075D02*
X16524475Y-6466075D01*
X16524475Y-6291075D02*
X16349475Y-6466075D01*
X16349475Y-8196075D02*
X16524475Y-8371075D01*
X16524475Y-8196075D02*
X16349475Y-8371075D01*
X17238475Y-2481075D02*
X17413475Y-2656075D01*
X17413475Y-2481075D02*
X17238475Y-2656075D01*
X17238475Y-4386075D02*
X17413475Y-4561075D01*
X17413475Y-4386075D02*
X17238475Y-4561075D01*
X17238475Y-6291075D02*
X17413475Y-6466075D01*
X17413475Y-6291075D02*
X17238475Y-6466075D01*
X17238475Y-8196075D02*
X17413475Y-8371075D01*
X17413475Y-8196075D02*
X17238475Y-8371075D01*
X18254475Y-2481075D02*
X18429475Y-2656075D01*
X18429475Y-2481075D02*
X18254475Y-2656075D01*
X18254475Y-4386075D02*
X18429475Y-4561075D01*
X18429475Y-4386075D02*
X18254475Y-4561075D01*
X18254475Y-6291075D02*
X18429475Y-6466075D01*
X18429475Y-6291075D02*
X18254475Y-6466075D01*
X18254475Y-8196075D02*
X18429475Y-8371075D01*
X18429475Y-8196075D02*
X18254475Y-8371075D01*
X19143475Y-2481075D02*
X19318475Y-2656075D01*
X19318475Y-2481075D02*
X19143475Y-2656075D01*
X19143475Y-4386075D02*
X19318475Y-4561075D01*
X19318475Y-4386075D02*
X19143475Y-4561075D01*
X19143475Y-6291075D02*
X19318475Y-6466075D01*
X19318475Y-6291075D02*
X19143475Y-6466075D01*
X19143475Y-8196075D02*
X19318475Y-8371075D01*
X19318475Y-8196075D02*
X19143475Y-8371075D01*
X20159475Y-2481075D02*
X20334475Y-2656075D01*
X20334475Y-2481075D02*
X20159475Y-2656075D01*
X20159475Y-4386075D02*
X20334475Y-4561075D01*
X20334475Y-4386075D02*
X20159475Y-4561075D01*
X20159475Y-6291075D02*
X20334475Y-6466075D01*
X20334475Y-6291075D02*
X20159475Y-6466075D01*
X20159475Y-8196075D02*
X20334475Y-8371075D01*
X20334475Y-8196075D02*
X20159475Y-8371075D01*
D13*
X8222500Y-8980000D02*
G75*
G03*
X8222500Y-8980000I-152500J0D01*
G01*
X10602500Y-8980000D02*
G75*
G03*
X10602500Y-8980000I-152500J0D01*
G01*
X12032500Y-8980000D02*
G75*
G03*
X12032500Y-8980000I-152500J0D01*
G01*
X14412500Y-8980000D02*
G75*
G03*
X14412500Y-8980000I-152500J0D01*
G01*
D14*
X2593975Y-2369185D02*
X2593975Y-2767965D01*
X2394585Y-2568575D02*
X2793365Y-2568575D01*
X2593975Y-4274185D02*
X2593975Y-4672965D01*
X2394585Y-4473575D02*
X2793365Y-4473575D01*
X2593975Y-6179185D02*
X2593975Y-6577965D01*
X2394585Y-6378575D02*
X2793365Y-6378575D01*
X2593975Y-8084185D02*
X2593975Y-8482965D01*
X2394585Y-8283575D02*
X2793365Y-8283575D01*
X4498975Y-2369185D02*
X4498975Y-2767965D01*
X4299585Y-2568575D02*
X4698365Y-2568575D01*
X4498975Y-4274185D02*
X4498975Y-4672965D01*
X4299585Y-4473575D02*
X4698365Y-4473575D01*
X4498975Y-6179185D02*
X4498975Y-6577965D01*
X4299585Y-6378575D02*
X4698365Y-6378575D01*
X4498975Y-8084185D02*
X4498975Y-8482965D01*
X4299585Y-8283575D02*
X4698365Y-8283575D01*
X6403975Y-2369185D02*
X6403975Y-2767965D01*
X6204585Y-2568575D02*
X6603365Y-2568575D01*
X6403975Y-4274185D02*
X6403975Y-4672965D01*
X6204585Y-4473575D02*
X6603365Y-4473575D01*
X6403975Y-6179185D02*
X6403975Y-6577965D01*
X6204585Y-6378575D02*
X6603365Y-6378575D01*
X6403975Y-8084185D02*
X6403975Y-8482965D01*
X6204585Y-8283575D02*
X6603365Y-8283575D01*
X8308975Y-2369185D02*
X8308975Y-2767965D01*
X8109585Y-2568575D02*
X8508365Y-2568575D01*
X8308975Y-4274185D02*
X8308975Y-4672965D01*
X8109585Y-4473575D02*
X8508365Y-4473575D01*
X8308975Y-6179185D02*
X8308975Y-6577965D01*
X8109585Y-6378575D02*
X8508365Y-6378575D01*
X8308975Y-8084185D02*
X8308975Y-8482965D01*
X8109585Y-8283575D02*
X8508365Y-8283575D01*
X10213975Y-2369185D02*
X10213975Y-2767965D01*
X10014585Y-2568575D02*
X10413365Y-2568575D01*
X10213975Y-4274185D02*
X10213975Y-4672965D01*
X10014585Y-4473575D02*
X10413365Y-4473575D01*
X10213975Y-6179185D02*
X10213975Y-6577965D01*
X10014585Y-6378575D02*
X10413365Y-6378575D01*
X10213975Y-8084185D02*
X10213975Y-8482965D01*
X10014585Y-8283575D02*
X10413365Y-8283575D01*
X12118975Y-2369185D02*
X12118975Y-2767965D01*
X11919585Y-2568575D02*
X12318365Y-2568575D01*
X12118975Y-4274185D02*
X12118975Y-4672965D01*
X11919585Y-4473575D02*
X12318365Y-4473575D01*
X12118975Y-6179185D02*
X12118975Y-6577965D01*
X11919585Y-6378575D02*
X12318365Y-6378575D01*
X12118975Y-8084185D02*
X12118975Y-8482965D01*
X11919585Y-8283575D02*
X12318365Y-8283575D01*
X14023975Y-2369185D02*
X14023975Y-2767965D01*
X13824585Y-2568575D02*
X14223365Y-2568575D01*
X14023975Y-4274185D02*
X14023975Y-4672965D01*
X13824585Y-4473575D02*
X14223365Y-4473575D01*
X14023975Y-6179185D02*
X14023975Y-6577965D01*
X13824585Y-6378575D02*
X14223365Y-6378575D01*
X14023975Y-8084185D02*
X14023975Y-8482965D01*
X13824585Y-8283575D02*
X14223365Y-8283575D01*
X15928975Y-2369185D02*
X15928975Y-2767965D01*
X15729585Y-2568575D02*
X16128365Y-2568575D01*
X15928975Y-4274185D02*
X15928975Y-4672965D01*
X15729585Y-4473575D02*
X16128365Y-4473575D01*
X15928975Y-6179185D02*
X15928975Y-6577965D01*
X15729585Y-6378575D02*
X16128365Y-6378575D01*
X15928975Y-8084185D02*
X15928975Y-8482965D01*
X15729585Y-8283575D02*
X16128365Y-8283575D01*
X17833975Y-2369185D02*
X17833975Y-2767965D01*
X17634585Y-2568575D02*
X18033365Y-2568575D01*
X17833975Y-4274185D02*
X17833975Y-4672965D01*
X17634585Y-4473575D02*
X18033365Y-4473575D01*
X17833975Y-6179185D02*
X17833975Y-6577965D01*
X17634585Y-6378575D02*
X18033365Y-6378575D01*
X17833975Y-8084185D02*
X17833975Y-8482965D01*
X17634585Y-8283575D02*
X18033365Y-8283575D01*
X19738975Y-2369185D02*
X19738975Y-2767965D01*
X19539585Y-2568575D02*
X19938365Y-2568575D01*
X19738975Y-4274185D02*
X19738975Y-4672965D01*
X19539585Y-4473575D02*
X19938365Y-4473575D01*
X19738975Y-6179185D02*
X19738975Y-6577965D01*
X19539585Y-6378575D02*
X19938365Y-6378575D01*
X19738975Y-8084185D02*
X19738975Y-8482965D01*
X19539585Y-8283575D02*
X19938365Y-8283575D01*
D15*
X8211423Y-7597423D02*
X8211423Y-7314577D01*
X7928577Y-7314577D01*
X7928577Y-7597423D01*
X8211423Y-7597423D01*
X9401423Y-8421423D02*
X9401423Y-8138577D01*
X9118577Y-8138577D01*
X9118577Y-8421423D01*
X9401423Y-8421423D01*
X10591423Y-7597423D02*
X10591423Y-7314577D01*
X10308577Y-7314577D01*
X10308577Y-7597423D01*
X10591423Y-7597423D01*
X12021423Y-7597423D02*
X12021423Y-7314577D01*
X11738577Y-7314577D01*
X11738577Y-7597423D01*
X12021423Y-7597423D01*
X13211423Y-8421423D02*
X13211423Y-8138577D01*
X12928577Y-8138577D01*
X12928577Y-8421423D01*
X13211423Y-8421423D01*
X14401423Y-7597423D02*
X14401423Y-7314577D01*
X14118577Y-7314577D01*
X14118577Y-7597423D01*
X14401423Y-7597423D01*
D11*
X1893419Y-9545876D02*
X1893419Y-9345876D01*
X1941038Y-9345876D01*
X1969609Y-9355400D01*
X1988657Y-9374448D01*
X1998181Y-9393495D01*
X2007705Y-9431590D01*
X2007705Y-9460162D01*
X1998181Y-9498257D01*
X1988657Y-9517305D01*
X1969609Y-9536352D01*
X1941038Y-9545876D01*
X1893419Y-9545876D01*
X2093419Y-9545876D02*
X2093419Y-9412543D01*
X2093419Y-9450638D02*
X2102943Y-9431590D01*
X2112467Y-9422067D01*
X2131514Y-9412543D01*
X2150562Y-9412543D01*
X2217229Y-9545876D02*
X2217229Y-9412543D01*
X2217229Y-9345876D02*
X2207705Y-9355400D01*
X2217229Y-9364924D01*
X2226752Y-9355400D01*
X2217229Y-9345876D01*
X2217229Y-9364924D01*
X2341038Y-9545876D02*
X2321990Y-9536352D01*
X2312467Y-9517305D01*
X2312467Y-9345876D01*
X2445800Y-9545876D02*
X2426752Y-9536352D01*
X2417229Y-9517305D01*
X2417229Y-9345876D01*
X2674371Y-9545876D02*
X2674371Y-9345876D01*
X2741038Y-9488733D01*
X2807705Y-9345876D01*
X2807705Y-9545876D01*
X2988657Y-9545876D02*
X2988657Y-9441114D01*
X2979133Y-9422067D01*
X2960086Y-9412543D01*
X2921990Y-9412543D01*
X2902943Y-9422067D01*
X2988657Y-9536352D02*
X2969609Y-9545876D01*
X2921990Y-9545876D01*
X2902943Y-9536352D01*
X2893419Y-9517305D01*
X2893419Y-9498257D01*
X2902943Y-9479210D01*
X2921990Y-9469686D01*
X2969609Y-9469686D01*
X2988657Y-9460162D01*
X3083895Y-9412543D02*
X3083895Y-9612543D01*
X3083895Y-9422067D02*
X3102943Y-9412543D01*
X3141038Y-9412543D01*
X3160086Y-9422067D01*
X3169609Y-9431590D01*
X3179133Y-9450638D01*
X3179133Y-9507781D01*
X3169609Y-9526829D01*
X3160086Y-9536352D01*
X3141038Y-9545876D01*
X3102943Y-9545876D01*
X3083895Y-9536352D01*
X3264848Y-9526829D02*
X3274371Y-9536352D01*
X3264848Y-9545876D01*
X3255324Y-9536352D01*
X3264848Y-9526829D01*
X3264848Y-9545876D01*
X3264848Y-9422067D02*
X3274371Y-9431590D01*
X3264848Y-9441114D01*
X3255324Y-9431590D01*
X3264848Y-9422067D01*
X3264848Y-9441114D01*
D12*
X1460800Y-9787900D02*
X1635800Y-9962900D01*
X1635800Y-9787900D02*
X1460800Y-9962900D01*
D11*
X1998181Y-9965876D02*
X1883895Y-9965876D01*
X1941038Y-9965876D02*
X1941038Y-9765876D01*
X1921990Y-9794448D01*
X1902943Y-9813495D01*
X1883895Y-9823019D01*
X2083895Y-9946829D02*
X2093419Y-9956352D01*
X2083895Y-9965876D01*
X2074371Y-9956352D01*
X2083895Y-9946829D01*
X2083895Y-9965876D01*
X2160086Y-9765876D02*
X2293419Y-9765876D01*
X2207705Y-9965876D01*
X2464848Y-9765876D02*
X2369610Y-9765876D01*
X2360086Y-9861114D01*
X2369610Y-9851590D01*
X2388657Y-9842067D01*
X2436276Y-9842067D01*
X2455324Y-9851590D01*
X2464848Y-9861114D01*
X2474371Y-9880162D01*
X2474371Y-9927781D01*
X2464848Y-9946829D01*
X2455324Y-9956352D01*
X2436276Y-9965876D01*
X2388657Y-9965876D01*
X2369610Y-9956352D01*
X2360086Y-9946829D01*
X2598181Y-9765876D02*
X2617229Y-9765876D01*
X2636276Y-9775400D01*
X2645800Y-9784924D01*
X2655324Y-9803971D01*
X2664848Y-9842067D01*
X2664848Y-9889686D01*
X2655324Y-9927781D01*
X2645800Y-9946829D01*
X2636276Y-9956352D01*
X2617229Y-9965876D01*
X2598181Y-9965876D01*
X2579133Y-9956352D01*
X2569610Y-9946829D01*
X2560086Y-9927781D01*
X2550562Y-9889686D01*
X2550562Y-9842067D01*
X2560086Y-9803971D01*
X2569610Y-9784924D01*
X2579133Y-9775400D01*
X2598181Y-9765876D01*
X2750562Y-9965876D02*
X2750562Y-9832543D01*
X2750562Y-9851590D02*
X2760086Y-9842067D01*
X2779133Y-9832543D01*
X2807705Y-9832543D01*
X2826752Y-9842067D01*
X2836276Y-9861114D01*
X2836276Y-9965876D01*
X2836276Y-9861114D02*
X2845800Y-9842067D01*
X2864848Y-9832543D01*
X2893419Y-9832543D01*
X2912467Y-9842067D01*
X2921990Y-9861114D01*
X2921990Y-9965876D01*
X3017228Y-9965876D02*
X3017228Y-9832543D01*
X3017228Y-9851590D02*
X3026752Y-9842067D01*
X3045800Y-9832543D01*
X3074371Y-9832543D01*
X3093419Y-9842067D01*
X3102943Y-9861114D01*
X3102943Y-9965876D01*
X3102943Y-9861114D02*
X3112467Y-9842067D01*
X3131514Y-9832543D01*
X3160086Y-9832543D01*
X3179133Y-9842067D01*
X3188657Y-9861114D01*
X3188657Y-9965876D01*
X3579133Y-9756352D02*
X3407705Y-10013495D01*
X3836276Y-9765876D02*
X3855324Y-9765876D01*
X3874371Y-9775400D01*
X3883895Y-9784924D01*
X3893419Y-9803971D01*
X3902943Y-9842067D01*
X3902943Y-9889686D01*
X3893419Y-9927781D01*
X3883895Y-9946829D01*
X3874371Y-9956352D01*
X3855324Y-9965876D01*
X3836276Y-9965876D01*
X3817228Y-9956352D01*
X3807705Y-9946829D01*
X3798181Y-9927781D01*
X3788657Y-9889686D01*
X3788657Y-9842067D01*
X3798181Y-9803971D01*
X3807705Y-9784924D01*
X3817228Y-9775400D01*
X3836276Y-9765876D01*
X3988657Y-9946829D02*
X3998181Y-9956352D01*
X3988657Y-9965876D01*
X3979133Y-9956352D01*
X3988657Y-9946829D01*
X3988657Y-9965876D01*
X4121990Y-9765876D02*
X4141038Y-9765876D01*
X4160086Y-9775400D01*
X4169609Y-9784924D01*
X4179133Y-9803971D01*
X4188657Y-9842067D01*
X4188657Y-9889686D01*
X4179133Y-9927781D01*
X4169609Y-9946829D01*
X4160086Y-9956352D01*
X4141038Y-9965876D01*
X4121990Y-9965876D01*
X4102943Y-9956352D01*
X4093419Y-9946829D01*
X4083895Y-9927781D01*
X4074371Y-9889686D01*
X4074371Y-9842067D01*
X4083895Y-9803971D01*
X4093419Y-9784924D01*
X4102943Y-9775400D01*
X4121990Y-9765876D01*
X4360086Y-9765876D02*
X4321990Y-9765876D01*
X4302943Y-9775400D01*
X4293419Y-9784924D01*
X4274371Y-9813495D01*
X4264848Y-9851590D01*
X4264848Y-9927781D01*
X4274371Y-9946829D01*
X4283895Y-9956352D01*
X4302943Y-9965876D01*
X4341038Y-9965876D01*
X4360086Y-9956352D01*
X4369610Y-9946829D01*
X4379133Y-9927781D01*
X4379133Y-9880162D01*
X4369610Y-9861114D01*
X4360086Y-9851590D01*
X4341038Y-9842067D01*
X4302943Y-9842067D01*
X4283895Y-9851590D01*
X4274371Y-9861114D01*
X4264848Y-9880162D01*
X4493419Y-9851590D02*
X4474371Y-9842067D01*
X4464848Y-9832543D01*
X4455324Y-9813495D01*
X4455324Y-9803971D01*
X4464848Y-9784924D01*
X4474371Y-9775400D01*
X4493419Y-9765876D01*
X4531514Y-9765876D01*
X4550562Y-9775400D01*
X4560086Y-9784924D01*
X4569610Y-9803971D01*
X4569610Y-9813495D01*
X4560086Y-9832543D01*
X4550562Y-9842067D01*
X4531514Y-9851590D01*
X4493419Y-9851590D01*
X4474371Y-9861114D01*
X4464848Y-9870638D01*
X4455324Y-9889686D01*
X4455324Y-9927781D01*
X4464848Y-9946829D01*
X4474371Y-9956352D01*
X4493419Y-9965876D01*
X4531514Y-9965876D01*
X4550562Y-9956352D01*
X4560086Y-9946829D01*
X4569610Y-9927781D01*
X4569610Y-9889686D01*
X4560086Y-9870638D01*
X4550562Y-9861114D01*
X4531514Y-9851590D01*
X4664848Y-9965876D02*
X4702943Y-9965876D01*
X4721990Y-9956352D01*
X4731514Y-9946829D01*
X4750562Y-9918257D01*
X4760086Y-9880162D01*
X4760086Y-9803971D01*
X4750562Y-9784924D01*
X4741038Y-9775400D01*
X4721990Y-9765876D01*
X4683895Y-9765876D01*
X4664848Y-9775400D01*
X4655324Y-9784924D01*
X4645800Y-9803971D01*
X4645800Y-9851590D01*
X4655324Y-9870638D01*
X4664848Y-9880162D01*
X4683895Y-9889686D01*
X4721990Y-9889686D01*
X4741038Y-9880162D01*
X4750562Y-9870638D01*
X4760086Y-9851590D01*
X4836276Y-9765876D02*
X4836276Y-9803971D01*
X4912467Y-9765876D02*
X4912467Y-9803971D01*
X5207705Y-10042067D02*
X5198181Y-10032543D01*
X5179133Y-10003971D01*
X5169610Y-9984924D01*
X5160086Y-9956352D01*
X5150562Y-9908733D01*
X5150562Y-9870638D01*
X5160086Y-9823019D01*
X5169610Y-9794448D01*
X5179133Y-9775400D01*
X5198181Y-9746829D01*
X5207705Y-9737305D01*
X5264848Y-9765876D02*
X5398181Y-9765876D01*
X5312467Y-9965876D01*
X5560086Y-9765876D02*
X5521990Y-9765876D01*
X5502943Y-9775400D01*
X5493419Y-9784924D01*
X5474371Y-9813495D01*
X5464848Y-9851590D01*
X5464848Y-9927781D01*
X5474371Y-9946829D01*
X5483895Y-9956352D01*
X5502943Y-9965876D01*
X5541038Y-9965876D01*
X5560086Y-9956352D01*
X5569610Y-9946829D01*
X5579133Y-9927781D01*
X5579133Y-9880162D01*
X5569610Y-9861114D01*
X5560086Y-9851590D01*
X5541038Y-9842067D01*
X5502943Y-9842067D01*
X5483895Y-9851590D01*
X5474371Y-9861114D01*
X5464848Y-9880162D01*
X5817228Y-9965876D02*
X5817228Y-9765876D01*
X5902943Y-9965876D02*
X5902943Y-9861114D01*
X5893419Y-9842067D01*
X5874371Y-9832543D01*
X5845800Y-9832543D01*
X5826752Y-9842067D01*
X5817228Y-9851590D01*
X6026752Y-9965876D02*
X6007705Y-9956352D01*
X5998181Y-9946829D01*
X5988657Y-9927781D01*
X5988657Y-9870638D01*
X5998181Y-9851590D01*
X6007705Y-9842067D01*
X6026752Y-9832543D01*
X6055324Y-9832543D01*
X6074371Y-9842067D01*
X6083895Y-9851590D01*
X6093419Y-9870638D01*
X6093419Y-9927781D01*
X6083895Y-9946829D01*
X6074371Y-9956352D01*
X6055324Y-9965876D01*
X6026752Y-9965876D01*
X6207705Y-9965876D02*
X6188657Y-9956352D01*
X6179133Y-9937305D01*
X6179133Y-9765876D01*
X6360086Y-9956352D02*
X6341038Y-9965876D01*
X6302943Y-9965876D01*
X6283895Y-9956352D01*
X6274371Y-9937305D01*
X6274371Y-9861114D01*
X6283895Y-9842067D01*
X6302943Y-9832543D01*
X6341038Y-9832543D01*
X6360086Y-9842067D01*
X6369609Y-9861114D01*
X6369609Y-9880162D01*
X6274371Y-9899210D01*
X6445800Y-9956352D02*
X6464848Y-9965876D01*
X6502943Y-9965876D01*
X6521990Y-9956352D01*
X6531514Y-9937305D01*
X6531514Y-9927781D01*
X6521990Y-9908733D01*
X6502943Y-9899210D01*
X6474371Y-9899210D01*
X6455324Y-9889686D01*
X6445800Y-9870638D01*
X6445800Y-9861114D01*
X6455324Y-9842067D01*
X6474371Y-9832543D01*
X6502943Y-9832543D01*
X6521990Y-9842067D01*
X6769609Y-9889686D02*
X6921990Y-9889686D01*
X6845800Y-9965876D02*
X6845800Y-9813495D01*
X7255324Y-9832543D02*
X7255324Y-9965876D01*
X7207705Y-9756352D02*
X7160086Y-9899210D01*
X7283895Y-9899210D01*
X7502943Y-9956352D02*
X7521990Y-9965876D01*
X7560086Y-9965876D01*
X7579133Y-9956352D01*
X7588657Y-9937305D01*
X7588657Y-9927781D01*
X7579133Y-9908733D01*
X7560086Y-9899210D01*
X7531514Y-9899210D01*
X7512467Y-9889686D01*
X7502943Y-9870638D01*
X7502943Y-9861114D01*
X7512467Y-9842067D01*
X7531514Y-9832543D01*
X7560086Y-9832543D01*
X7579133Y-9842067D01*
X7702943Y-9965876D02*
X7683895Y-9956352D01*
X7674371Y-9937305D01*
X7674371Y-9765876D01*
X7807705Y-9965876D02*
X7788657Y-9956352D01*
X7779133Y-9946829D01*
X7769609Y-9927781D01*
X7769609Y-9870638D01*
X7779133Y-9851590D01*
X7788657Y-9842067D01*
X7807705Y-9832543D01*
X7836276Y-9832543D01*
X7855324Y-9842067D01*
X7864848Y-9851590D01*
X7874371Y-9870638D01*
X7874371Y-9927781D01*
X7864848Y-9946829D01*
X7855324Y-9956352D01*
X7836276Y-9965876D01*
X7807705Y-9965876D01*
X7931514Y-9832543D02*
X8007705Y-9832543D01*
X7960086Y-9765876D02*
X7960086Y-9937305D01*
X7969609Y-9956352D01*
X7988657Y-9965876D01*
X8007705Y-9965876D01*
X8064848Y-9956352D02*
X8083895Y-9965876D01*
X8121990Y-9965876D01*
X8141038Y-9956352D01*
X8150562Y-9937305D01*
X8150562Y-9927781D01*
X8141038Y-9908733D01*
X8121990Y-9899210D01*
X8093419Y-9899210D01*
X8074371Y-9889686D01*
X8064848Y-9870638D01*
X8064848Y-9861114D01*
X8074371Y-9842067D01*
X8093419Y-9832543D01*
X8121990Y-9832543D01*
X8141038Y-9842067D01*
X8217228Y-10042067D02*
X8226752Y-10032543D01*
X8245800Y-10003971D01*
X8255324Y-9984924D01*
X8264848Y-9956352D01*
X8274371Y-9908733D01*
X8274371Y-9870638D01*
X8264848Y-9823019D01*
X8255324Y-9794448D01*
X8245800Y-9775400D01*
X8226752Y-9746829D01*
X8217228Y-9737305D01*
X8579133Y-10042067D02*
X8569610Y-10032543D01*
X8550562Y-10003971D01*
X8541038Y-9984924D01*
X8531514Y-9956352D01*
X8521990Y-9908733D01*
X8521990Y-9870638D01*
X8531514Y-9823019D01*
X8541038Y-9794448D01*
X8550562Y-9775400D01*
X8569610Y-9746829D01*
X8579133Y-9737305D01*
X8655324Y-9832543D02*
X8655324Y-9965876D01*
X8655324Y-9851590D02*
X8664848Y-9842067D01*
X8683895Y-9832543D01*
X8712467Y-9832543D01*
X8731514Y-9842067D01*
X8741038Y-9861114D01*
X8741038Y-9965876D01*
X8864848Y-9965876D02*
X8845800Y-9956352D01*
X8836276Y-9946829D01*
X8826752Y-9927781D01*
X8826752Y-9870638D01*
X8836276Y-9851590D01*
X8845800Y-9842067D01*
X8864848Y-9832543D01*
X8893419Y-9832543D01*
X8912467Y-9842067D01*
X8921990Y-9851590D01*
X8931514Y-9870638D01*
X8931514Y-9927781D01*
X8921990Y-9946829D01*
X8912467Y-9956352D01*
X8893419Y-9965876D01*
X8864848Y-9965876D01*
X8988657Y-9832543D02*
X9064848Y-9832543D01*
X9017229Y-9765876D02*
X9017229Y-9937305D01*
X9026752Y-9956352D01*
X9045800Y-9965876D01*
X9064848Y-9965876D01*
X9283895Y-9832543D02*
X9283895Y-10032543D01*
X9283895Y-9842067D02*
X9302943Y-9832543D01*
X9341038Y-9832543D01*
X9360086Y-9842067D01*
X9369610Y-9851590D01*
X9379133Y-9870638D01*
X9379133Y-9927781D01*
X9369610Y-9946829D01*
X9360086Y-9956352D01*
X9341038Y-9965876D01*
X9302943Y-9965876D01*
X9283895Y-9956352D01*
X9493419Y-9965876D02*
X9474371Y-9956352D01*
X9464848Y-9937305D01*
X9464848Y-9765876D01*
X9655324Y-9965876D02*
X9655324Y-9861114D01*
X9645800Y-9842067D01*
X9626752Y-9832543D01*
X9588657Y-9832543D01*
X9569610Y-9842067D01*
X9655324Y-9956352D02*
X9636276Y-9965876D01*
X9588657Y-9965876D01*
X9569610Y-9956352D01*
X9560086Y-9937305D01*
X9560086Y-9918257D01*
X9569610Y-9899210D01*
X9588657Y-9889686D01*
X9636276Y-9889686D01*
X9655324Y-9880162D01*
X9721990Y-9832543D02*
X9798181Y-9832543D01*
X9750562Y-9765876D02*
X9750562Y-9937305D01*
X9760086Y-9956352D01*
X9779133Y-9965876D01*
X9798181Y-9965876D01*
X9941038Y-9956352D02*
X9921990Y-9965876D01*
X9883895Y-9965876D01*
X9864848Y-9956352D01*
X9855324Y-9937305D01*
X9855324Y-9861114D01*
X9864848Y-9842067D01*
X9883895Y-9832543D01*
X9921990Y-9832543D01*
X9941038Y-9842067D01*
X9950562Y-9861114D01*
X9950562Y-9880162D01*
X9855324Y-9899210D01*
X10121990Y-9965876D02*
X10121990Y-9765876D01*
X10121990Y-9956352D02*
X10102943Y-9965876D01*
X10064848Y-9965876D01*
X10045800Y-9956352D01*
X10036276Y-9946829D01*
X10026752Y-9927781D01*
X10026752Y-9870638D01*
X10036276Y-9851590D01*
X10045800Y-9842067D01*
X10064848Y-9832543D01*
X10102943Y-9832543D01*
X10121990Y-9842067D01*
X10198181Y-10042067D02*
X10207705Y-10032543D01*
X10226752Y-10003971D01*
X10236276Y-9984924D01*
X10245800Y-9956352D01*
X10255324Y-9908733D01*
X10255324Y-9870638D01*
X10245800Y-9823019D01*
X10236276Y-9794448D01*
X10226752Y-9775400D01*
X10207705Y-9746829D01*
X10198181Y-9737305D01*
X1635800Y-10170400D02*
G75*
G03*
X1635800Y-10170400I-100000J0D01*
G01*
X1874371Y-10060876D02*
X1998181Y-10060876D01*
X1931514Y-10137067D01*
X1960086Y-10137067D01*
X1979133Y-10146590D01*
X1988657Y-10156114D01*
X1998181Y-10175162D01*
X1998181Y-10222781D01*
X1988657Y-10241829D01*
X1979133Y-10251352D01*
X1960086Y-10260876D01*
X1902943Y-10260876D01*
X1883895Y-10251352D01*
X1874371Y-10241829D01*
X2083895Y-10241829D02*
X2093419Y-10251352D01*
X2083895Y-10260876D01*
X2074371Y-10251352D01*
X2083895Y-10241829D01*
X2083895Y-10260876D01*
X2217229Y-10060876D02*
X2236276Y-10060876D01*
X2255324Y-10070400D01*
X2264848Y-10079924D01*
X2274371Y-10098971D01*
X2283895Y-10137067D01*
X2283895Y-10184686D01*
X2274371Y-10222781D01*
X2264848Y-10241829D01*
X2255324Y-10251352D01*
X2236276Y-10260876D01*
X2217229Y-10260876D01*
X2198181Y-10251352D01*
X2188657Y-10241829D01*
X2179133Y-10222781D01*
X2169610Y-10184686D01*
X2169610Y-10137067D01*
X2179133Y-10098971D01*
X2188657Y-10079924D01*
X2198181Y-10070400D01*
X2217229Y-10060876D01*
X2464848Y-10060876D02*
X2369610Y-10060876D01*
X2360086Y-10156114D01*
X2369610Y-10146590D01*
X2388657Y-10137067D01*
X2436276Y-10137067D01*
X2455324Y-10146590D01*
X2464848Y-10156114D01*
X2474371Y-10175162D01*
X2474371Y-10222781D01*
X2464848Y-10241829D01*
X2455324Y-10251352D01*
X2436276Y-10260876D01*
X2388657Y-10260876D01*
X2369610Y-10251352D01*
X2360086Y-10241829D01*
X2598181Y-10060876D02*
X2617229Y-10060876D01*
X2636276Y-10070400D01*
X2645800Y-10079924D01*
X2655324Y-10098971D01*
X2664848Y-10137067D01*
X2664848Y-10184686D01*
X2655324Y-10222781D01*
X2645800Y-10241829D01*
X2636276Y-10251352D01*
X2617229Y-10260876D01*
X2598181Y-10260876D01*
X2579133Y-10251352D01*
X2569610Y-10241829D01*
X2560086Y-10222781D01*
X2550562Y-10184686D01*
X2550562Y-10137067D01*
X2560086Y-10098971D01*
X2569610Y-10079924D01*
X2579133Y-10070400D01*
X2598181Y-10060876D01*
X2750562Y-10260876D02*
X2750562Y-10127543D01*
X2750562Y-10146590D02*
X2760086Y-10137067D01*
X2779133Y-10127543D01*
X2807705Y-10127543D01*
X2826752Y-10137067D01*
X2836276Y-10156114D01*
X2836276Y-10260876D01*
X2836276Y-10156114D02*
X2845800Y-10137067D01*
X2864848Y-10127543D01*
X2893419Y-10127543D01*
X2912467Y-10137067D01*
X2921990Y-10156114D01*
X2921990Y-10260876D01*
X3017228Y-10260876D02*
X3017228Y-10127543D01*
X3017228Y-10146590D02*
X3026752Y-10137067D01*
X3045800Y-10127543D01*
X3074371Y-10127543D01*
X3093419Y-10137067D01*
X3102943Y-10156114D01*
X3102943Y-10260876D01*
X3102943Y-10156114D02*
X3112467Y-10137067D01*
X3131514Y-10127543D01*
X3160086Y-10127543D01*
X3179133Y-10137067D01*
X3188657Y-10156114D01*
X3188657Y-10260876D01*
X3579133Y-10051352D02*
X3407705Y-10308495D01*
X3836276Y-10060876D02*
X3855324Y-10060876D01*
X3874371Y-10070400D01*
X3883895Y-10079924D01*
X3893419Y-10098971D01*
X3902943Y-10137067D01*
X3902943Y-10184686D01*
X3893419Y-10222781D01*
X3883895Y-10241829D01*
X3874371Y-10251352D01*
X3855324Y-10260876D01*
X3836276Y-10260876D01*
X3817228Y-10251352D01*
X3807705Y-10241829D01*
X3798181Y-10222781D01*
X3788657Y-10184686D01*
X3788657Y-10137067D01*
X3798181Y-10098971D01*
X3807705Y-10079924D01*
X3817228Y-10070400D01*
X3836276Y-10060876D01*
X3988657Y-10241829D02*
X3998181Y-10251352D01*
X3988657Y-10260876D01*
X3979133Y-10251352D01*
X3988657Y-10241829D01*
X3988657Y-10260876D01*
X4188657Y-10260876D02*
X4074371Y-10260876D01*
X4131514Y-10260876D02*
X4131514Y-10060876D01*
X4112467Y-10089448D01*
X4093419Y-10108495D01*
X4074371Y-10118019D01*
X4264848Y-10079924D02*
X4274371Y-10070400D01*
X4293419Y-10060876D01*
X4341038Y-10060876D01*
X4360086Y-10070400D01*
X4369610Y-10079924D01*
X4379133Y-10098971D01*
X4379133Y-10118019D01*
X4369610Y-10146590D01*
X4255324Y-10260876D01*
X4379133Y-10260876D01*
X4502943Y-10060876D02*
X4521990Y-10060876D01*
X4541038Y-10070400D01*
X4550562Y-10079924D01*
X4560086Y-10098971D01*
X4569610Y-10137067D01*
X4569610Y-10184686D01*
X4560086Y-10222781D01*
X4550562Y-10241829D01*
X4541038Y-10251352D01*
X4521990Y-10260876D01*
X4502943Y-10260876D01*
X4483895Y-10251352D01*
X4474371Y-10241829D01*
X4464848Y-10222781D01*
X4455324Y-10184686D01*
X4455324Y-10137067D01*
X4464848Y-10098971D01*
X4474371Y-10079924D01*
X4483895Y-10070400D01*
X4502943Y-10060876D01*
X4760086Y-10260876D02*
X4645800Y-10260876D01*
X4702943Y-10260876D02*
X4702943Y-10060876D01*
X4683895Y-10089448D01*
X4664848Y-10108495D01*
X4645800Y-10118019D01*
X4836276Y-10060876D02*
X4836276Y-10098971D01*
X4912467Y-10060876D02*
X4912467Y-10098971D01*
X5207705Y-10337067D02*
X5198181Y-10327543D01*
X5179133Y-10298971D01*
X5169610Y-10279924D01*
X5160086Y-10251352D01*
X5150562Y-10203733D01*
X5150562Y-10165638D01*
X5160086Y-10118019D01*
X5169610Y-10089448D01*
X5179133Y-10070400D01*
X5198181Y-10041829D01*
X5207705Y-10032305D01*
X5369610Y-10127543D02*
X5369610Y-10260876D01*
X5321990Y-10051352D02*
X5274371Y-10194210D01*
X5398181Y-10194210D01*
X5626752Y-10260876D02*
X5626752Y-10060876D01*
X5712467Y-10260876D02*
X5712467Y-10156114D01*
X5702943Y-10137067D01*
X5683895Y-10127543D01*
X5655324Y-10127543D01*
X5636276Y-10137067D01*
X5626752Y-10146590D01*
X5836276Y-10260876D02*
X5817228Y-10251352D01*
X5807705Y-10241829D01*
X5798181Y-10222781D01*
X5798181Y-10165638D01*
X5807705Y-10146590D01*
X5817228Y-10137067D01*
X5836276Y-10127543D01*
X5864848Y-10127543D01*
X5883895Y-10137067D01*
X5893419Y-10146590D01*
X5902943Y-10165638D01*
X5902943Y-10222781D01*
X5893419Y-10241829D01*
X5883895Y-10251352D01*
X5864848Y-10260876D01*
X5836276Y-10260876D01*
X6017228Y-10260876D02*
X5998181Y-10251352D01*
X5988657Y-10232305D01*
X5988657Y-10060876D01*
X6169609Y-10251352D02*
X6150562Y-10260876D01*
X6112467Y-10260876D01*
X6093419Y-10251352D01*
X6083895Y-10232305D01*
X6083895Y-10156114D01*
X6093419Y-10137067D01*
X6112467Y-10127543D01*
X6150562Y-10127543D01*
X6169609Y-10137067D01*
X6179133Y-10156114D01*
X6179133Y-10175162D01*
X6083895Y-10194210D01*
X6255324Y-10251352D02*
X6274371Y-10260876D01*
X6312467Y-10260876D01*
X6331514Y-10251352D01*
X6341038Y-10232305D01*
X6341038Y-10222781D01*
X6331514Y-10203733D01*
X6312467Y-10194210D01*
X6283895Y-10194210D01*
X6264848Y-10184686D01*
X6255324Y-10165638D01*
X6255324Y-10156114D01*
X6264848Y-10137067D01*
X6283895Y-10127543D01*
X6312467Y-10127543D01*
X6331514Y-10137067D01*
X6407705Y-10337067D02*
X6417228Y-10327543D01*
X6436276Y-10298971D01*
X6445800Y-10279924D01*
X6455324Y-10251352D01*
X6464848Y-10203733D01*
X6464848Y-10165638D01*
X6455324Y-10118019D01*
X6445800Y-10089448D01*
X6436276Y-10070400D01*
X6417228Y-10041829D01*
X6407705Y-10032305D01*
X6769609Y-10337067D02*
X6760086Y-10327543D01*
X6741038Y-10298971D01*
X6731514Y-10279924D01*
X6721990Y-10251352D01*
X6712467Y-10203733D01*
X6712467Y-10165638D01*
X6721990Y-10118019D01*
X6731514Y-10089448D01*
X6741038Y-10070400D01*
X6760086Y-10041829D01*
X6769609Y-10032305D01*
X6845800Y-10127543D02*
X6845800Y-10260876D01*
X6845800Y-10146590D02*
X6855324Y-10137067D01*
X6874371Y-10127543D01*
X6902943Y-10127543D01*
X6921990Y-10137067D01*
X6931514Y-10156114D01*
X6931514Y-10260876D01*
X7055324Y-10260876D02*
X7036276Y-10251352D01*
X7026752Y-10241829D01*
X7017228Y-10222781D01*
X7017228Y-10165638D01*
X7026752Y-10146590D01*
X7036276Y-10137067D01*
X7055324Y-10127543D01*
X7083895Y-10127543D01*
X7102943Y-10137067D01*
X7112467Y-10146590D01*
X7121990Y-10165638D01*
X7121990Y-10222781D01*
X7112467Y-10241829D01*
X7102943Y-10251352D01*
X7083895Y-10260876D01*
X7055324Y-10260876D01*
X7179133Y-10127543D02*
X7255324Y-10127543D01*
X7207705Y-10060876D02*
X7207705Y-10232305D01*
X7217228Y-10251352D01*
X7236276Y-10260876D01*
X7255324Y-10260876D01*
X7474371Y-10127543D02*
X7474371Y-10327543D01*
X7474371Y-10137067D02*
X7493419Y-10127543D01*
X7531514Y-10127543D01*
X7550562Y-10137067D01*
X7560086Y-10146590D01*
X7569609Y-10165638D01*
X7569609Y-10222781D01*
X7560086Y-10241829D01*
X7550562Y-10251352D01*
X7531514Y-10260876D01*
X7493419Y-10260876D01*
X7474371Y-10251352D01*
X7683895Y-10260876D02*
X7664848Y-10251352D01*
X7655324Y-10232305D01*
X7655324Y-10060876D01*
X7845800Y-10260876D02*
X7845800Y-10156114D01*
X7836276Y-10137067D01*
X7817228Y-10127543D01*
X7779133Y-10127543D01*
X7760086Y-10137067D01*
X7845800Y-10251352D02*
X7826752Y-10260876D01*
X7779133Y-10260876D01*
X7760086Y-10251352D01*
X7750562Y-10232305D01*
X7750562Y-10213257D01*
X7760086Y-10194210D01*
X7779133Y-10184686D01*
X7826752Y-10184686D01*
X7845800Y-10175162D01*
X7912467Y-10127543D02*
X7988657Y-10127543D01*
X7941038Y-10060876D02*
X7941038Y-10232305D01*
X7950562Y-10251352D01*
X7969609Y-10260876D01*
X7988657Y-10260876D01*
X8131514Y-10251352D02*
X8112467Y-10260876D01*
X8074371Y-10260876D01*
X8055324Y-10251352D01*
X8045800Y-10232305D01*
X8045800Y-10156114D01*
X8055324Y-10137067D01*
X8074371Y-10127543D01*
X8112467Y-10127543D01*
X8131514Y-10137067D01*
X8141038Y-10156114D01*
X8141038Y-10175162D01*
X8045800Y-10194210D01*
X8312467Y-10260876D02*
X8312467Y-10060876D01*
X8312467Y-10251352D02*
X8293419Y-10260876D01*
X8255324Y-10260876D01*
X8236276Y-10251352D01*
X8226752Y-10241829D01*
X8217228Y-10222781D01*
X8217228Y-10165638D01*
X8226752Y-10146590D01*
X8236276Y-10137067D01*
X8255324Y-10127543D01*
X8293419Y-10127543D01*
X8312467Y-10137067D01*
X8388657Y-10337067D02*
X8398181Y-10327543D01*
X8417229Y-10298971D01*
X8426752Y-10279924D01*
X8436276Y-10251352D01*
X8445800Y-10203733D01*
X8445800Y-10165638D01*
X8436276Y-10118019D01*
X8426752Y-10089448D01*
X8417229Y-10070400D01*
X8398181Y-10041829D01*
X8388657Y-10032305D01*
X1535800Y-10390400D02*
X1535800Y-10590400D01*
X1435800Y-10490400D02*
X1635800Y-10490400D01*
X1874371Y-10380876D02*
X1998181Y-10380876D01*
X1931514Y-10457067D01*
X1960086Y-10457067D01*
X1979133Y-10466590D01*
X1988657Y-10476114D01*
X1998181Y-10495162D01*
X1998181Y-10542781D01*
X1988657Y-10561829D01*
X1979133Y-10571352D01*
X1960086Y-10580876D01*
X1902943Y-10580876D01*
X1883895Y-10571352D01*
X1874371Y-10561829D01*
X2083895Y-10561829D02*
X2093419Y-10571352D01*
X2083895Y-10580876D01*
X2074371Y-10571352D01*
X2083895Y-10561829D01*
X2083895Y-10580876D01*
X2188657Y-10580876D02*
X2226752Y-10580876D01*
X2245800Y-10571352D01*
X2255324Y-10561829D01*
X2274371Y-10533257D01*
X2283895Y-10495162D01*
X2283895Y-10418971D01*
X2274371Y-10399924D01*
X2264848Y-10390400D01*
X2245800Y-10380876D01*
X2207705Y-10380876D01*
X2188657Y-10390400D01*
X2179133Y-10399924D01*
X2169610Y-10418971D01*
X2169610Y-10466590D01*
X2179133Y-10485638D01*
X2188657Y-10495162D01*
X2207705Y-10504686D01*
X2245800Y-10504686D01*
X2264848Y-10495162D01*
X2274371Y-10485638D01*
X2283895Y-10466590D01*
X2398181Y-10466590D02*
X2379133Y-10457067D01*
X2369610Y-10447543D01*
X2360086Y-10428495D01*
X2360086Y-10418971D01*
X2369610Y-10399924D01*
X2379133Y-10390400D01*
X2398181Y-10380876D01*
X2436276Y-10380876D01*
X2455324Y-10390400D01*
X2464848Y-10399924D01*
X2474371Y-10418971D01*
X2474371Y-10428495D01*
X2464848Y-10447543D01*
X2455324Y-10457067D01*
X2436276Y-10466590D01*
X2398181Y-10466590D01*
X2379133Y-10476114D01*
X2369610Y-10485638D01*
X2360086Y-10504686D01*
X2360086Y-10542781D01*
X2369610Y-10561829D01*
X2379133Y-10571352D01*
X2398181Y-10580876D01*
X2436276Y-10580876D01*
X2455324Y-10571352D01*
X2464848Y-10561829D01*
X2474371Y-10542781D01*
X2474371Y-10504686D01*
X2464848Y-10485638D01*
X2455324Y-10476114D01*
X2436276Y-10466590D01*
X2588657Y-10466590D02*
X2569610Y-10457067D01*
X2560086Y-10447543D01*
X2550562Y-10428495D01*
X2550562Y-10418971D01*
X2560086Y-10399924D01*
X2569610Y-10390400D01*
X2588657Y-10380876D01*
X2626752Y-10380876D01*
X2645800Y-10390400D01*
X2655324Y-10399924D01*
X2664848Y-10418971D01*
X2664848Y-10428495D01*
X2655324Y-10447543D01*
X2645800Y-10457067D01*
X2626752Y-10466590D01*
X2588657Y-10466590D01*
X2569610Y-10476114D01*
X2560086Y-10485638D01*
X2550562Y-10504686D01*
X2550562Y-10542781D01*
X2560086Y-10561829D01*
X2569610Y-10571352D01*
X2588657Y-10580876D01*
X2626752Y-10580876D01*
X2645800Y-10571352D01*
X2655324Y-10561829D01*
X2664848Y-10542781D01*
X2664848Y-10504686D01*
X2655324Y-10485638D01*
X2645800Y-10476114D01*
X2626752Y-10466590D01*
X2750562Y-10580876D02*
X2750562Y-10447543D01*
X2750562Y-10466590D02*
X2760086Y-10457067D01*
X2779133Y-10447543D01*
X2807705Y-10447543D01*
X2826752Y-10457067D01*
X2836276Y-10476114D01*
X2836276Y-10580876D01*
X2836276Y-10476114D02*
X2845800Y-10457067D01*
X2864848Y-10447543D01*
X2893419Y-10447543D01*
X2912467Y-10457067D01*
X2921990Y-10476114D01*
X2921990Y-10580876D01*
X3017228Y-10580876D02*
X3017228Y-10447543D01*
X3017228Y-10466590D02*
X3026752Y-10457067D01*
X3045800Y-10447543D01*
X3074371Y-10447543D01*
X3093419Y-10457067D01*
X3102943Y-10476114D01*
X3102943Y-10580876D01*
X3102943Y-10476114D02*
X3112467Y-10457067D01*
X3131514Y-10447543D01*
X3160086Y-10447543D01*
X3179133Y-10457067D01*
X3188657Y-10476114D01*
X3188657Y-10580876D01*
X3579133Y-10371352D02*
X3407705Y-10628495D01*
X3836276Y-10380876D02*
X3855324Y-10380876D01*
X3874371Y-10390400D01*
X3883895Y-10399924D01*
X3893419Y-10418971D01*
X3902943Y-10457067D01*
X3902943Y-10504686D01*
X3893419Y-10542781D01*
X3883895Y-10561829D01*
X3874371Y-10571352D01*
X3855324Y-10580876D01*
X3836276Y-10580876D01*
X3817228Y-10571352D01*
X3807705Y-10561829D01*
X3798181Y-10542781D01*
X3788657Y-10504686D01*
X3788657Y-10457067D01*
X3798181Y-10418971D01*
X3807705Y-10399924D01*
X3817228Y-10390400D01*
X3836276Y-10380876D01*
X3988657Y-10561829D02*
X3998181Y-10571352D01*
X3988657Y-10580876D01*
X3979133Y-10571352D01*
X3988657Y-10561829D01*
X3988657Y-10580876D01*
X4188657Y-10580876D02*
X4074371Y-10580876D01*
X4131514Y-10580876D02*
X4131514Y-10380876D01*
X4112467Y-10409448D01*
X4093419Y-10428495D01*
X4074371Y-10438019D01*
X4369610Y-10380876D02*
X4274371Y-10380876D01*
X4264848Y-10476114D01*
X4274371Y-10466590D01*
X4293419Y-10457067D01*
X4341038Y-10457067D01*
X4360086Y-10466590D01*
X4369610Y-10476114D01*
X4379133Y-10495162D01*
X4379133Y-10542781D01*
X4369610Y-10561829D01*
X4360086Y-10571352D01*
X4341038Y-10580876D01*
X4293419Y-10580876D01*
X4274371Y-10571352D01*
X4264848Y-10561829D01*
X4445800Y-10380876D02*
X4579133Y-10380876D01*
X4493419Y-10580876D01*
X4693419Y-10380876D02*
X4712467Y-10380876D01*
X4731514Y-10390400D01*
X4741038Y-10399924D01*
X4750562Y-10418971D01*
X4760086Y-10457067D01*
X4760086Y-10504686D01*
X4750562Y-10542781D01*
X4741038Y-10561829D01*
X4731514Y-10571352D01*
X4712467Y-10580876D01*
X4693419Y-10580876D01*
X4674371Y-10571352D01*
X4664848Y-10561829D01*
X4655324Y-10542781D01*
X4645800Y-10504686D01*
X4645800Y-10457067D01*
X4655324Y-10418971D01*
X4664848Y-10399924D01*
X4674371Y-10390400D01*
X4693419Y-10380876D01*
X4836276Y-10380876D02*
X4836276Y-10418971D01*
X4912467Y-10380876D02*
X4912467Y-10418971D01*
X5207705Y-10657067D02*
X5198181Y-10647543D01*
X5179133Y-10618971D01*
X5169610Y-10599924D01*
X5160086Y-10571352D01*
X5150562Y-10523733D01*
X5150562Y-10485638D01*
X5160086Y-10438019D01*
X5169610Y-10409448D01*
X5179133Y-10390400D01*
X5198181Y-10361829D01*
X5207705Y-10352305D01*
X5369610Y-10447543D02*
X5369610Y-10580876D01*
X5321990Y-10371352D02*
X5274371Y-10514210D01*
X5398181Y-10514210D01*
X5512467Y-10380876D02*
X5531514Y-10380876D01*
X5550562Y-10390400D01*
X5560086Y-10399924D01*
X5569610Y-10418971D01*
X5579133Y-10457067D01*
X5579133Y-10504686D01*
X5569610Y-10542781D01*
X5560086Y-10561829D01*
X5550562Y-10571352D01*
X5531514Y-10580876D01*
X5512467Y-10580876D01*
X5493419Y-10571352D01*
X5483895Y-10561829D01*
X5474371Y-10542781D01*
X5464848Y-10504686D01*
X5464848Y-10457067D01*
X5474371Y-10418971D01*
X5483895Y-10399924D01*
X5493419Y-10390400D01*
X5512467Y-10380876D01*
X5817228Y-10580876D02*
X5817228Y-10380876D01*
X5902943Y-10580876D02*
X5902943Y-10476114D01*
X5893419Y-10457067D01*
X5874371Y-10447543D01*
X5845800Y-10447543D01*
X5826752Y-10457067D01*
X5817228Y-10466590D01*
X6026752Y-10580876D02*
X6007705Y-10571352D01*
X5998181Y-10561829D01*
X5988657Y-10542781D01*
X5988657Y-10485638D01*
X5998181Y-10466590D01*
X6007705Y-10457067D01*
X6026752Y-10447543D01*
X6055324Y-10447543D01*
X6074371Y-10457067D01*
X6083895Y-10466590D01*
X6093419Y-10485638D01*
X6093419Y-10542781D01*
X6083895Y-10561829D01*
X6074371Y-10571352D01*
X6055324Y-10580876D01*
X6026752Y-10580876D01*
X6207705Y-10580876D02*
X6188657Y-10571352D01*
X6179133Y-10552305D01*
X6179133Y-10380876D01*
X6360086Y-10571352D02*
X6341038Y-10580876D01*
X6302943Y-10580876D01*
X6283895Y-10571352D01*
X6274371Y-10552305D01*
X6274371Y-10476114D01*
X6283895Y-10457067D01*
X6302943Y-10447543D01*
X6341038Y-10447543D01*
X6360086Y-10457067D01*
X6369609Y-10476114D01*
X6369609Y-10495162D01*
X6274371Y-10514210D01*
X6445800Y-10571352D02*
X6464848Y-10580876D01*
X6502943Y-10580876D01*
X6521990Y-10571352D01*
X6531514Y-10552305D01*
X6531514Y-10542781D01*
X6521990Y-10523733D01*
X6502943Y-10514210D01*
X6474371Y-10514210D01*
X6455324Y-10504686D01*
X6445800Y-10485638D01*
X6445800Y-10476114D01*
X6455324Y-10457067D01*
X6474371Y-10447543D01*
X6502943Y-10447543D01*
X6521990Y-10457067D01*
X6598181Y-10657067D02*
X6607705Y-10647543D01*
X6626752Y-10618971D01*
X6636276Y-10599924D01*
X6645800Y-10571352D01*
X6655324Y-10523733D01*
X6655324Y-10485638D01*
X6645800Y-10438019D01*
X6636276Y-10409448D01*
X6626752Y-10390400D01*
X6607705Y-10361829D01*
X6598181Y-10352305D01*
X6960086Y-10657067D02*
X6950562Y-10647543D01*
X6931514Y-10618971D01*
X6921990Y-10599924D01*
X6912467Y-10571352D01*
X6902943Y-10523733D01*
X6902943Y-10485638D01*
X6912467Y-10438019D01*
X6921990Y-10409448D01*
X6931514Y-10390400D01*
X6950562Y-10361829D01*
X6960086Y-10352305D01*
X7036276Y-10447543D02*
X7036276Y-10580876D01*
X7036276Y-10466590D02*
X7045800Y-10457067D01*
X7064848Y-10447543D01*
X7093419Y-10447543D01*
X7112467Y-10457067D01*
X7121990Y-10476114D01*
X7121990Y-10580876D01*
X7245800Y-10580876D02*
X7226752Y-10571352D01*
X7217228Y-10561829D01*
X7207705Y-10542781D01*
X7207705Y-10485638D01*
X7217228Y-10466590D01*
X7226752Y-10457067D01*
X7245800Y-10447543D01*
X7274371Y-10447543D01*
X7293419Y-10457067D01*
X7302943Y-10466590D01*
X7312467Y-10485638D01*
X7312467Y-10542781D01*
X7302943Y-10561829D01*
X7293419Y-10571352D01*
X7274371Y-10580876D01*
X7245800Y-10580876D01*
X7369609Y-10447543D02*
X7445800Y-10447543D01*
X7398181Y-10380876D02*
X7398181Y-10552305D01*
X7407705Y-10571352D01*
X7426752Y-10580876D01*
X7445800Y-10580876D01*
X7664848Y-10447543D02*
X7664848Y-10647543D01*
X7664848Y-10457067D02*
X7683895Y-10447543D01*
X7721990Y-10447543D01*
X7741038Y-10457067D01*
X7750562Y-10466590D01*
X7760086Y-10485638D01*
X7760086Y-10542781D01*
X7750562Y-10561829D01*
X7741038Y-10571352D01*
X7721990Y-10580876D01*
X7683895Y-10580876D01*
X7664848Y-10571352D01*
X7874371Y-10580876D02*
X7855324Y-10571352D01*
X7845800Y-10552305D01*
X7845800Y-10380876D01*
X8036276Y-10580876D02*
X8036276Y-10476114D01*
X8026752Y-10457067D01*
X8007705Y-10447543D01*
X7969609Y-10447543D01*
X7950562Y-10457067D01*
X8036276Y-10571352D02*
X8017228Y-10580876D01*
X7969609Y-10580876D01*
X7950562Y-10571352D01*
X7941038Y-10552305D01*
X7941038Y-10533257D01*
X7950562Y-10514210D01*
X7969609Y-10504686D01*
X8017228Y-10504686D01*
X8036276Y-10495162D01*
X8102943Y-10447543D02*
X8179133Y-10447543D01*
X8131514Y-10380876D02*
X8131514Y-10552305D01*
X8141038Y-10571352D01*
X8160086Y-10580876D01*
X8179133Y-10580876D01*
X8321990Y-10571352D02*
X8302943Y-10580876D01*
X8264848Y-10580876D01*
X8245800Y-10571352D01*
X8236276Y-10552305D01*
X8236276Y-10476114D01*
X8245800Y-10457067D01*
X8264848Y-10447543D01*
X8302943Y-10447543D01*
X8321990Y-10457067D01*
X8331514Y-10476114D01*
X8331514Y-10495162D01*
X8236276Y-10514210D01*
X8502943Y-10580876D02*
X8502943Y-10380876D01*
X8502943Y-10571352D02*
X8483895Y-10580876D01*
X8445800Y-10580876D01*
X8426752Y-10571352D01*
X8417229Y-10561829D01*
X8407705Y-10542781D01*
X8407705Y-10485638D01*
X8417229Y-10466590D01*
X8426752Y-10457067D01*
X8445800Y-10447543D01*
X8483895Y-10447543D01*
X8502943Y-10457067D01*
X8579133Y-10657067D02*
X8588657Y-10647543D01*
X8607705Y-10618971D01*
X8617229Y-10599924D01*
X8626752Y-10571352D01*
X8636276Y-10523733D01*
X8636276Y-10485638D01*
X8626752Y-10438019D01*
X8617229Y-10409448D01*
X8607705Y-10390400D01*
X8588657Y-10361829D01*
X8579133Y-10352305D01*
X1606511Y-10881111D02*
X1606511Y-10739689D01*
X1465089Y-10739689D01*
X1465089Y-10881111D01*
X1606511Y-10881111D01*
X1979133Y-10767543D02*
X1979133Y-10900876D01*
X1931514Y-10691352D02*
X1883895Y-10834210D01*
X2007705Y-10834210D01*
X2083895Y-10881829D02*
X2093419Y-10891352D01*
X2083895Y-10900876D01*
X2074371Y-10891352D01*
X2083895Y-10881829D01*
X2083895Y-10900876D01*
X2217229Y-10700876D02*
X2236276Y-10700876D01*
X2255324Y-10710400D01*
X2264848Y-10719924D01*
X2274371Y-10738971D01*
X2283895Y-10777067D01*
X2283895Y-10824686D01*
X2274371Y-10862781D01*
X2264848Y-10881829D01*
X2255324Y-10891352D01*
X2236276Y-10900876D01*
X2217229Y-10900876D01*
X2198181Y-10891352D01*
X2188657Y-10881829D01*
X2179133Y-10862781D01*
X2169610Y-10824686D01*
X2169610Y-10777067D01*
X2179133Y-10738971D01*
X2188657Y-10719924D01*
X2198181Y-10710400D01*
X2217229Y-10700876D01*
X2407705Y-10700876D02*
X2426752Y-10700876D01*
X2445800Y-10710400D01*
X2455324Y-10719924D01*
X2464848Y-10738971D01*
X2474371Y-10777067D01*
X2474371Y-10824686D01*
X2464848Y-10862781D01*
X2455324Y-10881829D01*
X2445800Y-10891352D01*
X2426752Y-10900876D01*
X2407705Y-10900876D01*
X2388657Y-10891352D01*
X2379133Y-10881829D01*
X2369610Y-10862781D01*
X2360086Y-10824686D01*
X2360086Y-10777067D01*
X2369610Y-10738971D01*
X2379133Y-10719924D01*
X2388657Y-10710400D01*
X2407705Y-10700876D01*
X2598181Y-10700876D02*
X2617229Y-10700876D01*
X2636276Y-10710400D01*
X2645800Y-10719924D01*
X2655324Y-10738971D01*
X2664848Y-10777067D01*
X2664848Y-10824686D01*
X2655324Y-10862781D01*
X2645800Y-10881829D01*
X2636276Y-10891352D01*
X2617229Y-10900876D01*
X2598181Y-10900876D01*
X2579133Y-10891352D01*
X2569610Y-10881829D01*
X2560086Y-10862781D01*
X2550562Y-10824686D01*
X2550562Y-10777067D01*
X2560086Y-10738971D01*
X2569610Y-10719924D01*
X2579133Y-10710400D01*
X2598181Y-10700876D01*
X2750562Y-10900876D02*
X2750562Y-10767543D01*
X2750562Y-10786590D02*
X2760086Y-10777067D01*
X2779133Y-10767543D01*
X2807705Y-10767543D01*
X2826752Y-10777067D01*
X2836276Y-10796114D01*
X2836276Y-10900876D01*
X2836276Y-10796114D02*
X2845800Y-10777067D01*
X2864848Y-10767543D01*
X2893419Y-10767543D01*
X2912467Y-10777067D01*
X2921990Y-10796114D01*
X2921990Y-10900876D01*
X3017228Y-10900876D02*
X3017228Y-10767543D01*
X3017228Y-10786590D02*
X3026752Y-10777067D01*
X3045800Y-10767543D01*
X3074371Y-10767543D01*
X3093419Y-10777067D01*
X3102943Y-10796114D01*
X3102943Y-10900876D01*
X3102943Y-10796114D02*
X3112467Y-10777067D01*
X3131514Y-10767543D01*
X3160086Y-10767543D01*
X3179133Y-10777067D01*
X3188657Y-10796114D01*
X3188657Y-10900876D01*
X3579133Y-10691352D02*
X3407705Y-10948495D01*
X3836276Y-10700876D02*
X3855324Y-10700876D01*
X3874371Y-10710400D01*
X3883895Y-10719924D01*
X3893419Y-10738971D01*
X3902943Y-10777067D01*
X3902943Y-10824686D01*
X3893419Y-10862781D01*
X3883895Y-10881829D01*
X3874371Y-10891352D01*
X3855324Y-10900876D01*
X3836276Y-10900876D01*
X3817228Y-10891352D01*
X3807705Y-10881829D01*
X3798181Y-10862781D01*
X3788657Y-10824686D01*
X3788657Y-10777067D01*
X3798181Y-10738971D01*
X3807705Y-10719924D01*
X3817228Y-10710400D01*
X3836276Y-10700876D01*
X3988657Y-10881829D02*
X3998181Y-10891352D01*
X3988657Y-10900876D01*
X3979133Y-10891352D01*
X3988657Y-10881829D01*
X3988657Y-10900876D01*
X4188657Y-10900876D02*
X4074371Y-10900876D01*
X4131514Y-10900876D02*
X4131514Y-10700876D01*
X4112467Y-10729448D01*
X4093419Y-10748495D01*
X4074371Y-10758019D01*
X4369610Y-10700876D02*
X4274371Y-10700876D01*
X4264848Y-10796114D01*
X4274371Y-10786590D01*
X4293419Y-10777067D01*
X4341038Y-10777067D01*
X4360086Y-10786590D01*
X4369610Y-10796114D01*
X4379133Y-10815162D01*
X4379133Y-10862781D01*
X4369610Y-10881829D01*
X4360086Y-10891352D01*
X4341038Y-10900876D01*
X4293419Y-10900876D01*
X4274371Y-10891352D01*
X4264848Y-10881829D01*
X4445800Y-10700876D02*
X4579133Y-10700876D01*
X4493419Y-10900876D01*
X4750562Y-10700876D02*
X4655324Y-10700876D01*
X4645800Y-10796114D01*
X4655324Y-10786590D01*
X4674371Y-10777067D01*
X4721990Y-10777067D01*
X4741038Y-10786590D01*
X4750562Y-10796114D01*
X4760086Y-10815162D01*
X4760086Y-10862781D01*
X4750562Y-10881829D01*
X4741038Y-10891352D01*
X4721990Y-10900876D01*
X4674371Y-10900876D01*
X4655324Y-10891352D01*
X4645800Y-10881829D01*
X4836276Y-10700876D02*
X4836276Y-10738971D01*
X4912467Y-10700876D02*
X4912467Y-10738971D01*
X5207705Y-10977067D02*
X5198181Y-10967543D01*
X5179133Y-10938971D01*
X5169610Y-10919924D01*
X5160086Y-10891352D01*
X5150562Y-10843733D01*
X5150562Y-10805638D01*
X5160086Y-10758019D01*
X5169610Y-10729448D01*
X5179133Y-10710400D01*
X5198181Y-10681829D01*
X5207705Y-10672305D01*
X5369610Y-10700876D02*
X5331514Y-10700876D01*
X5312467Y-10710400D01*
X5302943Y-10719924D01*
X5283895Y-10748495D01*
X5274371Y-10786590D01*
X5274371Y-10862781D01*
X5283895Y-10881829D01*
X5293419Y-10891352D01*
X5312467Y-10900876D01*
X5350562Y-10900876D01*
X5369610Y-10891352D01*
X5379133Y-10881829D01*
X5388657Y-10862781D01*
X5388657Y-10815162D01*
X5379133Y-10796114D01*
X5369610Y-10786590D01*
X5350562Y-10777067D01*
X5312467Y-10777067D01*
X5293419Y-10786590D01*
X5283895Y-10796114D01*
X5274371Y-10815162D01*
X5626752Y-10900876D02*
X5626752Y-10700876D01*
X5712467Y-10900876D02*
X5712467Y-10796114D01*
X5702943Y-10777067D01*
X5683895Y-10767543D01*
X5655324Y-10767543D01*
X5636276Y-10777067D01*
X5626752Y-10786590D01*
X5836276Y-10900876D02*
X5817228Y-10891352D01*
X5807705Y-10881829D01*
X5798181Y-10862781D01*
X5798181Y-10805638D01*
X5807705Y-10786590D01*
X5817228Y-10777067D01*
X5836276Y-10767543D01*
X5864848Y-10767543D01*
X5883895Y-10777067D01*
X5893419Y-10786590D01*
X5902943Y-10805638D01*
X5902943Y-10862781D01*
X5893419Y-10881829D01*
X5883895Y-10891352D01*
X5864848Y-10900876D01*
X5836276Y-10900876D01*
X6017228Y-10900876D02*
X5998181Y-10891352D01*
X5988657Y-10872305D01*
X5988657Y-10700876D01*
X6169609Y-10891352D02*
X6150562Y-10900876D01*
X6112467Y-10900876D01*
X6093419Y-10891352D01*
X6083895Y-10872305D01*
X6083895Y-10796114D01*
X6093419Y-10777067D01*
X6112467Y-10767543D01*
X6150562Y-10767543D01*
X6169609Y-10777067D01*
X6179133Y-10796114D01*
X6179133Y-10815162D01*
X6083895Y-10834210D01*
X6255324Y-10891352D02*
X6274371Y-10900876D01*
X6312467Y-10900876D01*
X6331514Y-10891352D01*
X6341038Y-10872305D01*
X6341038Y-10862781D01*
X6331514Y-10843733D01*
X6312467Y-10834210D01*
X6283895Y-10834210D01*
X6264848Y-10824686D01*
X6255324Y-10805638D01*
X6255324Y-10796114D01*
X6264848Y-10777067D01*
X6283895Y-10767543D01*
X6312467Y-10767543D01*
X6331514Y-10777067D01*
X6407705Y-10977067D02*
X6417228Y-10967543D01*
X6436276Y-10938971D01*
X6445800Y-10919924D01*
X6455324Y-10891352D01*
X6464848Y-10843733D01*
X6464848Y-10805638D01*
X6455324Y-10758019D01*
X6445800Y-10729448D01*
X6436276Y-10710400D01*
X6417228Y-10681829D01*
X6407705Y-10672305D01*
X6769609Y-10977067D02*
X6760086Y-10967543D01*
X6741038Y-10938971D01*
X6731514Y-10919924D01*
X6721990Y-10891352D01*
X6712467Y-10843733D01*
X6712467Y-10805638D01*
X6721990Y-10758019D01*
X6731514Y-10729448D01*
X6741038Y-10710400D01*
X6760086Y-10681829D01*
X6769609Y-10672305D01*
X6845800Y-10767543D02*
X6845800Y-10900876D01*
X6845800Y-10786590D02*
X6855324Y-10777067D01*
X6874371Y-10767543D01*
X6902943Y-10767543D01*
X6921990Y-10777067D01*
X6931514Y-10796114D01*
X6931514Y-10900876D01*
X7055324Y-10900876D02*
X7036276Y-10891352D01*
X7026752Y-10881829D01*
X7017228Y-10862781D01*
X7017228Y-10805638D01*
X7026752Y-10786590D01*
X7036276Y-10777067D01*
X7055324Y-10767543D01*
X7083895Y-10767543D01*
X7102943Y-10777067D01*
X7112467Y-10786590D01*
X7121990Y-10805638D01*
X7121990Y-10862781D01*
X7112467Y-10881829D01*
X7102943Y-10891352D01*
X7083895Y-10900876D01*
X7055324Y-10900876D01*
X7179133Y-10767543D02*
X7255324Y-10767543D01*
X7207705Y-10700876D02*
X7207705Y-10872305D01*
X7217228Y-10891352D01*
X7236276Y-10900876D01*
X7255324Y-10900876D01*
X7474371Y-10767543D02*
X7474371Y-10967543D01*
X7474371Y-10777067D02*
X7493419Y-10767543D01*
X7531514Y-10767543D01*
X7550562Y-10777067D01*
X7560086Y-10786590D01*
X7569609Y-10805638D01*
X7569609Y-10862781D01*
X7560086Y-10881829D01*
X7550562Y-10891352D01*
X7531514Y-10900876D01*
X7493419Y-10900876D01*
X7474371Y-10891352D01*
X7683895Y-10900876D02*
X7664848Y-10891352D01*
X7655324Y-10872305D01*
X7655324Y-10700876D01*
X7845800Y-10900876D02*
X7845800Y-10796114D01*
X7836276Y-10777067D01*
X7817228Y-10767543D01*
X7779133Y-10767543D01*
X7760086Y-10777067D01*
X7845800Y-10891352D02*
X7826752Y-10900876D01*
X7779133Y-10900876D01*
X7760086Y-10891352D01*
X7750562Y-10872305D01*
X7750562Y-10853257D01*
X7760086Y-10834210D01*
X7779133Y-10824686D01*
X7826752Y-10824686D01*
X7845800Y-10815162D01*
X7912467Y-10767543D02*
X7988657Y-10767543D01*
X7941038Y-10700876D02*
X7941038Y-10872305D01*
X7950562Y-10891352D01*
X7969609Y-10900876D01*
X7988657Y-10900876D01*
X8131514Y-10891352D02*
X8112467Y-10900876D01*
X8074371Y-10900876D01*
X8055324Y-10891352D01*
X8045800Y-10872305D01*
X8045800Y-10796114D01*
X8055324Y-10777067D01*
X8074371Y-10767543D01*
X8112467Y-10767543D01*
X8131514Y-10777067D01*
X8141038Y-10796114D01*
X8141038Y-10815162D01*
X8045800Y-10834210D01*
X8312467Y-10900876D02*
X8312467Y-10700876D01*
X8312467Y-10891352D02*
X8293419Y-10900876D01*
X8255324Y-10900876D01*
X8236276Y-10891352D01*
X8226752Y-10881829D01*
X8217228Y-10862781D01*
X8217228Y-10805638D01*
X8226752Y-10786590D01*
X8236276Y-10777067D01*
X8255324Y-10767543D01*
X8293419Y-10767543D01*
X8312467Y-10777067D01*
X8388657Y-10977067D02*
X8398181Y-10967543D01*
X8417229Y-10938971D01*
X8426752Y-10919924D01*
X8436276Y-10891352D01*
X8445800Y-10843733D01*
X8445800Y-10805638D01*
X8436276Y-10758019D01*
X8426752Y-10729448D01*
X8417229Y-10710400D01*
X8398181Y-10681829D01*
X8388657Y-10672305D01*
M02*
