M48
; DRILL file {KiCad (6.0.0)} date Wed Feb  8 23:18:47 2023
; FORMAT={-:-/ absolute / metric / decimal}
; #@! TF.CreationDate,2023-02-08T23:18:47+02:00
; #@! TF.GenerationSoftware,Kicad,Pcbnew,(6.0.0)
; #@! TF.FileFunction,Plated,1,2,PTH
FMAT,2
METRIC
; #@! TA.AperFunction,Plated,PTH,ViaDrill
T1C0.400
; #@! TA.AperFunction,Plated,PTH,ComponentDrill
T2C1.000
; #@! TA.AperFunction,Plated,PTH,ComponentDrill
T3C1.092
; #@! TA.AperFunction,Plated,PTH,ComponentDrill
T4C1.470
; #@! TA.AperFunction,Plated,PTH,ComponentDrill
T5C1.500
; #@! TA.AperFunction,Plated,PTH,ComponentDrill
T6C2.200
%
G90
G05
T1
X19.9Y-35.2
X35.5Y-90.0
X44.6Y-35.2
X54.5Y-54.3
X73.6Y-73.3
X74.6Y-46.9
X75.1Y-43.7
X92.6Y-18.6
X94.3Y-43.0
X110.1Y-37.5
X111.7Y-89.8
X129.7Y-36.9
X130.7Y-18.7
X149.0Y-36.7
X149.7Y-73.3
X168.317Y-35.983
X168.8Y-54.3
X187.9Y-90.0
X203.7Y-35.2
T2
X34.068Y-21.913
X34.068Y-29.713
X34.068Y-40.963
X34.068Y-48.763
X34.068Y-60.013
X34.068Y-67.813
X34.068Y-79.063
X34.068Y-86.863
X55.912Y-21.913
X55.912Y-29.713
X55.912Y-40.963
X55.912Y-48.763
X55.912Y-60.013
X55.912Y-67.813
X55.912Y-79.063
X55.912Y-86.863
X72.168Y-21.913
X72.168Y-29.713
X72.168Y-40.963
X72.168Y-48.763
X72.168Y-60.013
X72.168Y-67.813
X72.168Y-79.063
X72.168Y-86.863
X75.0Y-79.063
X75.0Y-86.863
X91.218Y-21.913
X91.218Y-29.713
X91.218Y-40.963
X91.218Y-48.763
X91.218Y-60.013
X91.218Y-67.813
X110.268Y-21.913
X110.268Y-29.713
X110.268Y-40.963
X110.268Y-48.763
X110.268Y-60.013
X110.268Y-67.813
X110.268Y-79.063
X110.268Y-86.863
X113.1Y-79.063
X113.1Y-86.863
X129.318Y-21.913
X129.318Y-29.713
X129.318Y-40.963
X129.318Y-48.763
X129.318Y-60.013
X129.318Y-67.813
X148.368Y-21.913
X148.368Y-29.713
X148.368Y-40.963
X148.368Y-48.763
X148.368Y-60.013
X148.368Y-67.813
X148.368Y-79.063
X148.368Y-86.863
X167.418Y-21.913
X167.418Y-29.713
X167.418Y-40.963
X167.418Y-48.763
X167.418Y-60.013
X167.418Y-67.813
X167.418Y-79.063
X167.418Y-86.863
X186.468Y-21.913
X186.468Y-29.713
X186.468Y-40.963
X186.468Y-48.763
X186.468Y-60.013
X186.468Y-67.813
X186.468Y-79.063
X186.468Y-86.863
X189.262Y-21.913
X189.262Y-29.713
X189.262Y-40.963
X189.262Y-48.763
X189.262Y-60.013
X189.262Y-67.813
X189.262Y-79.063
X189.262Y-86.863
T3
X37.37Y-21.241
X37.37Y-23.781
X37.37Y-26.321
X37.37Y-28.861
X37.37Y-31.401
X37.37Y-33.941
X37.37Y-36.481
X37.37Y-39.021
X37.37Y-41.561
X37.37Y-44.101
X37.37Y-46.641
X37.37Y-49.181
X52.61Y-21.241
X52.61Y-23.781
X52.61Y-26.321
X52.61Y-28.861
X52.61Y-31.401
X52.61Y-33.941
X52.61Y-36.481
X52.61Y-39.021
X52.61Y-41.561
X52.61Y-44.101
X52.61Y-46.641
X52.61Y-49.181
T4
X22.13Y-23.146
X22.13Y-42.196
X22.13Y-61.246
X22.13Y-80.296
X28.48Y-20.606
X28.48Y-39.656
X28.48Y-58.706
X28.48Y-77.756
X41.18Y-42.196
X41.18Y-61.246
X41.18Y-80.296
X42.45Y-30.766
X47.53Y-39.656
X47.53Y-58.706
X47.53Y-77.756
X48.8Y-28.226
X60.23Y-23.146
X60.23Y-42.196
X60.23Y-61.246
X60.23Y-80.296
X66.58Y-20.606
X66.58Y-39.656
X66.58Y-58.706
X66.58Y-77.756
X79.28Y-23.146
X79.28Y-42.196
X79.28Y-61.246
X79.28Y-80.296
X85.63Y-20.606
X85.63Y-39.656
X85.63Y-58.706
X85.63Y-77.756
X98.33Y-23.146
X98.33Y-42.196
X98.33Y-61.246
X99.6Y-87.916
X104.68Y-20.606
X104.68Y-39.656
X104.68Y-58.706
X105.95Y-85.376
X117.38Y-23.146
X117.38Y-42.196
X117.38Y-61.246
X117.38Y-80.296
X123.73Y-20.606
X123.73Y-39.656
X123.73Y-58.706
X123.73Y-77.756
X136.43Y-23.146
X136.43Y-42.196
X136.43Y-61.246
X137.7Y-87.916
X142.78Y-20.606
X142.78Y-39.656
X142.78Y-58.706
X144.05Y-85.376
X155.48Y-23.146
X155.48Y-42.196
X155.48Y-61.246
X155.48Y-80.296
X161.83Y-20.606
X161.83Y-39.656
X161.83Y-58.706
X161.83Y-77.756
X174.53Y-23.146
X174.53Y-42.196
X174.53Y-61.246
X174.53Y-80.296
X180.88Y-20.606
X180.88Y-39.656
X180.88Y-58.706
X180.88Y-77.756
X193.58Y-23.146
X193.58Y-42.196
X193.58Y-61.246
X193.58Y-80.296
X199.93Y-20.606
X199.93Y-39.656
X199.93Y-58.706
X199.93Y-77.756
T5
X90.06Y-87.88
X96.41Y-85.34
X128.16Y-87.88
X134.51Y-85.34
T6
X33.528Y-35.179
X35.306Y-73.279
X111.633Y-54.229
X187.833Y-35.179
X187.96Y-73.279
T0
M30
